<svg width="300" height="260" viewBox="0 0 300 260" fill="none" xmlns="http://www.w3.org/2000/svg">
<g transform="translate(51.5, 31.5) scale(1)">
<path d="M184.324 49.8734L184.858 49.8899C185.56 50.6324 186.5 53.1182 186.965 54.171C190.31 61.732 192.895 69.4054 195.338 77.3038C192.434 76.2208 188.439 75.1435 185.397 74.2354L164.799 68.2322C161.823 67.2068 157.741 66.1404 154.626 65.1894C151.479 60.0376 148.598 56.5435 144.633 51.9497C157.859 51.167 171.089 50.4749 184.324 49.8734Z" fill="#75FBFD" fill-opacity="0.85"/>
<path d="M1.35234 80.6287C2.4758 81.4935 3.5916 82.4419 4.68838 83.346C14.3518 91.3142 24.1302 99.1942 33.6878 107.287C34.2233 110.686 34.9508 114.052 35.866 117.367C36.1832 118.48 37.7035 122.287 37.3529 123.021L36.8324 122.901C25.0549 118.504 11.6675 114.139 0.194518 109.402C0.202799 108.543 0.173357 107.587 0.131338 106.724C-0.300504 97.8849 0.39112 89.4038 1.35234 80.6287Z" fill="#75FBFD" fill-opacity="0.8"/>
<path d="M1.66248 119.696L41.8443 131.33C43.6506 134.304 45.3292 136.807 47.5754 139.492C48.8848 141.056 50.3009 142.581 51.5359 144.183C50.8797 144.188 50.201 144.224 49.5435 144.249C40.9177 144.932 31.8725 145.11 23.2023 145.685C19.4984 145.931 15.6945 145.96 11.9952 146.295C8.1507 138.708 3.94285 128 1.66248 119.696Z" fill="#75FBFD" fill-opacity="0.75"/>
<path d="M158.764 73.9789C170.054 77.5482 181.288 81.8604 192.439 85.8419C193.903 86.3648 195.377 86.9331 196.816 87.519C197.12 97.5641 197.217 105.451 195.722 115.54L191.213 111.971L190.67 111.524L171.732 96.5778C169.397 94.7255 164.771 91.3005 162.834 89.4491C161.791 82.784 160.691 80.1503 158.764 73.9789Z" fill="#75FBFD" fill-opacity="0.8"/>
<path d="M144.251 144.633C144.586 145.266 146.234 181.168 146.295 184.142C140.287 187.542 127.257 192.248 120.604 194.076L118.865 194.506C119.507 192.283 120.229 190.054 120.934 187.848C124.474 176.773 127.52 165.471 131.157 154.432C136.582 151.008 139.328 148.826 144.251 144.633Z" fill="#75FBFD" fill-opacity="0.65"/>
<path d="M76.807 1.67401L77.1807 1.66245L77.3038 1.85439C77.2084 2.85072 76.2109 5.54457 75.8585 6.61624C75.1531 8.76707 74.4746 10.9267 73.8229 13.0947C71.0088 22.3289 68.1592 32.9449 65.0745 41.9643C61.2853 44.3102 57.7378 46.8637 54.3491 49.7767C53.641 50.3854 52.989 50.9609 52.2503 51.5359L52.0392 51.4349L51.9791 50.7621C51.8723 46.5661 51.5196 42.0881 51.3048 37.8727C50.8966 29.1934 50.4196 20.5179 49.8734 11.8467C56.3338 8.55668 69.839 3.31496 76.807 1.67401Z" fill="#75FBFD" fill-opacity="0.95"/>
<path d="M41.7317 18.2869C42.209 18.7737 46.1228 55.181 46.5485 58.8558C44.3322 61.3042 42.313 64.7544 40.7247 67.6714C39.8826 69.2182 39.2379 70.796 38.2826 72.3165C36.8552 69.6711 35.4671 67.0057 34.1192 64.3209C29.5944 55.4642 25.1482 46.5695 20.7806 37.6376C21.8782 36.275 23.5342 34.593 24.7643 33.2968C29.9205 27.7763 35.6019 22.7505 41.7317 18.2869Z" fill="#75FBFD" fill-opacity="0.9"/>
<path d="M158.735 124.684C159.827 125.512 175.274 156.91 176.219 159.236C172.169 164.108 166.958 168.908 162.22 173.154C159.911 175.037 157.576 176.891 155.216 178.713C154.52 174.915 154.073 168.918 153.617 164.972L150.451 138.153C153.68 134.509 156.504 128.961 158.735 124.684Z" fill="#75FBFD" fill-opacity="0.7"/>
<path d="M158.882 20.7806C159.422 20.9105 166.802 27.9414 167.7 28.842C171.477 32.63 175.521 36.9363 178.713 41.208C175.145 41.4588 170.953 41.9961 167.348 42.386L142.552 45.1439L137.032 45.7173C131.604 41.8225 128.581 40.7236 123.021 37.7031C127.241 35.9619 132.47 33.234 136.687 31.2282L158.882 20.7806Z" fill="#75FBFD" fill-opacity="0.9"/>
<path d="M58.0128 150.456C58.4982 150.346 60.9951 152.342 61.6201 152.766C65.0558 155.102 68.7098 156.675 72.3165 158.625C69.2703 160.269 65.6811 161.955 62.5605 163.515L36.8185 176.219L34.0789 173.657C28.469 168.575 22.0089 161.522 17.4557 155.375C19.0867 155.068 21.5146 154.835 23.2236 154.629L33.6212 153.379C41.612 152.42 50.0422 151.24 58.0128 150.456Z" fill="#75FBFD" fill-opacity="0.7"/>
<path d="M121.965 159.595L122.189 159.619C122.274 160.106 109.946 193.215 108.715 196.688C99.0789 197.259 92.346 197.107 82.5537 195.724L80.6287 195.442C83.4655 192.178 86.2406 188.56 88.9757 185.184C94.8727 177.877 100.819 170.611 106.813 163.387C112.696 162.237 116.155 161.384 121.965 159.595Z" fill="#75FBFD" fill-opacity="0.6"/>
<path d="M94.9072 0.00924945C101.248 -0.0858023 109.213 0.560857 115.54 1.52916C110.288 8.20057 104.95 14.8027 99.5294 21.3343C96.4566 25.0523 93.2359 28.76 90.2408 32.516L89.44 33.4135C83.4376 34.6427 79.8321 35.5712 73.9789 37.4051C76.1855 32.4219 77.9547 26.8221 79.8887 21.7016C82.5791 14.5776 85.287 7.43249 87.8104 0.248107C90.1755 0.154589 92.5412 0.0751724 94.9072 0.00924945Z" fill="#75FBFD"/>
<path d="M163.697 98.0844C164.459 98.4631 168.912 102.818 169.832 103.676C177.553 110.877 185.224 118.134 192.844 125.448C190.61 131.975 187.624 138.721 184.616 144.897L181.427 151.283C178.843 146.894 176.206 141.791 173.696 137.283C169.458 129.822 165.311 122.306 161.257 114.735C161.872 111.607 162.44 109.041 162.881 105.839C163.249 103.163 163.371 100.673 163.697 98.0844Z" fill="#75FBFD" fill-opacity="0.75"/>
<path d="M81.2273 161.257C84.6818 162.454 93.5709 163.486 97.2531 163.847C92.6014 168.655 87.7856 173.945 83.2563 178.871C78.9763 183.493 74.735 188.151 70.5328 192.844C68.4874 192.081 66.542 191.358 64.5387 190.492C58.1204 187.737 51.8391 184.67 45.7173 181.3C49.3328 179.547 53.6911 176.713 57.2682 174.678C65.0968 170.226 73.1916 165.276 81.2273 161.257Z" fill="#75FBFD" fill-opacity="0.65"/>
<path d="M14.5158 45.7173C21.6858 57.7992 28.7617 69.9349 35.7426 82.1234C34.4232 88.4746 33.7487 92.5163 33.1695 98.9156L28.4622 94.6641C26.1697 92.4121 23.5057 90.3037 21.1652 88.1181C15.1258 82.478 8.43419 77.0148 2.49365 71.3404C5.99576 62.181 9.95996 54.3387 14.5158 45.7173Z" fill="#75FBFD" fill-opacity="0.85"/>
<path d="M126.002 4.15613C126.586 4.28382 129.455 5.38944 130.083 5.65065C136.846 8.46568 144.969 11.9707 151.283 15.6455C148.382 17.0627 144.608 19.3187 141.761 20.9173C134.942 24.8051 128.098 28.6472 121.227 32.4426C119.213 33.5673 117.185 34.6674 115.144 35.7426C109.737 34.2641 104.453 33.7524 98.9156 33.1729C101.622 30.08 105.082 26.6011 107.931 23.5602L126.002 4.15613Z" fill="#75FBFD" fill-opacity="0.95"/>
</g>
</svg>
