<svg width="960" height="960" viewBox="0 0 960 960" fill="none" xmlns="http://www.w3.org/2000/svg">
<path d="M898.228 243.038L900.832 243.118C904.251 246.737 908.83 258.85 911.098 263.98C927.4 300.826 939.994 338.219 951.899 376.709C937.747 371.431 918.281 366.181 903.458 361.756L803.082 332.502C788.579 327.505 768.685 322.308 753.509 317.674C738.173 292.569 724.132 275.542 704.81 253.156C769.26 249.342 833.733 245.969 898.228 243.038Z" fill="white" fill-opacity="0.925"/>
<path d="M6.59007 392.911C12.0648 397.126 17.5022 401.747 22.8469 406.153C69.9376 444.983 117.589 483.383 164.164 522.822C166.773 539.385 170.319 555.784 174.779 571.94C176.324 577.366 183.733 595.916 182.024 599.494L179.488 598.91C122.095 577.483 56.8568 556.21 0.947905 533.127C0.988259 528.938 0.844786 524.283 0.640024 520.075C-1.46439 477.002 1.90596 435.673 6.59007 392.911Z" fill="white" fill-opacity="0.9"/>
<path d="M8.10135 583.291L203.911 639.982C212.713 654.478 220.893 666.675 231.839 679.756C238.22 687.38 245.121 694.812 251.139 702.617C247.941 702.642 244.634 702.816 241.43 702.941C199.396 706.268 155.318 707.136 113.067 709.937C95.0176 711.134 76.4808 711.276 58.4538 712.911C39.7191 675.938 19.2138 623.755 8.10135 583.291Z" fill="white" fill-opacity="0.875"/>
<path d="M773.67 360.506C828.691 377.9 883.432 398.914 937.772 418.316C944.907 420.864 952.089 423.634 959.103 426.489C960.585 475.439 961.058 513.873 953.771 563.038L931.799 545.644L929.15 543.469L836.864 470.633C825.488 461.607 802.944 444.916 793.505 435.894C788.424 403.414 783.062 390.58 773.67 360.506Z" fill="white" fill-opacity="0.9"/>
<path d="M702.947 704.81C704.581 707.895 712.611 882.849 712.911 897.343C683.632 913.909 620.135 936.842 587.715 945.753L579.24 947.848C582.368 937.014 585.887 926.149 589.321 915.404C606.576 861.434 621.416 806.356 639.141 752.562C665.578 735.875 678.957 725.242 702.947 704.81Z" fill="white" fill-opacity="0.825"/>
<path d="M374.288 8.15769L376.109 8.10132L376.709 9.0367C376.244 13.8919 371.383 27.0193 369.666 32.2416C366.228 42.7229 362.922 53.2467 359.746 63.8118C346.033 108.811 332.146 160.544 317.114 204.496C298.649 215.928 281.362 228.372 264.849 242.567C261.398 245.533 258.22 248.338 254.621 251.139L253.592 250.647L253.299 247.369C252.779 226.921 251.06 205.1 250.013 184.558C248.024 142.262 245.699 99.9857 243.038 57.7302C274.52 41.6976 340.332 16.1542 374.288 8.15769Z" fill="white" fill-opacity="0.975"/>
<path d="M203.362 89.1136C205.688 91.486 224.761 268.902 226.835 286.81C216.035 298.741 206.195 315.554 198.455 329.769C194.352 337.307 191.21 344.995 186.554 352.405C179.598 339.514 172.834 326.525 166.266 313.442C144.216 270.282 122.549 226.937 101.265 183.411C106.614 176.771 114.684 168.575 120.678 162.258C145.805 135.356 173.491 110.865 203.362 89.1136Z" fill="white" fill-opacity="0.95"/>
<path d="M773.53 607.595C778.852 611.634 854.125 764.638 858.734 775.971C838.994 799.713 813.6 823.106 790.514 843.796C779.261 852.974 767.882 862.005 756.38 870.886C752.991 852.379 750.811 823.152 748.59 803.925L733.164 673.233C748.897 655.474 762.659 628.441 773.53 607.595Z" fill="white" fill-opacity="0.85"/>
<path d="M774.247 101.265C776.879 101.899 812.841 136.161 817.217 140.55C835.623 159.009 855.329 179.994 870.886 200.81C853.496 202.033 833.071 204.651 815.502 206.551L694.671 219.99L667.772 222.784C641.319 203.805 626.586 198.45 599.494 183.73C620.055 175.245 645.541 161.952 666.089 152.177L774.247 101.265Z" fill="white" fill-opacity="0.95"/>
<path d="M282.702 733.186C285.067 732.65 297.235 742.374 300.28 744.444C317.023 755.827 334.829 763.49 352.405 772.994C337.561 781.004 320.07 789.22 304.863 796.823L179.42 858.734L166.07 846.247C138.732 821.483 107.252 787.111 85.0632 757.159C93.0115 755.66 104.843 754.526 113.171 753.52L163.839 747.431C202.779 742.758 243.86 737.005 282.702 733.186Z" fill="white" fill-opacity="0.85"/>
<path d="M594.347 777.722L595.441 777.839C595.851 780.214 535.777 941.558 529.778 958.477C482.821 961.263 450.011 960.52 402.292 953.782L392.911 952.406C406.735 936.5 420.259 918.872 433.587 902.422C462.324 866.813 491.3 831.405 520.512 796.2C549.18 790.596 566.035 786.438 594.347 777.722Z" fill="white" fill-opacity="0.8"/>
<path d="M462.492 0.0450734C493.39 -0.418123 532.204 2.73311 563.038 7.45173C537.442 39.9621 511.431 72.1348 485.016 103.964C470.042 122.082 454.348 140.15 439.752 158.454L435.849 162.827C406.6 168.817 389.03 173.342 360.506 182.278C371.259 157.995 379.881 130.707 389.305 105.754C402.416 71.0381 415.611 36.2192 427.909 1.20905C439.434 0.753326 450.962 0.366322 462.492 0.0450734Z" fill="white"/>
<path d="M797.713 477.974C801.422 479.82 823.126 501.043 827.609 505.221C865.231 540.313 902.612 575.678 939.746 611.318C928.859 643.128 914.311 675.999 899.653 706.096L884.11 737.215C871.517 715.828 858.669 690.962 846.439 668.993C825.784 632.635 805.575 596.006 785.822 559.115C788.818 543.871 791.586 531.368 793.734 515.765C795.528 502.725 796.121 490.587 797.713 477.974Z" fill="white" fill-opacity="0.875"/>
<path d="M395.828 785.822C412.663 791.654 455.98 796.683 473.924 798.444C451.256 821.869 427.788 847.652 405.716 871.654C384.859 894.176 364.191 916.875 343.713 939.746C333.746 936.027 324.266 932.506 314.503 928.284C283.226 914.86 252.617 899.913 222.785 883.493C240.404 874.949 261.642 861.137 279.073 851.225C317.223 829.529 356.67 805.408 395.828 785.822Z" fill="white" fill-opacity="0.825"/>
<path d="M70.737 222.785C105.677 281.661 140.159 340.799 174.177 400.195C167.748 431.145 164.46 450.841 161.638 482.025L138.699 461.307C127.527 450.333 114.545 440.058 103.14 429.408C73.7093 401.923 41.1005 375.3 12.1518 347.649C29.2179 303.014 48.5358 264.798 70.737 222.785Z" fill="white" fill-opacity="0.925"/>
<path d="M614.021 20.2533C616.866 20.8755 630.847 26.2634 633.907 27.5363C666.863 41.2541 706.448 58.3346 737.215 76.2421C723.079 83.1482 704.687 94.1422 690.814 101.932C657.587 120.878 624.233 139.601 590.753 158.096C580.938 163.577 571.055 168.938 561.108 174.177C534.757 166.972 509.007 164.479 482.026 161.655C495.214 146.583 512.076 129.63 525.958 114.811L614.021 20.2533Z" fill="white" fill-opacity="0.975"/>
</svg>
