<svg width="1024" height="1024" viewBox="0 0 1024 1024" fill="none" xmlns="http://www.w3.org/2000/svg">
<path d="M930.228 275.038L932.832 275.118C936.251 278.737 940.83 290.85 943.098 295.98C959.4 332.826 971.994 370.219 983.899 408.709C969.747 403.431 950.281 398.181 935.458 393.756L835.082 364.502C820.579 359.505 800.685 354.308 785.509 349.674C770.173 324.569 756.132 307.542 736.81 285.156C801.26 281.342 865.733 277.969 930.228 275.038Z" fill="#00FFFF" fill-opacity="0.85"/>
<path d="M38.5901 424.911C44.0648 429.126 49.5022 433.747 54.8469 438.153C101.938 476.983 149.589 515.383 196.164 554.822C198.773 571.385 202.319 587.784 206.779 603.94C208.324 609.366 215.733 627.916 214.024 631.493L211.488 630.91C154.095 609.483 88.8568 588.21 32.9479 565.127C32.9883 560.938 32.8448 556.283 32.64 552.075C30.5356 509.002 33.906 467.673 38.5901 424.911Z" fill="#00FFFF" fill-opacity="0.8"/>
<path d="M40.1013 615.291L235.911 671.982C244.713 686.478 252.893 698.675 263.839 711.756C270.22 719.38 277.121 726.812 283.139 734.617C279.941 734.642 276.634 734.816 273.43 734.941C231.396 738.268 187.317 739.136 145.067 741.937C127.018 743.134 108.481 743.276 90.4537 744.911C71.7191 707.938 51.2138 655.755 40.1013 615.291Z" fill="#00FFFF" fill-opacity="0.75"/>
<path d="M805.67 392.506C860.691 409.9 915.432 430.914 969.772 450.316C976.907 452.864 984.089 455.634 991.103 458.489C992.585 507.439 993.058 545.873 985.771 595.038L963.799 577.644L961.15 575.469L868.864 502.633C857.488 493.607 834.944 476.916 825.505 467.894C820.424 435.414 815.062 422.58 805.67 392.506Z" fill="#00FFFF" fill-opacity="0.8"/>
<path d="M734.947 736.81C736.581 739.895 744.611 914.849 744.911 929.343C715.632 945.909 652.135 968.842 619.715 977.753L611.24 979.848C614.368 969.014 617.887 958.149 621.321 947.404C638.576 893.434 653.416 838.356 671.141 784.562C697.577 767.875 710.957 757.242 734.947 736.81Z" fill="#00FFFF" fill-opacity="0.65"/>
<path d="M406.288 40.1577L408.109 40.1013L408.709 41.0367C408.244 45.8919 403.383 59.0193 401.666 64.2416C398.228 74.7229 394.922 85.2467 391.746 95.8118C378.033 140.811 364.146 192.544 349.114 236.496C330.649 247.928 313.362 260.372 296.849 274.567C293.398 277.533 290.22 280.338 286.621 283.139L285.592 282.647L285.299 279.369C284.779 258.921 283.06 237.1 282.013 216.558C280.024 174.262 277.699 131.986 275.038 89.7302C306.52 73.6976 372.332 48.1542 406.288 40.1577Z" fill="#00FFFF" fill-opacity="0.95"/>
<path d="M235.362 121.114C237.688 123.486 256.761 300.902 258.835 318.81C248.035 330.741 238.195 347.554 230.455 361.769C226.352 369.307 223.21 376.995 218.554 384.405C211.598 371.514 204.834 358.525 198.266 345.442C176.216 302.282 154.549 258.937 133.265 215.411C138.614 208.771 146.684 200.575 152.678 194.258C177.805 167.356 205.491 142.865 235.362 121.114Z" fill="#00FFFF" fill-opacity="0.9"/>
<path d="M805.53 639.595C810.852 643.634 886.125 796.638 890.734 807.971C870.995 831.713 845.6 855.106 822.514 875.796C811.261 884.974 799.882 894.005 788.38 902.886C784.991 884.379 782.811 855.152 780.59 835.925L765.164 705.233C780.897 687.474 794.659 660.441 805.53 639.595Z" fill="#00FFFF" fill-opacity="0.7"/>
<path d="M806.247 133.265C808.879 133.899 844.841 168.161 849.217 172.55C867.623 191.009 887.329 211.994 902.886 232.81C885.496 234.033 865.071 236.651 847.502 238.551L726.671 251.99L699.772 254.784C673.319 235.805 658.586 230.45 631.494 215.73C652.055 207.245 677.54 193.952 698.089 184.177L806.247 133.265Z" fill="#00FFFF" fill-opacity="0.9"/>
<path d="M314.702 765.186C317.067 764.65 329.235 774.374 332.28 776.444C349.023 787.827 366.829 795.49 384.405 804.994C369.561 813.004 352.07 821.22 336.863 828.823L211.42 890.734L198.07 878.247C170.732 853.483 139.252 819.111 117.063 789.159C125.012 787.66 136.843 786.526 145.171 785.52L195.839 779.431C234.779 774.758 275.86 769.005 314.702 765.186Z" fill="#00FFFF" fill-opacity="0.7"/>
<path d="M626.347 809.722L627.441 809.839C627.851 812.214 567.777 973.558 561.778 990.477C514.821 993.263 482.011 992.52 434.292 985.782L424.911 984.406C438.735 968.5 452.259 950.872 465.587 934.422C494.324 898.813 523.3 863.405 552.512 828.2C581.18 822.596 598.035 818.438 626.347 809.722Z" fill="#00FFFF" fill-opacity="0.6"/>
<path d="M494.492 32.0451C525.39 31.5819 564.204 34.7331 595.038 39.4517C569.442 71.9621 543.431 104.135 517.016 135.964C502.042 154.082 486.348 172.15 471.752 190.454L467.849 194.827C438.6 200.817 421.03 205.342 392.506 214.278C403.259 189.995 411.881 162.707 421.305 137.754C434.416 103.038 447.611 68.2192 459.909 33.2091C471.434 32.7533 482.962 32.3663 494.492 32.0451Z" fill="#00FFFF"/>
<path d="M829.713 509.974C833.422 511.82 855.126 533.043 859.609 537.221C897.231 572.313 934.612 607.678 971.747 643.318C960.859 675.128 946.311 707.999 931.653 738.096L916.11 769.215C903.517 747.828 890.669 722.962 878.439 700.993C857.784 664.635 837.575 628.006 817.823 591.115C820.819 575.871 823.586 563.368 825.734 547.765C827.528 534.725 828.121 522.587 829.713 509.974Z" fill="#00FFFF" fill-opacity="0.75"/>
<path d="M427.828 817.822C444.663 823.654 487.98 828.683 505.924 830.444C483.256 853.869 459.788 879.652 437.716 903.654C416.859 926.176 396.191 948.875 375.713 971.746C365.746 968.027 356.265 964.506 346.503 960.284C315.226 946.86 284.617 931.913 254.785 915.493C272.404 906.949 293.642 893.137 311.073 883.225C349.223 861.529 388.67 837.408 427.828 817.822Z" fill="#00FFFF" fill-opacity="0.65"/>
<path d="M102.737 254.785C137.677 313.661 172.159 372.799 206.177 432.195C199.748 463.145 196.46 482.841 193.638 514.025L170.699 493.307C159.527 482.333 146.545 472.058 135.14 461.408C105.709 433.923 73.1005 407.3 44.1517 379.649C61.2179 335.014 80.5358 296.798 102.737 254.785Z" fill="#00FFFF" fill-opacity="0.85"/>
<path d="M646.021 52.2533C648.866 52.8755 662.847 58.2634 665.907 59.5363C698.863 73.2541 738.448 90.3346 769.215 108.242C755.079 115.148 736.687 126.142 722.814 133.932C689.587 152.878 656.233 171.601 622.753 190.096C612.938 195.577 603.055 200.938 593.108 206.177C566.757 198.972 541.007 196.479 514.026 193.655C527.214 178.583 544.076 161.63 557.958 146.811L646.021 52.2533Z" fill="#00FFFF" fill-opacity="0.95"/>
</svg>
