<svg width="90" height="90" viewBox="0 0 90 90" fill="none" xmlns="http://www.w3.org/2000/svg">
<g clip-path="url(#clip0_3023_138)">
<path d="M45 5C67.1 5 85 22.9 85 45C84.9979 53.381 82.3675 61.5503 77.4792 68.3581C72.5909 75.1659 65.6907 80.2693 57.75 82.95C55.75 83.35 55 82.1 55 81.05C55 79.7 55.05 75.4 55.05 70.05C55.05 66.3 53.8 63.9 52.35 62.65C61.25 61.65 70.6 58.25 70.6 42.9C70.6 38.5 69.05 34.95 66.5 32.15C66.9 31.15 68.3 27.05 66.1 21.55C66.1 21.55 62.75 20.45 55.1 25.65C51.9 24.75 48.5 24.3 45.1 24.3C41.7 24.3 38.3 24.75 35.1 25.65C27.45 20.5 24.1 21.55 24.1 21.55C21.9 27.05 23.3 31.15 23.7 32.15C21.15 34.95 19.6 38.55 19.6 42.9C19.6 58.2 28.9 61.65 37.8 62.65C36.65 63.65 35.6 65.4 35.25 68C32.95 69.05 27.2 70.75 23.6 64.7C22.85 63.5 20.6 60.55 17.45 60.6C14.1 60.65 16.1 62.5 17.5 63.25C19.2 64.2 21.15 67.75 21.6 68.9C22.4 71.15 25 75.45 35.05 73.6C35.05 76.95 35.1 80.1 35.1 81.05C35.1 82.1 34.35 83.3 32.35 82.95C24.3832 80.2982 17.4537 75.2051 12.5445 68.3932C7.63523 61.5813 4.9956 53.3966 5.00001 45C5.00001 22.9 22.9 5 45 5Z" fill="white" fill-opacity="0.92" stroke="white" stroke-opacity="0.92"/>
</g>
<defs>
<clipPath id="clip0_3023_138">
<rect width="80" height="80" fill="white" transform="translate(5 5)"/>
</clipPath>
</defs>
</svg>
