<svg xmlns="http://www.w3.org/2000/svg" viewBox="0 0 17 16" fill="currentColor">
  <path d="M13.8212 13.6347H11.4518V9.922C11.4518 9.03667 11.4338 7.89733 10.2172 7.89733C8.98182 7.89733 8.79315 8.86067 8.79315 9.85667V13.6347H6.42382V6H8.69982V7.04067H8.73049C9.04849 6.44067 9.82182 5.80733 10.9772 5.80733C13.3778 5.80733 13.8218 7.38733 13.8218 9.444V13.6347H13.8212ZM3.74782 4.95533C2.98515 4.95533 2.37249 4.338 2.37249 3.57867C2.37249 2.82 2.98582 2.20333 3.74782 2.20333C4.50782 2.20333 5.12382 2.82 5.12382 3.57867C5.12382 4.338 4.50715 4.95533 3.74782 4.95533ZM4.93582 13.6347H2.55982V6H4.93582V13.6347ZM15.0065 0H1.37049C0.717819 0 0.189819 0.516 0.189819 1.15267V14.8473C0.189819 15.4847 0.717819 16 1.37049 16H15.0045C15.6565 16 16.1898 15.4847 16.1898 14.8473V1.15267C16.1898 0.516 15.6565 0 15.0045 0H15.0065Z"></path>
</svg>
