<svg width="300" height="260" viewBox="0 0 300 260" fill="none" xmlns="http://www.w3.org/2000/svg">
<path fill-rule="evenodd" clip-rule="evenodd" d="M280 78.2394V216.335C280 221.109 276.114 224.977 271.324 224.972L236.632 224.931C232.045 224.926 228.295 221.371 227.995 216.876C227.998 216.706 228 216.535 228 216.364L227.999 164.547C227.999 150.238 216.342 138.639 201.983 138.639C188.066 138.639 176.689 127.743 176 114.044V35.0123L236.699 35.0568C260.618 35.0743 280 54.4026 280 78.2394ZM106.667 35.0002V95.4821C106.667 109.792 118.307 121.392 132.667 121.392H158.667V119.655C158.667 139.678 174.956 155.91 195.049 155.91C203.661 155.91 210.642 162.867 210.642 171.449V216.294C210.642 216.501 210.645 216.706 210.649 216.911C210.365 221.426 206.601 225 201.999 225L158.37 224.998L158.667 164.586C158.691 159.816 154.828 155.931 150.042 155.907C145.256 155.883 141.357 159.732 141.333 164.502L141.037 224.96V224.996L89.225 224.992V164.544C89.225 159.774 85.3445 155.907 80.5583 155.907C75.7722 155.907 71.8917 159.774 71.8917 164.544V224.991L28.6661 224.989C23.8798 224.988 20 221.122 20 216.353V78.1822C20 54.3333 39.4011 34.9998 63.3333 35L106.667 35.0002ZM241.043 87.0529C241.043 79.8987 235.223 74.0982 228.043 74.0982C220.863 74.0982 215.043 79.8987 215.043 87.0529C215.043 94.2083 220.863 100.008 228.043 100.008C235.223 100.008 241.043 94.2083 241.043 87.0529Z" fill="#F6F95C"/>
</svg>
