<svg width="300" height="260" viewBox="0 0 300 260" fill="none" xmlns="http://www.w3.org/2000/svg">
<g clip-path="url(#clip0_23_2)">
<path fill-rule="evenodd" clip-rule="evenodd" d="M266 82.7356V212.835C266 217.332 262.353 220.976 257.858 220.971L225.301 220.933C220.996 220.928 217.477 217.579 217.195 213.345C217.198 213.184 217.2 213.023 217.2 212.861L217.199 164.046C217.199 150.565 206.26 139.637 192.784 139.637C179.724 139.637 169.047 129.373 168.4 116.468V42.012L225.364 42.0538C247.811 42.0704 266 60.2794 266 82.7356ZM103.333 42.0005L103.333 98.9799C103.333 112.461 114.257 123.389 127.733 123.389H152.133V121.753C152.133 140.617 167.42 155.909 186.277 155.909C194.359 155.909 200.91 162.463 200.91 170.547V212.796C200.91 212.991 200.913 213.185 200.917 213.377C200.651 217.631 197.118 220.999 192.799 220.999L151.855 220.996L152.133 164.083C152.156 159.589 148.531 155.928 144.04 155.906C139.548 155.884 135.889 159.509 135.867 164.003L135.588 220.96V220.995L86.9649 220.992V164.042C86.9649 159.549 83.3235 155.906 78.8316 155.906C74.3396 155.906 70.6982 159.549 70.6982 164.042V220.991L30.1328 220.988C25.6411 220.988 22 217.345 22 212.851V82.6821C22 60.2141 40.2072 42.0002 62.6669 42.0003L103.333 42.0005ZM229.441 91.0394C229.441 84.299 223.978 78.8349 217.241 78.8349C210.502 78.8349 205.041 84.299 205.041 91.0394C205.041 97.7798 210.502 103.244 217.241 103.244C223.978 103.244 229.441 97.7798 229.441 91.0394Z" fill="#F6F95C"/>
</g>
<defs>
<clipPath id="clip0_23_2">
<rect width="244" height="179" fill="white" transform="translate(22 42)"/>
</clipPath>
</defs>
</svg>
