<svg width="90" height="90" viewBox="0 0 90 90" fill="none" xmlns="http://www.w3.org/2000/svg">
<g clip-path="url(#clip0_3010_138)">
<path d="M79.4254 57.1669L89.0723 61.9931C90.3098 62.6119 90.3098 64.3781 89.0723 64.9969L46.5023 86.2875C46.0358 86.5203 45.5217 86.6414 45.0004 86.6414C44.4791 86.6414 43.9649 86.5203 43.4985 86.2875L0.928511 64.9969C0.650419 64.8567 0.416707 64.6421 0.253412 64.3769C0.0901169 64.1117 0.00365268 63.8064 0.00365268 63.495C0.00365268 63.1836 0.0901169 62.8783 0.253412 62.6131C0.416707 62.3479 0.650419 62.1333 0.928511 61.9931L10.581 57.1669L40.4891 72.1238C43.3298 73.5413 46.6766 73.5413 49.5116 72.1238L79.4198 57.1613L79.4254 57.1669ZM43.4985 0.35439C43.9649 0.121643 44.4791 0.000488281 45.0004 0.000488281C45.5217 0.000488281 46.0358 0.121643 46.5023 0.35439L89.0723 21.6394C89.3501 21.7805 89.5835 21.9957 89.7465 22.2613C89.9096 22.5269 89.9958 22.8324 89.9958 23.1441C89.9958 23.4557 89.9096 23.7613 89.7465 24.0268C89.5835 24.2924 89.3501 24.5077 89.0723 24.6488L46.5023 45.9281C46.0358 46.1609 45.5217 46.282 45.0004 46.282C44.4791 46.282 43.9649 46.1609 43.4985 45.9281L0.928511 24.6488C0.648945 24.5092 0.413802 24.2944 0.249453 24.0286C0.0851033 23.7629 -0.00195313 23.4566 -0.00195312 23.1441C-0.00195313 22.8316 0.0851033 22.5253 0.249453 22.2595C0.413802 21.9937 0.648945 21.779 0.928511 21.6394L43.4985 0.35439Z" fill="#F3F3F3"/>
<path d="M79.4256 36.99L89.0725 41.8162C90.31 42.435 90.31 44.2012 89.0725 44.82L46.5025 66.105C46.0361 66.3377 45.5219 66.4589 45.0006 66.4589C44.4794 66.4589 43.9652 66.3377 43.4988 66.105L0.928764 44.82C0.650673 44.6798 0.41696 44.4652 0.253665 44.2C0.0903704 43.9348 0.00390625 43.6295 0.00390625 43.3181C0.00390625 43.0067 0.0903704 42.7014 0.253665 42.4362C0.41696 42.171 0.650673 41.9564 0.928764 41.8162L10.5813 36.99L40.4894 51.9469C43.33 53.3644 46.6769 53.3644 49.5119 51.9469L79.4256 36.99Z" fill="#D0BCFF"/>
</g>
<defs>
<clipPath id="clip0_3010_138">
<rect width="90" height="90" fill="white"/>
</clipPath>
</defs>
</svg>
