<svg viewBox="0 0 90 90" fill="none" xmlns="http://www.w3.org/2000/svg">
<path d="M44.7098 4.43893C43.9705 4.47617 43.2463 4.65944 42.5794 4.978L13.5088 18.8682C12.7564 19.2276 12.0953 19.7505 11.5746 20.398C11.0539 21.0455 10.687 21.8011 10.5011 22.6085L3.32911 53.8095C3.1635 54.5284 3.14497 55.2729 3.27462 55.999C3.40426 56.7251 3.67945 57.418 4.08388 58.0368C4.18194 58.1881 4.28739 58.3345 4.39988 58.4756L24.5214 83.4935C25.0422 84.1408 25.7034 84.6635 26.4558 85.0227C27.2082 85.3818 28.0326 85.5683 28.8676 85.5681L61.1357 85.5608C61.9704 85.5614 62.7946 85.3755 63.547 85.017C64.2994 84.6585 64.9607 84.1366 65.4819 83.4899L85.5961 58.4681C86.1172 57.8204 86.4844 57.0645 86.6703 56.2567C86.8563 55.4489 86.8564 54.6099 86.6704 53.802L79.4876 22.6011C79.3017 21.7936 78.9347 21.0381 78.414 20.3905C77.8933 19.743 77.2322 19.2202 76.4798 18.8609L47.4054 4.97788C46.5665 4.57718 45.6396 4.39186 44.7098 4.43893Z" fill="#326CE5"/>
<path d="M44.9982 15.057C44.0373 15.0571 43.2581 15.9227 43.2582 16.9903C43.2582 17.0068 43.2616 17.0225 43.2618 17.0386C43.2605 17.1838 43.2535 17.3586 43.2582 17.4848C43.2811 18.1006 43.4153 18.572 43.4962 19.1394C43.6425 20.3536 43.7651 21.3603 43.6895 22.2959C43.6157 22.6486 43.356 22.9713 43.1244 23.1956L43.0834 23.9318C42.0249 24.0189 40.9739 24.1804 39.938 24.415C35.4201 25.441 31.5301 27.7682 28.5686 30.9103C28.3572 30.7644 28.1478 30.6156 27.9403 30.4642C27.6295 30.5062 27.3157 30.6021 26.9067 30.3637C26.128 29.8397 25.4188 29.1162 24.5606 28.2446C24.1674 27.8277 23.8827 27.4307 23.4155 27.0288C23.3095 26.9375 23.1475 26.8142 23.0288 26.7202C22.6636 26.429 22.2329 26.2771 21.8168 26.2629C21.2819 26.2446 20.767 26.4538 20.4301 26.8764C19.8309 27.6277 20.0227 28.7762 20.8575 29.4417C20.866 29.4485 20.875 29.4537 20.8836 29.4604C20.9983 29.5533 21.1388 29.6725 21.2442 29.7503C21.74 30.1164 22.1928 30.3038 22.6868 30.5943C23.7274 31.237 24.5902 31.7698 25.2744 32.4124C25.5417 32.6972 25.5884 33.1991 25.624 33.4163L26.1816 33.9144C23.1962 38.4074 21.8144 43.957 22.6311 49.6116L21.9024 49.8235C21.7102 50.0716 21.4388 50.4618 21.155 50.5783C20.2597 50.8603 19.2521 50.9638 18.0357 51.0913C17.4646 51.1389 16.9717 51.1105 16.3663 51.2252C16.233 51.2504 16.0474 51.2988 15.9015 51.3329L15.8867 51.3367C15.8787 51.3385 15.8682 51.3425 15.8606 51.3441C14.8351 51.592 14.1763 52.5346 14.3883 53.4634C14.6004 54.3924 15.6022 54.9573 16.6339 54.7349C16.6414 54.7332 16.6523 54.7329 16.66 54.7312C16.6717 54.7286 16.6819 54.7229 16.6934 54.72C16.8374 54.6885 17.0175 54.6534 17.1434 54.6197C17.7386 54.4603 18.1697 54.2262 18.7049 54.021C19.8561 53.6082 20.8097 53.2632 21.7388 53.1287C22.1266 53.0984 22.5355 53.3681 22.7389 53.482L23.4973 53.3518C25.2427 58.7631 28.9004 63.1368 33.5321 65.8813L33.216 66.6398C33.3299 66.9343 33.4556 67.3327 33.3706 67.6237C33.033 68.4994 32.4545 69.4238 31.7958 70.4544C31.4768 70.9305 31.1503 71.3 30.8625 71.8449C30.7937 71.9753 30.706 72.1757 30.6395 72.3133C30.1922 73.2702 30.5203 74.3722 31.3794 74.7858C32.2438 75.2019 33.3167 74.763 33.7811 73.8043C33.7818 73.8029 33.7842 73.8019 33.7848 73.8005C33.7853 73.7994 33.7843 73.7979 33.7848 73.7969C33.8509 73.6609 33.9447 73.4822 34.0005 73.3543C34.247 72.7896 34.3291 72.3056 34.5024 71.7594C34.9629 70.603 35.2157 69.3895 35.8495 68.6335C36.023 68.4264 36.306 68.3467 36.5994 68.2682L36.9934 67.5544C41.0311 69.1042 45.5509 69.5202 50.0657 68.4951C51.0804 68.2643 52.078 67.9637 53.0512 67.5953C53.1619 67.7917 53.3678 68.1695 53.423 68.2645C53.7212 68.3615 54.0464 68.4116 54.3116 68.8036C54.7857 69.6138 55.11 70.5721 55.5051 71.7296C55.6784 72.2758 55.7642 72.76 56.0107 73.3246C56.0669 73.4533 56.1601 73.6345 56.2263 73.7708C56.6897 74.7327 57.7662 75.1731 58.6319 74.7561C59.4908 74.3423 59.8192 73.2404 59.3717 72.2836C59.3052 72.1458 59.2138 71.9456 59.145 71.8152C58.857 71.2703 58.5307 70.9044 58.2117 70.4284C57.553 69.3979 57.0065 68.5417 56.6688 67.6658C56.5275 67.2142 56.6925 66.9333 56.8026 66.6398C56.7367 66.5643 56.5957 66.1377 56.5127 65.9371C61.326 63.095 64.8763 58.5581 66.5436 53.3184C66.7688 53.3538 67.1601 53.4231 67.2872 53.4485C67.5489 53.276 67.7895 53.0507 68.2614 53.0879C69.1903 53.2223 70.1439 53.5674 71.2952 53.9802C71.8303 54.1852 72.2614 54.4232 72.8567 54.5825C72.9825 54.6162 73.1627 54.6476 73.3066 54.6792C73.3181 54.6819 73.3283 54.6877 73.34 54.6903C73.3479 54.6921 73.3586 54.6923 73.3661 54.6941C74.3978 54.9161 75.3998 54.3514 75.6117 53.4225C75.8235 52.4937 75.1651 51.5508 74.1394 51.3033C73.9902 51.2693 73.7787 51.2117 73.6338 51.1843C73.0282 51.0697 72.5355 51.0978 71.9644 51.0505C70.7479 50.923 69.7403 50.8193 68.845 50.5374C68.48 50.3958 68.2203 49.9614 68.094 49.7826L67.3913 49.5782C67.7556 46.9423 67.6574 44.1991 67.027 41.4544C66.3906 38.6842 65.2662 36.1505 63.7663 33.9182C63.9465 33.7543 64.287 33.4529 64.3835 33.3642C64.4117 33.052 64.3874 32.7247 64.7107 32.3789C65.3949 31.7365 66.2577 31.2036 67.2984 30.5609C67.7924 30.2702 68.249 30.083 68.7446 29.7169C68.8567 29.6341 69.0099 29.503 69.1276 29.4083C69.9622 28.7425 70.1544 27.5941 69.5552 26.8429C68.9559 26.0917 67.7947 26.0208 66.96 26.6867C66.8413 26.7808 66.6801 26.9036 66.5733 26.9954C66.1063 27.3972 65.8177 27.7941 65.4245 28.2111C64.5664 29.0828 63.8572 29.8099 63.0785 30.3341C62.7411 30.5304 62.2469 30.4626 62.0226 30.4493L61.3609 30.9215C57.587 26.9644 52.4491 24.4344 46.9167 23.9429C46.9012 23.7111 46.881 23.292 46.8758 23.1658C46.6492 22.9492 46.3756 22.7642 46.3069 22.2959C46.2311 21.3603 46.3576 20.3536 46.504 19.1394C46.5847 18.572 46.7189 18.1007 46.7419 17.4848C46.7471 17.3449 46.7387 17.1417 46.7382 16.9903C46.7381 15.9227 45.9592 15.057 44.9982 15.057ZM42.8194 28.5532L42.3026 37.6807L42.2655 37.6993C42.2308 38.5159 41.5588 39.1678 40.7337 39.1678C40.3957 39.1678 40.0838 39.0593 39.8302 38.8742L39.8153 38.8816L32.3312 33.5761C34.6313 31.3144 37.5735 29.6428 40.9642 28.873C41.5767 28.7347 42.196 28.628 42.8194 28.5532ZM47.1806 28.5532C51.1393 29.04 54.8003 30.8326 57.6057 33.5799L50.1698 38.8518L50.1439 38.8408C49.4838 39.3227 48.5539 39.2032 48.0394 38.5582C47.8361 38.3052 47.7189 37.9938 47.7049 37.6695L47.6974 37.6659L47.1806 28.5532ZM29.617 36.9855L36.4506 43.0978L36.4431 43.1349C37.06 43.6711 37.151 44.6016 36.6365 45.2467C36.4337 45.5015 36.155 45.6851 35.8409 45.7709L35.8334 45.8006L27.0739 48.3288C26.6281 44.2522 27.589 40.2894 29.617 36.9855ZM60.331 36.9891C61.3463 38.6348 62.1152 40.473 62.5728 42.4657C63.0251 44.4345 63.1386 46.3998 62.9521 48.2991L54.148 45.7635L54.1406 45.7263C53.3522 45.5109 52.8676 44.7089 53.0512 43.9046C53.1226 43.5881 53.2933 43.3028 53.5383 43.0903L53.5346 43.0717L60.331 36.9892V36.9891ZM43.5965 43.5699H46.3962L48.1362 45.745L47.5115 48.459L44.9982 49.6673L42.4774 48.4553L41.8528 45.7412L43.5965 43.5699ZM52.5716 51.0133C52.6906 51.0073 52.809 51.018 52.9249 51.0393L52.9397 51.0206L62.0003 52.5524C60.6743 56.278 58.1369 59.5053 54.7466 61.6651L51.2295 53.1697L51.2406 53.1548C50.9175 52.4041 51.2408 51.5237 51.9841 51.1657C52.1745 51.0741 52.3733 51.0233 52.5716 51.0133ZM37.3541 51.0504C38.0455 51.0601 38.6657 51.5401 38.8264 52.2439C38.9016 52.5735 38.865 52.8998 38.7408 53.1882L38.7669 53.2217L35.287 61.6317C32.0332 59.5438 29.4418 56.4178 28.0555 52.5822L37.038 51.0579L37.0529 51.0764C37.1534 51.058 37.2553 51.0491 37.3541 51.0504ZM44.9423 54.735C45.1904 54.7264 45.4368 54.7786 45.66 54.8873C45.9645 55.034 46.1997 55.2649 46.3477 55.5417H46.3813L50.8093 63.5427C50.228 63.737 49.6373 63.902 49.0395 64.0372C45.6531 64.8062 42.2773 64.5731 39.2206 63.5316L43.6374 55.5455H43.6449C43.7715 55.3088 43.9579 55.1093 44.1856 54.9671C44.4132 54.8249 44.6742 54.7448 44.9424 54.7349L44.9423 54.735Z" fill="white" stroke="white" stroke-width="0.276684"/>
</svg>
