<svg width="90" height="90" viewBox="0 0 90 90" fill="none" xmlns="http://www.w3.org/2000/svg">
<g clip-path="url(#clip0_661_2736)">
<path d="M3.39014 38.9441C3.19003 40.3466 3.05983 41.7582 3 43.1736H66.8038C66.581 42.7384 66.2817 42.3459 65.9798 41.9619C55.0721 27.8696 49.2046 29.0915 40.8111 28.7335C38.0127 28.6184 36.1149 28.5721 24.976 28.5721C19.0142 28.5721 12.5329 28.5873 6.22137 28.6041C5.40434 30.8095 4.61634 32.947 4.23268 34.6859H36.928V38.9441H3.39014ZM67.3068 47.436H3.03273C3.1 48.5723 3.20598 49.6933 3.35905 50.7993H62.6996C65.345 50.7993 66.8258 49.2983 67.3068 47.436ZM6.6928 62.4158C6.6928 62.4158 16.5303 86.571 44.9557 87.0001C61.9454 87.0001 76.5436 76.9097 83.1746 62.4158H6.6928Z" fill="#00D2A0"/>
<path d="M44.9553 3C29.2462 3 15.5763 11.6264 8.3575 24.3783C13.9989 24.3665 24.9856 24.3598 24.9856 24.3598H24.9881V24.3556C37.9744 24.3556 38.4571 24.4136 40.9939 24.5195L42.5647 24.5774C48.0362 24.7599 54.7613 25.3472 60.0529 29.3508C62.9253 31.5223 67.0724 36.3149 69.5446 39.7294C71.8301 42.8875 72.4876 46.518 70.9336 49.9963C69.5033 53.193 66.4259 55.0999 62.6991 55.0999H4.36914C4.36914 55.0999 4.71638 56.5718 5.23703 58.1966H84.8592C86.2732 53.9465 86.996 49.497 87 45.0179C87.0009 21.8143 68.1765 3 44.9553 3Z" fill="#00D2A0"/>
</g>
<defs>
<clipPath id="clip0_661_2736">
<rect width="84" height="84" fill="white" transform="translate(3 3)"/>
</clipPath>
</defs>
</svg>
