<svg width="104" height="101" viewBox="0 0 104 101" fill="none" xmlns="http://www.w3.org/2000/svg">
<path d="M83.461 18.0248C84.9255 16.5604 84.9341 14.174 83.3641 12.8234C76.8492 7.21908 68.9817 3.37404 60.5118 1.68927C50.8128 -0.239987 40.7595 0.75018 31.6232 4.53456C22.4868 8.31894 14.6779 14.7276 9.18384 22.95C3.68977 31.1725 0.757324 40.8395 0.757324 50.7285C0.757324 60.6176 3.68977 70.2846 9.18384 78.507C14.6779 86.7295 22.4868 93.1381 31.6232 96.9225C40.7595 100.707 50.8128 101.697 60.5118 99.7678C68.9817 98.083 76.8492 94.238 83.3641 88.6337C84.9341 87.2831 84.9255 84.8967 83.461 83.4322L53.409 53.3802C51.9445 51.9157 51.9445 49.5414 53.409 48.0769L83.461 18.0248Z" fill="#D2D4DC"/>
<path d="M87.7035 79.1893C89.1679 80.6538 91.5561 80.6634 92.8906 79.0796C95.7973 75.6299 98.1611 71.7477 99.8931 67.5664C102.104 62.228 103.242 56.5064 103.242 50.7283C103.242 44.9501 102.104 39.2285 99.8931 33.8902C98.1611 29.7088 95.7973 25.8267 92.8906 22.377C91.5562 20.7932 89.1679 20.8028 87.7035 22.2672L61.8941 48.0766C60.4296 49.5411 60.4296 51.9155 61.8941 53.3799L87.7035 79.1893Z" fill="#5A6FE9"/>
</svg>
