<svg width="100" height="101" viewBox="0 0 100 101" fill="none" xmlns="http://www.w3.org/2000/svg">
<path d="M89.6478 26.4328C91.2959 25.4228 91.823 23.2596 90.7003 21.6861C85.1271 13.8756 77.4069 7.81197 68.4428 4.25466C58.3912 0.265836 47.3174 -0.356685 36.8821 2.48046C26.4469 5.31761 17.2127 11.4615 10.5646 19.9906C3.91644 28.5198 0.212715 38.9744 0.00888274 49.7866C-0.19495 60.5987 3.1121 71.1855 9.43404 79.9592C15.756 88.7328 24.752 95.2204 35.0729 98.4488C45.3938 101.677 56.4833 101.473 66.678 97.8655C75.7699 94.6485 83.7131 88.8802 89.5767 81.2853C90.758 79.7553 90.3128 77.5737 88.7039 76.5023L54.5587 53.7647C52.4313 52.348 52.4906 49.2028 54.6699 47.8673L89.6478 26.4328Z" fill="#D2D4DC"/>
<path d="M90.9706 72.0041C92.6936 73.1516 95.0412 72.5638 95.8674 70.6657C98.5259 64.5577 100 57.8155 100 50.7289C100 44.3099 98.7906 38.1735 96.5869 32.535C95.8333 30.6067 93.5094 29.9307 91.7441 31.0124L61.9527 49.2686C60.7074 50.0318 60.6735 51.829 61.8892 52.6386L90.9706 72.0041Z" fill="#5A6FE9"/>
</svg>
