<?xml version="1.0" encoding="UTF-8"?>
<svg width="1075px" height="1075px" viewBox="0 0 1075 1075" version="1.1" xmlns="http://www.w3.org/2000/svg" xmlns:xlink="http://www.w3.org/1999/xlink">
    <title>ElectricSQL Icon (Alt)</title>
    <defs>
        <linearGradient x1="27.7760397%" y1="-7.47626053%" x2="71.8545366%" y2="88.8190451%" id="linearGradient-1">
            <stop stop-color="#08FFBD" offset="0%"></stop>
            <stop stop-color="#0EFDED" offset="100%"></stop>
        </linearGradient>
    </defs>
    <g id="Footer-Icon" stroke="none" stroke-width="1" fill="none" fill-rule="evenodd">
        <g id="Electric_Logo" transform="translate(144.000000, 13.000000)">
            <path d="M257.666639,520.95198 L171.398108,625.655001 C151.052535,621.79635 131.619005,617.302835 113.097517,612.174456 C37.6579487,591.248693 -0.0412012752,565.338838 3.37900088e-05,534.444892 L3.37900088e-05,455.367274 C3.37900088e-05,446.297794 5.12566635,446.297794 15.3768638,455.367274 C37.3649394,476.301282 82.7607412,493.339537 151.564269,506.482037 C186.665699,513.084212 222.078141,517.913661 257.666639,520.95198 L257.666639,520.95198 Z M384.370448,206.818182 C278.961396,206.818182 188.537086,215.759864 113.097517,233.643229 C37.6579487,251.526594 -0.0412012752,272.876974 3.37900088e-05,297.694369 L3.37900088e-05,341.697835 C3.37900088e-05,368.353861 37.6992176,391.085275 113.097517,409.892078 C174.406611,425.211254 245.603736,434.280734 326.688892,437.100517 L512.39899,211.765171 C472.500207,208.500158 429.824026,206.863529 384.370448,206.855284 L384.370448,206.818182 Z M152.666149,709.778548 C84.6137153,694.030633 38.8506202,674.160228 15.3768638,650.167331 C11.0436281,645.554264 7.39132954,643.760981 4.43234865,644.626704 C1.47336775,645.492427 6.76354799e-05,647.866981 6.76354799e-05,651.540121 L6.76354799e-05,720.797966 C6.76354799e-05,754.956925 38.4296773,786.135323 115.288897,814.33316 C173.618375,835.770112 239.376257,849.032165 312.562544,854.119318 L364.784223,733.214908 C286.282501,732.101836 215.576477,724.289716 152.666149,709.778548 Z" id="Shape" fill="url(#linearGradient-1)" fill-rule="nonzero"></path>
            <polygon id="Path-2" fill="#FFFFFF" points="788 0 312.414141 607.530589 504.048758 607.369687 320.924638 1050 725.395895 492.274913 527.724763 492.274913"></polygon>
        </g>
    </g>
</svg>
