<svg width="256" height="71" viewBox="0 0 1024 284" fill="none" xmlns="http://www.w3.org/2000/svg">
<path d="M127.992 62.1244C128.711 61.4029 129.683 61 130.692 61H191L105.008 147.089C104.289 147.811 103.317 148.213 102.308 148.213H42L127.992 62.1244Z" fill="#00D2A0"/>
<path d="M117.416 150.125C117.416 149.066 118.275 148.204 119.331 148.204H191L117.416 222V150.125Z" fill="#00D2A0"/>
<path d="M349.47 108.35C341.191 103.904 331.574 101.653 320.883 101.653C310.193 101.653 300.237 104.177 291.797 109.16C283.358 114.152 276.698 121.273 272.027 130.315C267.364 139.329 265 149.935 265 161.822C265 173.708 267.44 184.135 272.262 193.234C277.094 202.361 283.979 209.52 292.73 214.502C301.452 219.476 311.766 222 323.379 222C336.707 222 348.142 218.148 357.363 210.537C366.575 202.936 372.424 193.008 374.723 181.027L374.996 179.624H353.897L353.662 180.5C351.787 187.573 348.02 193.178 342.472 197.134C336.905 201.118 330.02 203.134 322.023 203.134C311.7 203.134 303.232 199.828 296.865 193.319C290.479 186.792 287.088 177.928 286.805 167.012V166.606H376.23L376.324 165.523C376.635 161.84 376.776 159.222 376.776 157.479C376.465 146.186 373.913 136.192 369.165 127.772C364.399 119.323 357.778 112.786 349.48 108.321L349.47 108.35ZM288.067 148.899C289.16 140.638 292.767 133.809 298.824 128.591C305.201 123.081 312.708 120.284 321.109 120.284C330.566 120.284 338.488 122.93 344.648 128.139C350.497 133.093 354.001 140.073 355.065 148.899H288.067Z" fill="#F5F5F5"/>
<path d="M409.865 61H388.973V220.653H409.865V61Z" fill="#F5F5F5"/>
<path d="M506.542 108.35C498.263 103.904 488.646 101.653 477.955 101.653C467.265 101.653 457.309 104.177 448.869 109.16C440.43 114.152 433.771 121.273 429.099 130.315C424.436 139.329 422.072 149.935 422.072 161.822C422.072 173.708 424.512 184.135 429.334 193.234C434.166 202.361 441.052 209.52 449.802 214.502C458.524 219.476 468.838 222 480.452 222C493.779 222 505.214 218.148 514.435 210.537C523.647 202.936 529.497 193.008 531.795 181.027L532.068 179.624H510.969L510.734 180.5C508.859 187.573 505.092 193.178 499.544 197.134C493.977 201.118 487.092 203.134 479.095 203.134C468.772 203.134 460.304 199.828 453.937 193.319C447.551 186.792 444.16 177.928 443.877 167.012V166.606H533.302L533.396 165.523C533.707 161.84 533.848 159.222 533.848 157.479C533.537 146.186 530.985 136.192 526.238 127.772C521.472 119.323 514.85 112.786 506.552 108.321L506.542 108.35ZM445.139 148.899C446.232 140.638 449.84 133.809 455.896 128.591C462.273 123.081 469.78 120.284 478.182 120.284C487.638 120.284 495.56 122.93 501.72 128.139C507.569 133.093 511.073 140.073 512.137 148.899H445.139Z" fill="#F5F5F5"/>
<path d="M632.748 179.445C631.157 186.82 627.577 192.669 622.105 196.842C616.614 201.033 609.7 203.152 601.571 203.152C590.975 203.152 582.262 199.3 575.669 191.689C569.038 184.041 565.675 173.916 565.675 161.605C565.675 149.294 569.038 139.442 575.669 131.86C582.262 124.324 590.975 120.51 601.571 120.51C609.408 120.51 616.161 122.638 621.653 126.82C627.135 131.012 630.789 136.72 632.522 143.793L632.739 144.688H653.828L653.583 143.304C651.285 130.418 645.549 120.142 636.554 112.758C627.568 105.383 616.02 101.643 602.24 101.643C590.937 101.643 580.774 104.167 572.043 109.141C563.302 114.133 556.416 121.244 551.584 130.296C546.771 139.319 544.322 149.85 544.322 161.596C544.322 173.341 546.724 183.909 551.462 192.999C556.209 202.126 562.981 209.313 571.572 214.38C580.152 219.438 590.24 222 601.552 222C615.483 222 627.144 218.223 636.205 210.772C645.276 203.322 651.116 192.933 653.565 179.906L653.828 178.512H632.918L632.72 179.445H632.748Z" fill="#F5F5F5"/>
<path d="M697.73 67.8571H676.839V103.009H656.042V122.318H676.839V189.41C676.839 200.073 679.269 208.032 684.063 213.052C688.867 218.091 696.949 220.653 708.082 220.653H726.892V201.344H709.212C704.898 201.344 701.884 200.44 700.245 198.669C698.578 196.87 697.73 193.677 697.73 189.184V122.318H726.892V103.009H697.73V67.8571Z" fill="#F5F5F5"/>
<path d="M773.441 107.926C769.165 110.488 765.331 114.331 762.345 118.974L762.383 103.009H741.444V220.653H762.336V160.701C762.336 150.133 764.672 141.147 769.268 133.988C773.761 126.999 781.381 123.449 791.902 123.449H805.174V103.009H795.971C786.449 103.009 778.876 104.667 773.441 107.926Z" fill="#F5F5F5"/>
<path d="M838.97 103.009H818.078V220.653H838.97V103.009Z" fill="#F5F5F5"/>
<path d="M839.356 61H817.692V82.6639H839.356V61Z" fill="#F5F5F5"/>
<path d="M941.015 178.512L940.818 179.445C939.226 186.81 935.647 192.669 930.174 196.842C924.683 201.033 917.779 203.152 909.641 203.152C899.044 203.152 890.331 199.3 883.738 191.689C877.107 184.041 873.744 173.916 873.744 161.605C873.744 149.294 877.107 139.442 883.738 131.86C890.331 124.324 899.044 120.51 909.641 120.51C917.477 120.51 924.231 122.638 929.722 126.82C935.204 131.002 938.858 136.72 940.592 143.793L940.808 144.688H961.897L961.653 143.304C959.354 130.418 953.627 120.142 944.623 112.758C935.628 105.383 924.089 101.643 910.309 101.643C899.006 101.643 888.843 104.167 880.112 109.141C871.361 114.133 864.476 121.244 859.654 130.296C854.84 139.319 852.391 149.85 852.391 161.596C852.391 173.341 854.793 183.909 859.531 192.999C864.278 202.126 871.051 209.313 879.641 214.38C888.222 219.438 898.309 222 909.622 222C923.552 222 935.213 218.223 944.274 210.772C953.345 203.322 959.185 192.933 961.634 179.906L961.897 178.512H940.987H941.015Z" fill="#F5F5F5"/>
</svg>
