<svg width="1024" height="284" viewBox="0 0 1024 284" fill="none" xmlns="http://www.w3.org/2000/svg">
<path d="M127.992 62.1244C128.711 61.4029 129.683 61 130.692 61H191L105.008 147.089C104.289 147.811 103.317 148.213 102.308 148.213H42L127.992 62.1244Z" fill="#131517"/>
<path d="M117.416 150.125C117.416 149.066 118.275 148.204 119.331 148.204H191L117.416 222V150.125Z" fill="#131517"/>
<path d="M350.051 108.42C341.717 103.936 332.038 101.665 321.277 101.665C310.517 101.665 300.49 104.218 291.996 109.24C283.483 114.281 276.786 121.46 272.073 130.59C267.38 139.682 265 150.357 265 162.332C265 174.308 267.455 184.804 272.299 193.971C277.162 203.186 284.104 210.403 292.918 215.434C301.703 220.456 312.078 223 323.761 223C337.183 223 348.706 219.109 357.99 211.43C367.283 203.751 373.171 193.726 375.485 181.638L375.862 179.678H353.86L353.541 180.903C351.697 187.875 348 193.387 342.545 197.278C337.061 201.198 330.288 203.186 322.397 203.186C312.219 203.186 303.876 199.926 297.611 193.509C291.328 187.074 287.998 178.35 287.697 167.59H376.971L377.094 166.082C377.404 162.389 377.555 159.741 377.555 157.989C377.244 146.617 374.667 136.545 369.889 128.056C365.091 119.529 358.413 112.924 350.042 108.42H350.051ZM289.052 148.925C290.209 141.02 293.736 134.472 299.558 129.431C305.842 123.995 313.226 121.244 321.512 121.244C330.843 121.244 338.651 123.853 344.718 128.998C350.343 133.775 353.766 140.474 354.886 148.925H289.052Z" fill="#131517"/>
<path d="M410.608 61H388.805V221.643H410.608V61Z" fill="#131517"/>
<path d="M506.899 108.42C498.566 103.936 488.887 101.665 478.126 101.665C467.365 101.665 457.338 104.218 448.844 109.24C440.332 114.281 433.634 121.46 428.922 130.59C424.228 139.673 421.849 150.357 421.849 162.323C421.849 174.289 424.304 184.794 429.148 193.962C434.011 203.176 440.953 210.393 449.766 215.425C458.552 220.447 468.927 222.991 480.609 222.991C494.032 222.991 505.554 219.099 514.838 211.42C524.132 203.742 530.02 193.717 532.334 181.628L532.71 179.669H510.709L510.389 180.894C508.546 187.866 504.849 193.378 499.393 197.269C493.909 201.188 487.137 203.176 479.245 203.176C469.068 203.176 460.724 199.916 454.46 193.5C448.176 187.065 444.847 178.34 444.546 167.58H533.811L533.933 166.073C534.243 162.38 534.394 159.732 534.394 157.98C534.083 146.607 531.506 136.535 526.728 128.046C521.931 119.519 515.252 112.915 506.881 108.411L506.899 108.42ZM445.9 148.925C447.057 141.02 450.584 134.472 456.407 129.431C462.69 123.995 470.074 121.244 478.361 121.244C487.692 121.244 495.499 123.853 501.566 128.998C507.191 133.775 510.615 140.474 511.734 148.925H445.9Z" fill="#131517"/>
<path d="M632.256 179.848C630.685 187.112 627.177 192.869 621.806 196.977C616.406 201.104 609.606 203.195 601.582 203.195C591.141 203.195 582.563 199.389 576.073 191.889C569.526 184.323 566.206 174.298 566.206 162.106C566.206 149.914 569.526 140.153 576.073 132.663C582.563 125.238 591.141 121.47 601.582 121.47C609.295 121.47 615.955 123.561 621.354 127.688C626.744 131.815 630.337 137.43 632.04 144.412L632.35 145.665H654.342L653.994 143.724C651.68 130.722 645.895 120.348 636.827 112.886C627.76 105.434 616.134 101.655 602.26 101.655C590.887 101.655 580.663 104.199 571.868 109.221C563.055 114.253 556.122 121.441 551.25 130.571C546.406 139.663 543.951 150.272 543.951 162.097C543.951 173.921 546.368 184.568 551.137 193.726C555.925 202.931 562.735 210.186 571.398 215.302C580.042 220.409 590.201 222.991 601.582 222.991C615.607 222.991 627.346 219.175 636.489 211.647C645.632 204.119 651.52 193.632 653.994 180.488L654.361 178.538H632.538L632.256 179.838V179.848Z" fill="#131517"/>
<path d="M698.071 67.8591H676.268V103.022H655.499V123.279H676.268V189.92C676.268 200.717 678.732 208.782 683.604 213.898C688.496 219.043 696.679 221.643 707.938 221.643H727.193V201.386H709.067C704.9 201.386 702.003 200.538 700.451 198.861C698.871 197.156 698.071 194.065 698.071 189.694V123.279H727.193V103.022H698.071V67.8591Z" fill="#131517"/>
<path d="M772.973 108.006C769.06 110.352 765.504 113.763 762.617 117.908L762.645 103.022H740.794V221.643H762.598V161.202C762.598 150.725 764.902 141.812 769.445 134.736C773.838 127.886 781.316 124.409 791.654 124.409H805.377V103.022H795.717C786.123 103.022 778.475 104.699 772.973 108.006Z" fill="#131517"/>
<path d="M839.127 103.022H817.323V221.643H839.127V103.022Z" fill="#131517"/>
<path d="M839.512 61H816.938V83.6125H839.512V61Z" fill="#131517"/>
<path d="M940.178 178.548L939.895 179.848C938.334 187.112 934.816 192.869 929.445 196.977C924.046 201.104 917.245 203.195 909.222 203.195C898.781 203.195 890.202 199.389 883.712 191.889C877.165 184.323 873.845 174.298 873.845 162.106C873.845 149.914 877.165 140.163 883.712 132.663C890.202 125.238 898.79 121.47 909.222 121.47C916.935 121.47 923.594 123.561 928.994 127.688C934.383 131.806 937.977 137.43 939.679 144.412L939.989 145.665H961.981L961.633 143.724C959.319 130.722 953.544 120.348 944.467 112.886C935.399 105.434 923.773 101.655 909.899 101.655C898.527 101.655 888.302 104.199 879.508 109.221C870.694 114.253 863.762 121.441 858.889 130.571C854.045 139.663 851.581 150.272 851.581 162.097C851.581 173.921 853.998 184.568 858.767 193.726C863.555 202.931 870.374 210.196 879.028 215.302C887.672 220.409 897.831 222.991 909.212 222.991C923.237 222.991 934.976 219.175 944.119 211.647C953.262 204.119 959.15 193.632 961.624 180.488L961.991 178.538H940.168L940.178 178.548Z" fill="#131517"/>
</svg>
