<svg viewBox="0 0 1320 440" xmlns="http://www.w3.org/2000/svg" font-family="-apple-system, 'Segoe UI', Helvetica, Arial, sans-serif">
  <defs>
    <marker id="arr" viewBox="0 0 10 10" refX="9" refY="5" markerWidth="7" markerHeight="7" orient="auto-start-reverse"><path d="M 0 1 L 9 5 L 0 9 z" fill="#5b6472"/></marker>
    <marker id="arrCyan" viewBox="0 0 10 10" refX="9" refY="5" markerWidth="6.5" markerHeight="6.5" orient="auto-start-reverse"><path d="M 0 1 L 9 5 L 0 9 z" fill="#75fbfd"/></marker>
    <marker id="arrPurple" viewBox="0 0 10 10" refX="9" refY="5" markerWidth="7" markerHeight="7" orient="auto-start-reverse"><path d="M 0 1 L 9 5 L 0 9 z" fill="#a855f7"/></marker>
  </defs>
  <rect x="0" y="0" width="1320" height="440" rx="14" fill="#131519"/>
  <text x="36" y="42" fill="#8b919d" font-size="12" letter-spacing="3" font-weight="600">ELECTRIC-IVM · PATH OF A WRITE</text>
  
  <g>
    <path d="M 44 188 L 44 254 A 42 14 0 0 0 128 254 L 128 188" fill="#1c1f26" stroke="#2c3038" stroke-width="1.5"/>
    <ellipse cx="86" cy="188" rx="42" ry="14" fill="#232730" stroke="#2c3038" stroke-width="1.5"/>
    <text x="86" y="232" text-anchor="middle" fill="#e8eaee" font-size="15" font-weight="600">Postgres</text>
    <text x="86" y="294" text-anchor="middle" fill="#8b919d" font-size="11.5">system of record</text>
  </g>
  <line x1="136" y1="220" x2="190" y2="220" stroke="#5b6472" stroke-width="1.5" marker-end="url(#arr)"/>
  <text x="163" y="206" text-anchor="middle" fill="#8b919d" font-size="10.5" font-family="'SFMono-Regular', Menlo, Consolas, monospace">pgoutput</text>
  <g>
    <rect x="198" y="174" width="138" height="92" rx="10" fill="#1c1f26" stroke="#2c3038" stroke-width="1.5"/>
    <text x="267" y="208" text-anchor="middle" fill="#e8eaee" font-size="15" font-weight="600">WAL tailer</text>
    <text x="267" y="230" text-anchor="middle" fill="#8b919d" font-size="11">buffer tx · stamp</text>
    <text x="267" y="246" text-anchor="middle" fill="#8b919d" font-size="11" font-family="'SFMono-Regular', Menlo, Consolas, monospace">(lsn, seq)</text>
  </g>
  <line x1="344" y1="220" x2="476" y2="220" stroke="#5b6472" stroke-width="1.5" marker-end="url(#arr)"/>
  <text x="410" y="206" text-anchor="middle" fill="#8b919d" font-size="10.5">append</text>
  <g>
    <text x="538" y="186" text-anchor="middle" fill="#e8eaee" font-size="14" font-weight="600">changes log</text>
    <g stroke="#2c3038" stroke-width="1"><rect x="484" y="202" width="24" height="34" rx="4" fill="#262a33"/><rect x="512" y="202" width="24" height="34" rx="4" fill="#262a33"/><rect x="540" y="202" width="24" height="34" rx="4" fill="#262a33"/><rect x="568" y="202" width="24" height="34" rx="4" fill="#75fbfd" stroke="#75fbfd"/>
    </g>
    <text x="580" y="225" text-anchor="middle" fill="#131519" font-size="13" font-weight="700">+</text>
    <text x="538" y="262" text-anchor="middle" fill="#8b919d" font-size="11.5">one ordered stream, all tables</text>
  </g>
  <line x1="600" y1="220" x2="648" y2="220" stroke="#5b6472" stroke-width="1.5" marker-end="url(#arr)"/>
  <text x="624" y="206" text-anchor="middle" fill="#8b919d" font-size="10.5">commit order</text>
  <g>
    <rect x="656" y="106" width="424" height="218" rx="12" fill="#181b21" stroke="#2c3038" stroke-width="1.5"/>
    <text x="868" y="132" text-anchor="middle" fill="#75fbfd" font-size="14" font-weight="600">DBSP circuit</text>
    <text x="868" y="150" text-anchor="middle" fill="#8b919d" font-size="10" font-family="'SFMono-Regular', Menlo, Consolas, monospace">issue WHERE project_id IN (SELECT id FROM project WHERE …)</text>
    <rect x="676" y="162" width="86" height="28" rx="14" fill="#232730" stroke="#75fbfd" stroke-width="1.2"/><text x="719.0" y="180" text-anchor="middle" fill="#e8eaee" font-size="12" font-family="'SFMono-Regular', Menlo, Consolas, monospace">issue Δ</text>
    <rect x="794" y="162" width="96" height="28" rx="14" fill="#232730" stroke="#75fbfd" stroke-width="1.2"/><text x="842.0" y="180" text-anchor="middle" fill="#e8eaee" font-size="12" font-family="'SFMono-Regular', Menlo, Consolas, monospace">map_index</text>
    <rect x="922" y="162" width="64" height="28" rx="14" fill="#232730" stroke="#75fbfd" stroke-width="1.2"/><text x="954.0" y="180" text-anchor="middle" fill="#e8eaee" font-size="12" font-family="'SFMono-Regular', Menlo, Consolas, monospace">join</text>
    <rect x="676" y="262" width="98" height="28" rx="14" fill="#232730" stroke="#75fbfd" stroke-width="1.2"/><text x="725.0" y="280" text-anchor="middle" fill="#e8eaee" font-size="12" font-family="'SFMono-Regular', Menlo, Consolas, monospace">project Δ</text>
    <rect x="806" y="262" width="72" height="28" rx="14" fill="#232730" stroke="#75fbfd" stroke-width="1.2"/><text x="842.0" y="280" text-anchor="middle" fill="#e8eaee" font-size="12" font-family="'SFMono-Regular', Menlo, Consolas, monospace">filter</text>
    <rect x="910" y="262" width="88" height="28" rx="14" fill="#232730" stroke="#75fbfd" stroke-width="1.2"/><text x="954.0" y="280" text-anchor="middle" fill="#e8eaee" font-size="12" font-family="'SFMono-Regular', Menlo, Consolas, monospace">distinct</text>
    <line x1="762" y1="176" x2="790" y2="176" stroke="#5b6472" stroke-width="1.5" marker-end="url(#arr)"/>
    <line x1="890" y1="176" x2="918" y2="176" stroke="#5b6472" stroke-width="1.5" marker-end="url(#arr)"/>
    <line x1="774" y1="276" x2="802" y2="276" stroke="#5b6472" stroke-width="1.5" marker-end="url(#arr)"/>
    <line x1="878" y1="276" x2="906" y2="276" stroke="#5b6472" stroke-width="1.5" marker-end="url(#arr)"/>
    <line x1="954" y1="262" x2="954" y2="192" stroke="#a855f7" stroke-width="1.5" stroke-dasharray="6 5" marker-end="url(#arrPurple)"/>
    <text x="964" y="222" fill="#a855f7" font-size="10">membership</text>
    <text x="964" y="234" fill="#a855f7" font-size="10">changes</text>
    
  </g>
  <line x1="986" y1="176" x2="1086" y2="176" stroke="#5b6472" stroke-width="1.5" marker-end="url(#arr)"/>
  <text x="1040" y="168" fill="#8b919d" font-size="10.5" font-family="'SFMono-Regular', Menlo, Consolas, monospace">±1</text>
  <g><rect x="1092" y="106" width="180" height="218" rx="10" fill="#1c1f26" stroke="#2c3038" stroke-width="1.5"/><text x="1182" y="132" text-anchor="middle" fill="#e8eaee" font-size="13" font-weight="600">Durable Streams</text><rect x="1102" y="163" width="20" height="26" rx="3" fill="#262a33" stroke="#2c3038"/><rect x="1126" y="163" width="20" height="26" rx="3" fill="#262a33" stroke="#2c3038"/><rect x="1150" y="163" width="20" height="26" rx="3" fill="#75fbfd" stroke="#75fbfd"/><text x="1180" y="181" fill="#8b919d" font-size="11" font-family="'SFMono-Regular', Menlo, Consolas, monospace">shape/&lt;id&gt;</text><rect x="1102" y="199" width="20" height="26" rx="3" fill="#1e222a" stroke="#262a33"/><rect x="1126" y="199" width="20" height="26" rx="3" fill="#1e222a" stroke="#262a33"/><rect x="1150" y="199" width="20" height="26" rx="3" fill="#1e222a" stroke="#262a33"/><text x="1180" y="217" fill="#5b6472" font-size="11" font-family="'SFMono-Regular', Menlo, Consolas, monospace">shape/…</text><rect x="1102" y="235" width="20" height="26" rx="3" fill="#1e222a" stroke="#262a33"/><rect x="1126" y="235" width="20" height="26" rx="3" fill="#1e222a" stroke="#262a33"/><rect x="1150" y="235" width="20" height="26" rx="3" fill="#1e222a" stroke="#262a33"/><text x="1180" y="253" fill="#5b6472" font-size="11" font-family="'SFMono-Regular', Menlo, Consolas, monospace">shape/…</text><rect x="1102" y="271" width="20" height="26" rx="3" fill="#1e222a" stroke="#262a33"/><rect x="1126" y="271" width="20" height="26" rx="3" fill="#1e222a" stroke="#262a33"/><rect x="1150" y="271" width="20" height="26" rx="3" fill="#1e222a" stroke="#262a33"/><text x="1180" y="289" fill="#5b6472" font-size="11" font-family="'SFMono-Regular', Menlo, Consolas, monospace">shape/…</text></g>
  
  
  
  
  
  
  
  
  
  <text x="36" y="416" fill="#5b6472" font-size="11.5">a subquery shape has two triggers: a write to issue (solid) or a membership change from project (dashed) · both emit ±1 to the shape stream</text>
</svg>