<svg xmlns="http://www.w3.org/2000/svg" xmlns:xlink="http://www.w3.org/1999/xlink" version="1.1" class="marks" width="816" height="292" viewBox="0 0 816 292"><rect width="816" height="292" fill="white"/><g fill="none" stroke-miterlimit="10" transform="translate(47,55)"><g class="mark-group role-frame root" role="graphics-object" aria-roledescription="group mark container"><g transform="translate(0,0)"><path class="background" aria-hidden="true" d="M0.5,0.5h600v200h-600Z" stroke="#ddd"/><g><g class="mark-group role-axis" aria-hidden="true"><g transform="translate(0.5,200.5)"><path class="background" aria-hidden="true" d="M0,0h0v0h0Z" pointer-events="none"/><g><g class="mark-rule role-axis-grid" pointer-events="none"><line transform="translate(0,-200)" x2="0" y2="200" stroke="#ddd" stroke-width="1" opacity="1"/><line transform="translate(34,-200)" x2="0" y2="200" stroke="#ddd" stroke-width="1" opacity="1"/><line transform="translate(69,-200)" x2="0" y2="200" stroke="#ddd" stroke-width="1" opacity="1"/><line transform="translate(103,-200)" x2="0" y2="200" stroke="#ddd" stroke-width="1" opacity="1"/><line transform="translate(137,-200)" x2="0" y2="200" stroke="#ddd" stroke-width="1" opacity="1"/><line transform="translate(171,-200)" x2="0" y2="200" stroke="#ddd" stroke-width="1" opacity="1"/><line transform="translate(206,-200)" x2="0" y2="200" stroke="#ddd" stroke-width="1" opacity="1"/><line transform="translate(240,-200)" x2="0" y2="200" stroke="#ddd" stroke-width="1" opacity="1"/><line transform="translate(274,-200)" x2="0" y2="200" stroke="#ddd" stroke-width="1" opacity="1"/><line transform="translate(309,-200)" x2="0" y2="200" stroke="#ddd" stroke-width="1" opacity="1"/><line transform="translate(343,-200)" x2="0" y2="200" stroke="#ddd" stroke-width="1" opacity="1"/><line transform="translate(377,-200)" x2="0" y2="200" stroke="#ddd" stroke-width="1" opacity="1"/><line transform="translate(411,-200)" x2="0" y2="200" stroke="#ddd" stroke-width="1" opacity="1"/><line transform="translate(446,-200)" x2="0" y2="200" stroke="#ddd" stroke-width="1" opacity="1"/><line transform="translate(480,-200)" x2="0" y2="200" stroke="#ddd" stroke-width="1" opacity="1"/><line transform="translate(514,-200)" x2="0" y2="200" stroke="#ddd" stroke-width="1" opacity="1"/><line transform="translate(549,-200)" x2="0" y2="200" stroke="#ddd" stroke-width="1" opacity="1"/><line transform="translate(583,-200)" x2="0" y2="200" stroke="#ddd" stroke-width="1" opacity="1"/></g></g><path class="foreground" aria-hidden="true" d="" pointer-events="none" display="none"/></g></g><g class="mark-group role-axis" aria-hidden="true"><g transform="translate(0.5,0.5)"><path class="background" aria-hidden="true" d="M0,0h0v0h0Z" pointer-events="none"/><g><g class="mark-rule role-axis-grid" pointer-events="none"><line transform="translate(0,200)" x2="600" y2="0" stroke="#ddd" stroke-width="1" opacity="1"/><line transform="translate(0,150)" x2="600" y2="0" stroke="#ddd" stroke-width="1" opacity="1"/><line transform="translate(0,100)" x2="600" y2="0" stroke="#ddd" stroke-width="1" opacity="1"/><line transform="translate(0,50)" x2="600" y2="0" stroke="#ddd" stroke-width="1" opacity="1"/><line transform="translate(0,0)" x2="600" y2="0" stroke="#ddd" stroke-width="1" opacity="1"/></g></g><path class="foreground" aria-hidden="true" d="" pointer-events="none" display="none"/></g></g><g class="mark-group role-axis" role="graphics-symbol" aria-roledescription="axis" aria-label="X-axis titled 'established shapes' for a linear scale with values from 0 to 3,500"><g transform="translate(0.5,200.5)"><path class="background" aria-hidden="true" d="M0,0h0v0h0Z" pointer-events="none"/><g><g class="mark-rule role-axis-tick" pointer-events="none"><line transform="translate(0,0)" x2="0" y2="5" stroke="#888" stroke-width="1" opacity="1"/><line transform="translate(34,0)" x2="0" y2="5" stroke="#888" stroke-width="1" opacity="1"/><line transform="translate(69,0)" x2="0" y2="5" stroke="#888" stroke-width="1" opacity="1"/><line transform="translate(103,0)" x2="0" y2="5" stroke="#888" stroke-width="1" opacity="1"/><line transform="translate(137,0)" x2="0" y2="5" stroke="#888" stroke-width="1" opacity="1"/><line transform="translate(171,0)" x2="0" y2="5" stroke="#888" stroke-width="1" opacity="1"/><line transform="translate(206,0)" x2="0" y2="5" stroke="#888" stroke-width="1" opacity="1"/><line transform="translate(240,0)" x2="0" y2="5" stroke="#888" stroke-width="1" opacity="1"/><line transform="translate(274,0)" x2="0" y2="5" stroke="#888" stroke-width="1" opacity="1"/><line transform="translate(309,0)" x2="0" y2="5" stroke="#888" stroke-width="1" opacity="1"/><line transform="translate(343,0)" x2="0" y2="5" stroke="#888" stroke-width="1" opacity="1"/><line transform="translate(377,0)" x2="0" y2="5" stroke="#888" stroke-width="1" opacity="1"/><line transform="translate(411,0)" x2="0" y2="5" stroke="#888" stroke-width="1" opacity="1"/><line transform="translate(446,0)" x2="0" y2="5" stroke="#888" stroke-width="1" opacity="1"/><line transform="translate(480,0)" x2="0" y2="5" stroke="#888" stroke-width="1" opacity="1"/><line transform="translate(514,0)" x2="0" y2="5" stroke="#888" stroke-width="1" opacity="1"/><line transform="translate(549,0)" x2="0" y2="5" stroke="#888" stroke-width="1" opacity="1"/><line transform="translate(583,0)" x2="0" y2="5" stroke="#888" stroke-width="1" opacity="1"/></g><g class="mark-text role-axis-label" pointer-events="none"><text text-anchor="start" transform="translate(0,15)" font-family="sans-serif" font-size="10px" fill="#000" opacity="1">0</text><text text-anchor="middle" transform="translate(34.285714285714285,15)" font-family="sans-serif" font-size="10px" fill="#000" opacity="0">200</text><text text-anchor="middle" transform="translate(68.57142857142857,15)" font-family="sans-serif" font-size="10px" fill="#000" opacity="1">400</text><text text-anchor="middle" transform="translate(102.85714285714286,15)" font-family="sans-serif" font-size="10px" fill="#000" opacity="0">600</text><text text-anchor="middle" transform="translate(137.14285714285714,15)" font-family="sans-serif" font-size="10px" fill="#000" opacity="1">800</text><text text-anchor="middle" transform="translate(171.42857142857142,15)" font-family="sans-serif" font-size="10px" fill="#000" opacity="0">1,000</text><text text-anchor="middle" transform="translate(205.71428571428572,15)" font-family="sans-serif" font-size="10px" fill="#000" opacity="1">1,200</text><text text-anchor="middle" transform="translate(240,15)" font-family="sans-serif" font-size="10px" fill="#000" opacity="0">1,400</text><text text-anchor="middle" transform="translate(274.2857142857143,15)" font-family="sans-serif" font-size="10px" fill="#000" opacity="1">1,600</text><text text-anchor="middle" transform="translate(308.57142857142856,15)" font-family="sans-serif" font-size="10px" fill="#000" opacity="0">1,800</text><text text-anchor="middle" transform="translate(342.85714285714283,15)" font-family="sans-serif" font-size="10px" fill="#000" opacity="1">2,000</text><text text-anchor="middle" transform="translate(377.1428571428571,15)" font-family="sans-serif" font-size="10px" fill="#000" opacity="0">2,200</text><text text-anchor="middle" transform="translate(411.42857142857144,15)" font-family="sans-serif" font-size="10px" fill="#000" opacity="1">2,400</text><text text-anchor="middle" transform="translate(445.7142857142857,15)" font-family="sans-serif" font-size="10px" fill="#000" opacity="0">2,600</text><text text-anchor="middle" transform="translate(480,15)" font-family="sans-serif" font-size="10px" fill="#000" opacity="1">2,800</text><text text-anchor="middle" transform="translate(514.2857142857142,15)" font-family="sans-serif" font-size="10px" fill="#000" opacity="0">3,000</text><text text-anchor="middle" transform="translate(548.5714285714286,15)" font-family="sans-serif" font-size="10px" fill="#000" opacity="1">3,200</text><text text-anchor="middle" transform="translate(582.8571428571429,15)" font-family="sans-serif" font-size="10px" fill="#000" opacity="0">3,400</text></g><g class="mark-rule role-axis-domain" pointer-events="none"><line transform="translate(0,0)" x2="600" y2="0" stroke="#888" stroke-width="1" opacity="1"/></g><g class="mark-text role-axis-title" pointer-events="none"><text text-anchor="middle" transform="translate(300,30)" font-family="sans-serif" font-size="11px" font-weight="bold" fill="#000" opacity="1">established shapes</text></g></g><path class="foreground" aria-hidden="true" d="" pointer-events="none" display="none"/></g></g><g class="mark-group role-axis" role="graphics-symbol" aria-roledescription="axis" aria-label="Y-axis titled 'time to sync (ms)' for a linear scale with values from 0 to 20"><g transform="translate(0.5,0.5)"><path class="background" aria-hidden="true" d="M0,0h0v0h0Z" pointer-events="none"/><g><g class="mark-rule role-axis-tick" pointer-events="none"><line transform="translate(0,200)" x2="-5" y2="0" stroke="#888" stroke-width="1" opacity="1"/><line transform="translate(0,150)" x2="-5" y2="0" stroke="#888" stroke-width="1" opacity="1"/><line transform="translate(0,100)" x2="-5" y2="0" stroke="#888" stroke-width="1" opacity="1"/><line transform="translate(0,50)" x2="-5" y2="0" stroke="#888" stroke-width="1" opacity="1"/><line transform="translate(0,0)" x2="-5" y2="0" stroke="#888" stroke-width="1" opacity="1"/></g><g class="mark-text role-axis-label" pointer-events="none"><text text-anchor="end" transform="translate(-7,203)" font-family="sans-serif" font-size="10px" fill="#000" opacity="1">0</text><text text-anchor="end" transform="translate(-7,153)" font-family="sans-serif" font-size="10px" fill="#000" opacity="1">5</text><text text-anchor="end" transform="translate(-7,103)" font-family="sans-serif" font-size="10px" fill="#000" opacity="1">10</text><text text-anchor="end" transform="translate(-7,53)" font-family="sans-serif" font-size="10px" fill="#000" opacity="1">15</text><text text-anchor="end" transform="translate(-7,3)" font-family="sans-serif" font-size="10px" fill="#000" opacity="1">20</text></g><g class="mark-rule role-axis-domain" pointer-events="none"><line transform="translate(0,200)" x2="0" y2="-200" stroke="#888" stroke-width="1" opacity="1"/></g><g class="mark-text role-axis-title" pointer-events="none"><text text-anchor="middle" transform="translate(-31,100) rotate(-90) translate(0,-2)" font-family="sans-serif" font-size="11px" font-weight="bold" fill="#000" opacity="1">time to sync (ms)</text></g></g><path class="foreground" aria-hidden="true" d="" pointer-events="none" display="none"/></g></g><g class="mark-group role-scope layer_0_pathgroup" role="graphics-object" aria-roledescription="group mark container"><g transform="translate(0,0)"><path class="background" aria-hidden="true" d="M0,0h600v200h-600Z"/><g><g class="mark-line role-mark layer_0_marks" role="graphics-object" aria-roledescription="line mark container"><path aria-label="established shapes: 100; time to sync (ms): 12; version: 1.0.24" role="graphics-symbol" aria-roledescription="line mark" d="M17.143,80L51.429,80L85.714,70L120,80L154.286,70L188.571,80L222.857,70L257.143,20L291.429,70L325.714,60L360,80L394.286,50L428.571,30L462.857,60L497.143,0L531.429,70" stroke="#4c78a8" stroke-width="2"/></g></g><path class="foreground" aria-hidden="true" d="" display="none"/></g><g transform="translate(0,0)"><path class="background" aria-hidden="true" d="M0,0h600v200h-600Z"/><g><g class="mark-line role-mark layer_0_marks" role="graphics-object" aria-roledescription="line mark container"><path aria-label="established shapes: 100; time to sync (ms): 6; version: pr-2883-dd7e5" role="graphics-symbol" aria-roledescription="line mark" d="M17.143,140L51.429,140L85.714,130L120,130L154.286,130L188.571,130L222.857,130L257.143,130L291.429,120L325.714,130L360,120L394.286,100L428.571,130L462.857,130L497.143,120L531.429,130" stroke="#f58518" stroke-width="2"/></g></g><path class="foreground" aria-hidden="true" d="" display="none"/></g></g><g class="mark-symbol role-mark layer_1_marks" role="graphics-object" aria-roledescription="symbol mark container"><path aria-label="established shapes: 100; time to sync (ms): 12; version: 1.0.24" role="graphics-symbol" aria-roledescription="point" transform="translate(17.142857142857142,80)" d="M2.739,0A2.739,2.739,0,1,1,-2.739,0A2.739,2.739,0,1,1,2.739,0" fill="#4c78a8" stroke-width="2" opacity="1"/><path aria-label="established shapes: 300; time to sync (ms): 12; version: 1.0.24" role="graphics-symbol" aria-roledescription="point" transform="translate(51.42857142857143,80)" d="M2.739,0A2.739,2.739,0,1,1,-2.739,0A2.739,2.739,0,1,1,2.739,0" fill="#4c78a8" stroke-width="2" opacity="1"/><path aria-label="established shapes: 500; time to sync (ms): 13; version: 1.0.24" role="graphics-symbol" aria-roledescription="point" transform="translate(85.71428571428571,70)" d="M2.739,0A2.739,2.739,0,1,1,-2.739,0A2.739,2.739,0,1,1,2.739,0" fill="#4c78a8" stroke-width="2" opacity="1"/><path aria-label="established shapes: 700; time to sync (ms): 12; version: 1.0.24" role="graphics-symbol" aria-roledescription="point" transform="translate(120,80)" d="M2.739,0A2.739,2.739,0,1,1,-2.739,0A2.739,2.739,0,1,1,2.739,0" fill="#4c78a8" stroke-width="2" opacity="1"/><path aria-label="established shapes: 900; time to sync (ms): 13; version: 1.0.24" role="graphics-symbol" aria-roledescription="point" transform="translate(154.28571428571428,70)" d="M2.739,0A2.739,2.739,0,1,1,-2.739,0A2.739,2.739,0,1,1,2.739,0" fill="#4c78a8" stroke-width="2" opacity="1"/><path aria-label="established shapes: 1900; time to sync (ms): 14; version: 1.0.24" role="graphics-symbol" aria-roledescription="point" transform="translate(325.71428571428567,60.00000000000001)" d="M2.739,0A2.739,2.739,0,1,1,-2.739,0A2.739,2.739,0,1,1,2.739,0" fill="#4c78a8" stroke-width="2" opacity="1"/><path aria-label="established shapes: 2100; time to sync (ms): 12; version: 1.0.24" role="graphics-symbol" aria-roledescription="point" transform="translate(360,80)" d="M2.739,0A2.739,2.739,0,1,1,-2.739,0A2.739,2.739,0,1,1,2.739,0" fill="#4c78a8" stroke-width="2" opacity="1"/><path aria-label="established shapes: 2300; time to sync (ms): 15; version: 1.0.24" role="graphics-symbol" aria-roledescription="point" transform="translate(394.2857142857143,50)" d="M2.739,0A2.739,2.739,0,1,1,-2.739,0A2.739,2.739,0,1,1,2.739,0" fill="#4c78a8" stroke-width="2" opacity="1"/><path aria-label="established shapes: 2500; time to sync (ms): 17; version: 1.0.24" role="graphics-symbol" aria-roledescription="point" transform="translate(428.57142857142856,30.000000000000004)" d="M2.739,0A2.739,2.739,0,1,1,-2.739,0A2.739,2.739,0,1,1,2.739,0" fill="#4c78a8" stroke-width="2" opacity="1"/><path aria-label="established shapes: 2700; time to sync (ms): 14; version: 1.0.24" role="graphics-symbol" aria-roledescription="point" transform="translate(462.8571428571429,60.00000000000001)" d="M2.739,0A2.739,2.739,0,1,1,-2.739,0A2.739,2.739,0,1,1,2.739,0" fill="#4c78a8" stroke-width="2" opacity="1"/><path aria-label="established shapes: 2900; time to sync (ms): 20; version: 1.0.24" role="graphics-symbol" aria-roledescription="point" transform="translate(497.14285714285717,0)" d="M2.739,0A2.739,2.739,0,1,1,-2.739,0A2.739,2.739,0,1,1,2.739,0" fill="#4c78a8" stroke-width="2" opacity="1"/><path aria-label="established shapes: 3100; time to sync (ms): 13; version: 1.0.24" role="graphics-symbol" aria-roledescription="point" transform="translate(531.4285714285714,70)" d="M2.739,0A2.739,2.739,0,1,1,-2.739,0A2.739,2.739,0,1,1,2.739,0" fill="#4c78a8" stroke-width="2" opacity="1"/><path aria-label="established shapes: 1700; time to sync (ms): 13; version: 1.0.24" role="graphics-symbol" aria-roledescription="point" transform="translate(291.42857142857144,70)" d="M2.739,0A2.739,2.739,0,1,1,-2.739,0A2.739,2.739,0,1,1,2.739,0" fill="#4c78a8" stroke-width="2" opacity="1"/><path aria-label="established shapes: 1100; time to sync (ms): 12; version: 1.0.24" role="graphics-symbol" aria-roledescription="point" transform="translate(188.57142857142856,80)" d="M2.739,0A2.739,2.739,0,1,1,-2.739,0A2.739,2.739,0,1,1,2.739,0" fill="#4c78a8" stroke-width="2" opacity="1"/><path aria-label="established shapes: 1500; time to sync (ms): 18; version: 1.0.24" role="graphics-symbol" aria-roledescription="point" transform="translate(257.1428571428571,19.999999999999996)" d="M2.739,0A2.739,2.739,0,1,1,-2.739,0A2.739,2.739,0,1,1,2.739,0" fill="#4c78a8" stroke-width="2" opacity="1"/><path aria-label="established shapes: 1300; time to sync (ms): 13; version: 1.0.24" role="graphics-symbol" aria-roledescription="point" transform="translate(222.85714285714286,70)" d="M2.739,0A2.739,2.739,0,1,1,-2.739,0A2.739,2.739,0,1,1,2.739,0" fill="#4c78a8" stroke-width="2" opacity="1"/><path aria-label="established shapes: 100; time to sync (ms): 6; version: pr-2883-dd7e5" role="graphics-symbol" aria-roledescription="point" transform="translate(17.142857142857142,140)" d="M2.739,0A2.739,2.739,0,1,1,-2.739,0A2.739,2.739,0,1,1,2.739,0" fill="#f58518" stroke-width="2" opacity="1"/><path aria-label="established shapes: 300; time to sync (ms): 6; version: pr-2883-dd7e5" role="graphics-symbol" aria-roledescription="point" transform="translate(51.42857142857143,140)" d="M2.739,0A2.739,2.739,0,1,1,-2.739,0A2.739,2.739,0,1,1,2.739,0" fill="#f58518" stroke-width="2" opacity="1"/><path aria-label="established shapes: 500; time to sync (ms): 7; version: pr-2883-dd7e5" role="graphics-symbol" aria-roledescription="point" transform="translate(85.71428571428571,130)" d="M2.739,0A2.739,2.739,0,1,1,-2.739,0A2.739,2.739,0,1,1,2.739,0" fill="#f58518" stroke-width="2" opacity="1"/><path aria-label="established shapes: 700; time to sync (ms): 7; version: pr-2883-dd7e5" role="graphics-symbol" aria-roledescription="point" transform="translate(120,130)" d="M2.739,0A2.739,2.739,0,1,1,-2.739,0A2.739,2.739,0,1,1,2.739,0" fill="#f58518" stroke-width="2" opacity="1"/><path aria-label="established shapes: 900; time to sync (ms): 7; version: pr-2883-dd7e5" role="graphics-symbol" aria-roledescription="point" transform="translate(154.28571428571428,130)" d="M2.739,0A2.739,2.739,0,1,1,-2.739,0A2.739,2.739,0,1,1,2.739,0" fill="#f58518" stroke-width="2" opacity="1"/><path aria-label="established shapes: 1100; time to sync (ms): 7; version: pr-2883-dd7e5" role="graphics-symbol" aria-roledescription="point" transform="translate(188.57142857142856,130)" d="M2.739,0A2.739,2.739,0,1,1,-2.739,0A2.739,2.739,0,1,1,2.739,0" fill="#f58518" stroke-width="2" opacity="1"/><path aria-label="established shapes: 1300; time to sync (ms): 7; version: pr-2883-dd7e5" role="graphics-symbol" aria-roledescription="point" transform="translate(222.85714285714286,130)" d="M2.739,0A2.739,2.739,0,1,1,-2.739,0A2.739,2.739,0,1,1,2.739,0" fill="#f58518" stroke-width="2" opacity="1"/><path aria-label="established shapes: 1500; time to sync (ms): 7; version: pr-2883-dd7e5" role="graphics-symbol" aria-roledescription="point" transform="translate(257.1428571428571,130)" d="M2.739,0A2.739,2.739,0,1,1,-2.739,0A2.739,2.739,0,1,1,2.739,0" fill="#f58518" stroke-width="2" opacity="1"/><path aria-label="established shapes: 1700; time to sync (ms): 8; version: pr-2883-dd7e5" role="graphics-symbol" aria-roledescription="point" transform="translate(291.42857142857144,120)" d="M2.739,0A2.739,2.739,0,1,1,-2.739,0A2.739,2.739,0,1,1,2.739,0" fill="#f58518" stroke-width="2" opacity="1"/><path aria-label="established shapes: 1900; time to sync (ms): 7; version: pr-2883-dd7e5" role="graphics-symbol" aria-roledescription="point" transform="translate(325.71428571428567,130)" d="M2.739,0A2.739,2.739,0,1,1,-2.739,0A2.739,2.739,0,1,1,2.739,0" fill="#f58518" stroke-width="2" opacity="1"/><path aria-label="established shapes: 2100; time to sync (ms): 8; version: pr-2883-dd7e5" role="graphics-symbol" aria-roledescription="point" transform="translate(360,120)" d="M2.739,0A2.739,2.739,0,1,1,-2.739,0A2.739,2.739,0,1,1,2.739,0" fill="#f58518" stroke-width="2" opacity="1"/><path aria-label="established shapes: 2300; time to sync (ms): 10; version: pr-2883-dd7e5" role="graphics-symbol" aria-roledescription="point" transform="translate(394.2857142857143,100)" d="M2.739,0A2.739,2.739,0,1,1,-2.739,0A2.739,2.739,0,1,1,2.739,0" fill="#f58518" stroke-width="2" opacity="1"/><path aria-label="established shapes: 2500; time to sync (ms): 7; version: pr-2883-dd7e5" role="graphics-symbol" aria-roledescription="point" transform="translate(428.57142857142856,130)" d="M2.739,0A2.739,2.739,0,1,1,-2.739,0A2.739,2.739,0,1,1,2.739,0" fill="#f58518" stroke-width="2" opacity="1"/><path aria-label="established shapes: 2700; time to sync (ms): 7; version: pr-2883-dd7e5" role="graphics-symbol" aria-roledescription="point" transform="translate(462.8571428571429,130)" d="M2.739,0A2.739,2.739,0,1,1,-2.739,0A2.739,2.739,0,1,1,2.739,0" fill="#f58518" stroke-width="2" opacity="1"/><path aria-label="established shapes: 2900; time to sync (ms): 8; version: pr-2883-dd7e5" role="graphics-symbol" aria-roledescription="point" transform="translate(497.14285714285717,120)" d="M2.739,0A2.739,2.739,0,1,1,-2.739,0A2.739,2.739,0,1,1,2.739,0" fill="#f58518" stroke-width="2" opacity="1"/><path aria-label="established shapes: 3100; time to sync (ms): 7; version: pr-2883-dd7e5" role="graphics-symbol" aria-roledescription="point" transform="translate(531.4285714285714,130)" d="M2.739,0A2.739,2.739,0,1,1,-2.739,0A2.739,2.739,0,1,1,2.739,0" fill="#f58518" stroke-width="2" opacity="1"/></g><g class="mark-group role-legend" role="graphics-symbol" aria-roledescription="legend" aria-label="Symbol legend titled 'version' for fill color and stroke color with 2 values: 1.0.24, pr-2883-dd7e5"><g transform="translate(618,0)"><path class="background" aria-hidden="true" d="M0,0h146v45h-146Z" pointer-events="none"/><g><g class="mark-group role-legend-entry"><g transform="translate(0,16)"><path class="background" aria-hidden="true" d="M0,0h0v0h0Z" pointer-events="none"/><g><g class="mark-group role-scope" role="graphics-object" aria-roledescription="group mark container"><g transform="translate(0,0)"><path class="background" aria-hidden="true" d="M0,0h146v12.5h-146Z" pointer-events="none" opacity="1"/><g><g class="mark-symbol role-legend-symbol" pointer-events="none"><path transform="translate(6,6)" d="M5,0A5,5,0,1,1,-5,0A5,5,0,1,1,5,0" fill="#4c78a8" stroke="#4c78a8" stroke-width="1.5" opacity="1"/></g><g class="mark-text role-legend-label" pointer-events="none"><text text-anchor="start" transform="translate(16,9)" font-family="sans-serif" font-size="10px" fill="#000" opacity="1">1.0.24</text></g></g><path class="foreground" aria-hidden="true" d="" pointer-events="none" display="none"/></g><g transform="translate(0,16)"><path class="background" aria-hidden="true" d="M0,0h146v12.5h-146Z" pointer-events="none" opacity="1"/><g><g class="mark-symbol role-legend-symbol" pointer-events="none"><path transform="translate(6,6)" d="M5,0A5,5,0,1,1,-5,0A5,5,0,1,1,5,0" fill="#f58518" stroke="#f58518" stroke-width="1.5" opacity="1"/></g><g class="mark-text role-legend-label" pointer-events="none"><text text-anchor="start" transform="translate(16,9)" font-family="sans-serif" font-size="10px" fill="#000" opacity="1">pr-2883-dd7e5</text></g></g><path class="foreground" aria-hidden="true" d="" pointer-events="none" display="none"/></g></g></g><path class="foreground" aria-hidden="true" d="" pointer-events="none" display="none"/></g></g><g class="mark-text role-legend-title" pointer-events="none"><text text-anchor="start" transform="translate(0,9)" font-family="sans-serif" font-size="11px" font-weight="bold" fill="#000" opacity="1">version</text></g></g><path class="foreground" aria-hidden="true" d="" pointer-events="none" display="none"/></g></g><g class="mark-group role-title"><g transform="translate(-42,-50)"><path class="background" aria-hidden="true" d="M0,0h0v0h0Z" pointer-events="none"/><g><g class="mark-text role-title-text" role="graphics-symbol" aria-roledescription="title" aria-label="Title text 'Benchmark result comparison for a write falling into 1 of N shapes'" pointer-events="none"><text text-anchor="start" transform="translate(0,10)" font-family="sans-serif" font-size="13px" font-weight="bold" fill="#000" opacity="1">Benchmark result comparison for a write falling into 1 of N shapes</text></g><g class="mark-text role-title-subtitle" role="graphics-symbol" aria-roledescription="subtitle" aria-label="Subtitle text 'Both runs executed on 4vCPU/8GB machines N total shapes, 1 live relevant client'" pointer-events="none"><text text-anchor="start" transform="translate(0,25)" font-family="sans-serif" font-size="12px" fill="#000" opacity="1"><tspan>Both runs executed on 4vCPU/8GB machines</tspan><tspan x="0" dy="14">N total shapes, 1 live relevant client</tspan></text></g></g><path class="foreground" aria-hidden="true" d="" pointer-events="none" display="none"/></g></g></g><path class="foreground" aria-hidden="true" d="" display="none"/></g></g></g></svg>