<?xml version="1.0" encoding="UTF-8"?>
<!-- Created by Iconsax, MIT License - https://www.svgrepo.com/svg/495178/code-1 -->
<svg width="666" height="666" viewBox="0 0 666 666" xmlns="http://www.w3.org/2000/svg" xmlns:xlink="http://www.w3.org/1999/xlink">
    <path id="Rectangle" fill="currentColor" fill-rule="evenodd" stroke="none" d="M 0 666 L 666 666 L 666 0 L 0 0 Z"/>
    <path id="path1" fill="#ffffff" fill-rule="evenodd" stroke="none" d="M 58 608 L 608 608 L 608 58 L 58 58 Z"/>
    <path id="Path-copy" fill="currentColor" stroke="none" d="M 472.666687 -0.333313 L 193.333344 -0.333313 C 72 -0.333313 -0.333336 72 -0.333336 193.333313 L -0.333336 472.333344 C -0.333336 594 72 666.333313 193.333344 666.333313 L 472.333374 666.333313 C 593.666626 666.333313 666 594 666 472.666687 L 666 193.333313 C 666.333313 72 594 -0.333313 472.666687 -0.333313 Z M 264.333313 375.333344 C 241.666687 409.333344 210.333313 437 173.666656 455.333344 C 170.333328 457 166.333328 458 162.666656 458 C 153.333344 458 144.666656 453 140.333328 444.333344 C 134 432 139 417.000031 151.666672 410.666656 C 180.666656 396.333313 205.333344 374.333313 223 347.666656 C 229 338.666656 229 327.333344 223 318.333344 C 205 291.666687 180.333344 269.666687 151.666672 255.333344 C 139 249.333313 134 234.333344 140.333328 221.666656 C 146.333344 209.333313 161.333328 204.333374 173.666656 210.666687 C 210.333313 229 241.666687 256.666656 264.333313 290.666656 C 281.666656 316.333344 281.666656 349.666656 264.333313 375.333344 Z M 499.666687 458 L 366.333344 458 C 352.666687 458 341.333344 446.666656 341.333344 433 C 341.333344 419.333344 352.666687 408 366.333344 408 L 499.666687 408 C 513.333313 408 524.666687 419.333344 524.666687 433 C 524.666687 446.666656 513.333313 458 499.666687 458 Z"/>
</svg>
