<svg xmlns="http://www.w3.org/2000/svg" viewBox="0 0 40 40" width="40" height="40">
  <rect x="0" y="0" width="40" height="40" rx="8" fill="#166788"/>
  <path fill="#ffffff" d="M9 11.5c0-.7.2-1.3.7-1.8.5-.5 1.1-.7 1.8-.7h2.6c1.2 0 2 .6 2.4 1.9l3.5 11.7L23.5 11c.4-1.4 1.2-2 2.4-2h2.6c.7 0 1.3.2 1.8.7.5.5.7 1.1.7 1.8v17c0 .7-.2 1.3-.7 1.8-.5.5-1.1.7-1.8.7h-1.4c-.7 0-1.3-.2-1.8-.7-.5-.5-.7-1.1-.7-1.8V18.3l-2.5 8.8c-.4 1.3-1.2 2-2.4 2h-1.8c-1.2 0-2-.7-2.4-2l-2.5-8.8v10.2c0 .7-.2 1.3-.7 1.8-.5.5-1.1.7-1.8.7h-1.4c-.7 0-1.3-.2-1.8-.7-.5-.5-.7-1.1-.7-1.8v-17z"/>
</svg>
