<svg width="180" height="151" xmlns="http://www.w3.org/2000/svg" fill-rule="evenodd" stroke-linecap="round" stroke-miterlimit="1" clip-rule="evenodd" viewBox="0 0 180 151"><path fill="#64b756" fill-rule="nonzero" d="M21.224 126.914c0 5.497-4.133 9.705-9.758 9.705s-9.757-4.207-9.757-9.705 4.132-9.705 9.757-9.705 9.758 4.208 9.758 9.705m-2.872 0c0-4.155-2.865-7.065-6.892-7.065s-6.893 2.917-6.893 7.065 2.865 7.065 6.893 7.065 6.892-2.917 6.892-7.065m9.817-9.368c2.28 0 3.742.278 4.95 1.095 2.055 1.373 2.22 3.593 2.22 4.403 0 2.692-1.657 4.657-4.163 5.22l5.85 7.995h-3.458l-5.37-7.658h-.503v7.658H24.83v-18.712h3.345-.007Zm-.48 8.58h.9c.788 0 3.99-.083 3.99-3.06 0-2.632-2.505-2.887-3.907-2.887h-.983zm23.175 5.61h-8.025l-2.055 4.515h-3.09l9.338-19.8 8.888 19.8h-3.09zm-1.162-2.692-2.782-6.337-2.895 6.337zm39.255-2.528h7.733v.143c0 3.195-.953 5.805-2.783 7.575-1.943 1.882-4.245 2.385-6.382 2.385-2.73 0-4.665-.788-6.382-2.55-1.83-1.882-2.783-4.373-2.783-7.065 0-2.917 1.178-5.445 2.73-6.982 1.605-1.627 4.163-2.805 7.058-2.805 1.688 0 3.427.368 4.89 1.177 1.545.87 2.505 1.965 3.037 2.805l-2.28 1.597c-.562-.787-1.403-1.627-2.302-2.13-1.042-.615-2.167-.81-3.315-.81-2.445 0-4.02 1.012-4.95 1.935-1.238 1.238-1.995 3.225-1.995 5.243 0 1.883.705 3.758 1.943 5.078 1.29 1.373 2.895 1.882 4.695 1.882 1.627 0 2.978-.48 4.193-1.658 1.042-1.012 1.462-2.1 1.575-3.172h-4.665v-2.64l-.015-.007Zm21.675-6.285h-7.477v4.74h7.252v2.692h-7.252v5.888h7.477v2.692h-10.35v-18.712h10.35zm27.382 6.683c0 5.498-4.132 9.705-9.757 9.705s-9.757-4.207-9.757-9.705c0-5.497 4.132-9.705 9.757-9.705s9.757 4.208 9.757 9.705m-2.873 0c0-4.155-2.865-7.065-6.893-7.065s-6.892 2.917-6.892 7.065c0 4.147 2.865 7.065 6.892 7.065s6.893-2.918 6.893-7.065m9.817-9.368c2.28 0 3.743.278 4.95 1.095 2.055 1.373 2.22 3.593 2.22 4.403 0 2.693-1.658 4.658-4.163 5.22l5.85 7.995h-3.458l-5.37-7.657h-.502v7.657h-2.865v-18.712h3.345-.008Zm-.48 8.58h.9c.787 0 3.99-.083 3.99-3.06 0-2.632-2.505-2.887-3.907-2.887h-.983v5.948Zm11.588 10.125 3.938-20.115 6.525 14.528 6.577-14.528 3.54 20.115h-2.925l-1.912-11.272-5.452 12.142-5.4-12.172-1.965 11.302zm-97.673.098v-32.678l13.695 32.52v-18.712h2.888v32.565l-13.695-32.52v18.825h-2.887Z"/><path fill="#f7931e" fill-rule="nonzero" d="M56.279 100.919H6.006a4.123 4.123 0 0 0-4.125 4.125 4.123 4.123 0 0 0 4.125 4.125h50.273zm117.225 0H59.654l2.977 8.25h110.873a4.123 4.123 0 0 0 4.125-4.125 4.123 4.123 0 0 0-4.125-4.125m0 40.92H77.016v8.25h96.488a4.123 4.123 0 0 0 4.125-4.125 4.123 4.123 0 0 0-4.125-4.125m-103.95 0H6.007a4.123 4.123 0 0 0-4.125 4.125 4.123 4.123 0 0 0 4.125 4.125h66.525z"/><path fill="#fde4c7" fill-rule="nonzero" d="m96.576 86.309 56.692-32.73c2.505-1.448 5.722-.48 6.998 2.115a78 78 0 0 1 5.333 14.227 78 78 0 0 1 2.49 14.985c.195 2.888-2.107 5.333-4.995 5.333h-65.46c-2.153 0-2.917-2.85-1.05-3.93z"/><path fill="#fcd7ab" fill-rule="nonzero" d="m93.704 83.436 32.73-56.692c1.455-2.528 4.748-3.255 7.162-1.628a78.5 78.5 0 0 1 21.308 21.307c1.627 2.422.892 5.707-1.627 7.162l-56.693 32.73c-1.868 1.08-3.953-1.013-2.88-2.88"/><path fill="#fbc98f" fill-rule="nonzero" d="M89.774 82.386V16.919c0-2.895 2.445-5.198 5.333-4.995a78.7 78.7 0 0 1 14.985 2.49 78.7 78.7 0 0 1 14.227 5.332c2.595 1.275 3.562 4.492 2.115 6.998l-32.73 56.692c-1.08 1.868-3.93 1.102-3.93-1.05"/><path fill="#fabb72" fill-rule="nonzero" d="m85.844 83.436-32.73-56.692c-1.448-2.505-.48-5.722 2.115-6.998a78 78 0 0 1 14.227-5.332 78 78 0 0 1 14.985-2.49c2.888-.195 5.333 2.108 5.333 4.995v65.46c0 2.153-2.85 2.918-3.93 1.05z"/><path fill="#f9ae56" fill-rule="nonzero" d="m82.964 86.309-56.692-32.73c-2.528-1.455-3.255-4.748-1.627-7.162a78.4 78.4 0 0 1 9.622-11.685 78.3 78.3 0 0 1 11.685-9.622c2.422-1.628 5.707-.892 7.163 1.627l32.73 56.692c1.08 1.868-1.013 3.953-2.88 2.88"/><path fill="#f8a13a" fill-rule="nonzero" d="M81.921 90.239H16.453c-2.895 0-5.197-2.445-4.995-5.333a78.6 78.6 0 0 1 2.49-14.985 78.6 78.6 0 0 1 5.333-14.227c1.275-2.595 4.492-3.562 6.998-2.115l56.693 32.73c1.868 1.08 1.102 3.93-1.05 3.93Z"/><path fill="none" stroke="#f7931e" stroke-width="8.25" d="M173.729 89.781c0-46.05-37.898-83.947-83.948-83.947S5.833 43.731 5.833 89.781"/></svg>