<svg width="44" height="46" viewBox="0 0 44 46" fill="none" xmlns="http://www.w3.org/2000/svg">
<path d="M15.0116 32V36.9897H8.20747M29.0848 32V36.9897H35.8889M22.0482 32V39.2577M22.0482 39.2577C20.7956 39.2577 19.7802 40.2732 19.7802 41.5258C19.7802 42.7784 20.7956 43.7938 22.0482 43.7938C23.3008 43.7938 24.3162 42.7784 24.3162 41.5258C24.3162 40.2732 23.3008 39.2577 22.0482 39.2577ZM8.66108 36.9897C8.66108 38.2423 7.64565 39.2577 6.39304 39.2577C5.14044 39.2577 4.125 38.2423 4.125 36.9897C4.125 35.7371 5.14044 34.7216 6.39304 34.7216C7.64565 34.7216 8.66108 35.7371 8.66108 36.9897ZM39.9714 36.9897C39.9714 38.2423 38.956 39.2577 37.7034 39.2577C36.4508 39.2577 35.4353 38.2423 35.4353 36.9897C35.4353 35.7371 36.4508 34.7216 37.7034 34.7216C38.956 34.7216 39.9714 35.7371 39.9714 36.9897Z" stroke="#7ADDFF" stroke-width="2.5"/>
<path fill-rule="evenodd" clip-rule="evenodd" d="M34.65 32.2375H9.35C4.18614 32.2375 0 28.0513 0 22.8875C0 17.7236 4.18614 13.5375 9.35 13.5375C9.72744 13.5375 10.0997 13.5598 10.4654 13.6033C10.4552 13.3993 10.45 13.194 10.45 12.9875C10.45 6.30481 15.8674 0.887451 22.55 0.887451C27.9888 0.887451 32.5895 4.47586 34.1138 9.41428C34.6259 9.23496 35.1766 9.13745 35.75 9.13745C38.4838 9.13745 40.7 11.3536 40.7 14.0875C40.7 14.6047 40.6207 15.1034 40.4735 15.572C42.6227 17.2851 44 19.9254 44 22.8875C44 27.8667 40.1079 31.9369 35.2 32.2215V32.2375L34.65 32.2375Z" fill="#7ADDFF"/>
</svg>
