<svg viewBox="0 0 90 90" fill="none" xmlns="http://www.w3.org/2000/svg">
<g clip-path="url(#clip0_584_2566)">
<path d="M6.00781 69.4336L15.1766 80.1291L16.001 79.1544V10.744L15.1766 9.71021L6.00781 20.4017V69.4336Z" fill="#1A476F"/>
<path d="M15.1787 80.1291L32.6982 88.8478L33.4269 87.6806L33.4388 1.91349L32.7105 1L15.1787 9.69069V80.1291Z" fill="#1F5B98"/>
<path d="M84.3209 20.4017L75.1497 9.71021L74.124 10.0336L74.3278 79.2561L75.1497 80.1291L84.3209 69.4348V20.4017Z" fill="#2D72B8"/>
<path d="M57.6303 88.8478L75.1498 80.1291V9.69069L57.6181 1L56.7891 2.1166L56.801 87.5789L57.6303 88.8478Z" fill="#5294CF"/>
<path d="M32.71 1H57.6184V88.849H32.71V1Z" fill="#2D72B8"/>
</g>
<defs>
<clipPath id="clip0_584_2566">
<rect width="78.3297" height="88" fill="white" transform="translate(6 1)"/>
</clipPath>
</defs>
</svg>
