<svg width="90" height="90" viewBox="0 0 90 90" fill="none" xmlns="http://www.w3.org/2000/svg">
<path d="M71.141 42.3654L69.2738 41.6187C60.4985 61.3638 25.5887 49.3597 23.4881 55.2336C23.1379 59.2013 42.5523 55.9881 56.4316 56.6606C60.664 56.8656 62.7864 60.0606 60.9892 65.2683L64.5291 65.2792C68.6125 52.5494 81.6442 59.046 82.1888 54.8448C81.2941 52.0826 67.2119 54.8448 71.141 42.3654Z" fill="white"/>
<path d="M61.9917 63.0914C62.5518 61.2243 62.3651 59.3571 61.4317 58.2367C60.4979 57.1163 59.1908 56.3696 57.5103 56.1829L25.0207 55.8092C24.834 55.8092 24.6473 55.6225 24.4607 55.6225C24.274 55.4358 24.274 55.2491 24.4607 55.0625C24.6473 54.6891 24.834 54.5021 25.2074 54.5021L57.8837 54.1287C61.805 53.942 65.913 50.7678 67.4065 47.0335L69.274 42.1787C69.274 41.9917 69.4607 41.805 69.274 41.6184C67.2198 32.0956 58.6308 25 48.5476 25C39.2115 25 31.1825 30.9752 28.3816 39.3779C26.5145 38.0707 24.274 37.3237 21.6598 37.5107C17.1784 37.8841 13.6308 41.6184 13.0704 46.0997C12.8837 47.2202 13.0704 48.3406 13.2574 49.4607C5.97516 49.6473 0 55.6225 0 63.0914C0 63.8382 0 64.3986 0.18668 65.1453C0.18668 65.519 0.560039 65.7057 0.74707 65.7057H60.6846C61.058 65.7057 61.4317 65.519 61.4317 65.1453L61.9917 63.0914Z" fill="#F4811F"/>
<path d="M72.2612 42.1786H71.3275C71.1408 42.1786 70.9541 42.3653 70.7674 42.5519L69.4603 47.0333C68.9003 48.9005 69.087 50.768 70.0207 51.888C70.9541 53.0085 72.2612 53.7552 73.9417 53.9422L80.8506 54.3156C81.0373 54.3156 81.224 54.5023 81.4107 54.5023C81.5973 54.6889 81.5973 54.8756 81.4107 55.0623C81.224 55.436 81.0373 55.6227 80.6636 55.6227L73.5683 55.9961C69.647 56.1827 65.5394 59.357 64.0456 63.0913L63.6719 64.7721C63.4852 64.9588 63.6719 65.3321 64.0456 65.3321H88.6929C89.0663 65.3321 89.253 65.1455 89.253 64.7721C89.6263 63.2783 89.9997 61.5978 89.9997 59.917C89.9997 50.2076 81.9707 42.1786 72.2612 42.1786Z" fill="#FAAD3F"/>
</svg>
