<svg viewBox="0 0 90 90" fill="none" xmlns="http://www.w3.org/2000/svg">
<g clip-path="url(#clip0_584_2558)">
<path d="M46.116 85C27.2907 84.8456 10.8137 72.6893 5.65501 55.1688C-0.697104 33.5962 11.7376 11.7921 33.6428 6.42786C50.1968 2.37576 64.4024 6.92954 75.6437 19.5103C88.656 34.0593 89.2719 54.4356 78.1846 69.1389C71.4475 78.0535 62.439 83.1862 51.3902 84.6141C50.0428 84.807 48.6569 84.8842 47.3095 85C46.886 85 46.501 85 46.116 85ZM43.0747 7.00673C41.9583 7.00673 40.8034 6.96814 39.6869 7.00673C39.302 7.00673 38.609 7.1225 38.8785 7.70137C39.379 8.66616 39.9179 9.66954 40.7264 10.3642C41.3423 10.8659 42.3048 10.3642 43.0747 10.1326L48.6184 9.51517H56.4719C53.8926 8.16447 51.1207 7.70137 48.3489 7.50842C46.578 7.66278 44.8841 6.77518 43.0747 7.00673ZM24.4804 12.2552C20.0146 14.5321 16.4729 17.9667 13.5085 21.903C8.46534 28.5407 6.11698 36.2204 6.27097 44.5562C6.42496 52.6218 8.88881 59.9541 13.778 66.4375C15.0869 68.1741 16.4344 69.9107 18.2052 71.3C18.5132 70.8369 18.3977 70.4124 18.3977 70.0651C18.2052 67.8268 18.9752 65.8972 20.2841 64.1606C20.7846 63.5432 21.2466 62.9257 21.7855 62.3082C22.4015 61.575 22.4785 61.2277 21.3621 60.8803C16.8963 59.4525 13.316 56.7897 11.0447 52.5446C10.9677 52.3516 10.8137 52.1973 10.6212 52.1201C8.58083 51.2325 8.08036 49.5345 8.27285 47.4891C8.65783 43.5142 9.85125 39.7708 10.8907 35.9503C11.1217 35.1785 11.5836 34.4838 12.2381 34.0207C13.3545 33.2103 14.009 32.1297 14.471 30.8176C15.0869 29.0424 16.3189 28.232 18.2052 28.232C19.1292 28.232 20.0531 28.1934 20.9771 28.232C22.44 28.2706 23.7489 28.0005 24.7883 26.8427C25.7123 26.7269 26.0973 25.8779 26.7902 25.4534C28.7536 24.3343 29.5621 22.6362 29.6005 20.3594C29.639 18.2368 30.486 16.4616 32.6034 15.4582C33.7583 14.8794 34.7977 14.1461 35.7602 13.2971C36.4531 12.6797 36.8766 11.985 36.7611 10.9816C36.5686 9.8239 36.7996 8.62757 37.4156 7.66278C32.6034 8.35743 28.3686 9.74672 24.4804 12.2552ZM41.4193 36.8765C43.6137 36.9151 45.2306 37.8799 46.6935 39.1534C49.3883 41.4689 50.0813 47.875 46.116 50.0362C42.5743 51.9657 38.917 53.1621 34.8362 52.8147C32.9498 52.6604 31.0635 52.4674 29.1771 52.2745C24.5189 51.8114 19.8991 50.9624 15.2024 51.657C14.1245 51.8114 13.8165 52.0815 14.548 52.9691C17.4353 56.5581 21.1311 58.5649 25.8278 58.2947C30.4475 58.0632 35.0672 57.3685 39.6869 58.2175C44.9226 59.1823 48.9649 57.5615 51.8137 53.0077C52.1602 52.4288 52.6222 51.85 53.3921 52.313C54.1621 52.7761 53.8926 53.3936 53.4691 54.0111C51.0437 57.8316 48.0794 60.8032 43.1132 60.6874C42.3433 60.6874 41.5348 60.8417 40.7264 60.9189C39.9949 60.9961 39.3405 61.2277 38.917 61.8837C37.993 63.273 36.9536 64.6237 36.3376 66.206C34.7207 70.3738 33.1038 74.5417 31.4869 78.7096C31.1405 79.5972 31.2944 80.1375 32.2954 80.4848C36.6071 81.9898 41.1113 82.8003 45.6926 82.8389C54.393 82.8774 62.2081 80.2918 69.1761 75.082C69.5996 74.7733 69.8306 74.4645 69.6381 74.0014C68.4832 70.9913 69.2916 68.0969 70.1001 65.164C70.7545 62.7713 71.2165 60.3401 70.793 57.8316C70.3696 55.3232 70.4081 55.3232 68.3677 56.6353C66.6353 57.793 64.6719 58.4877 62.747 59.2209C62.0156 59.4911 60.9761 59.6068 60.7067 58.9508C60.3217 58.0246 61.5151 58.0246 62.0541 57.7544C63.6325 56.9826 65.4419 56.5967 66.8278 55.4775C70.4466 52.5446 72.179 48.5311 72.7949 44.0159C73.1029 41.9705 73.1799 39.8866 73.3724 37.8027C73.4109 37.4168 73.4494 36.9923 74.0268 36.9923C74.6043 36.9923 74.5658 37.4554 74.6043 37.8413C74.6428 38.15 74.5658 38.4587 74.6043 38.7675C74.7583 43.63 73.7189 48.3767 72.9489 53.1235C72.179 58.1018 72.7179 63.0029 73.7959 67.8654C73.9499 68.4828 74.1808 69.2161 74.6813 69.3705C75.3743 69.602 75.6437 68.753 75.9902 68.2899C79.455 63.8133 81.6494 58.7578 82.8043 53.2007C83.6898 48.917 83.5743 44.8263 81.3414 40.8514C79.763 38.0342 78.3771 35.1399 76.8372 32.2841C73.6804 26.3796 69.1761 21.4785 64.9799 16.3844C63.7095 14.8408 62.2851 13.3357 60.4372 12.3709C60.1677 12.2552 59.8982 11.9464 59.5902 12.1008C59.1667 12.3323 59.4362 12.7568 59.4747 13.0656C60.0522 15.3811 57.9733 18.0053 55.7405 18.8157C55.24 19.0087 54.624 19.2402 54.316 18.6613C54.0081 18.0825 54.701 17.8895 55.0475 17.5808C56.5489 16.2687 57.3959 14.1075 57.0109 12.4481C55.8944 12.9884 54.9705 13.6445 54.4315 14.7636C54.2006 15.2653 53.8541 16.1915 53.2381 15.8442C52.5067 15.4197 52.8916 14.5706 53.3151 13.9532C53.6616 13.3743 54.1236 12.9112 54.701 12.5253C55.2785 12.1394 56.0099 12.1008 56.5874 11.4833C55.9714 11.136 55.24 10.9816 54.5085 11.0202C50.3508 11.0588 46.193 10.9816 42.0738 11.8307C40.7649 12.0622 39.4559 12.3709 38.4165 13.2971C36.9536 14.6478 35.2982 15.8056 33.5658 16.6932C32.8344 17.0791 32.1029 17.5036 32.3724 18.507C32.6034 19.4332 33.3733 19.8963 34.2973 20.012C34.6822 20.0506 35.1827 19.9349 35.2982 20.4751C35.4137 20.9382 34.9132 21.1312 34.6437 21.3627C31.9874 23.4467 29.4081 25.5692 26.8672 27.7689C25.2118 29.1968 23.0559 29.9686 20.9001 29.8914C20.0146 29.8528 19.1292 29.8914 18.2437 29.8914C16.1649 29.8914 15.7029 30.5089 16.2804 32.5157C16.4728 33.2489 16.5498 34.0207 15.8954 34.5996C15.2409 35.1785 14.548 35.1399 13.855 34.561C13.5085 34.2909 13.239 34.4066 12.9696 34.754C12.3536 35.4872 12.4691 36.0661 13.4315 36.2976C15.1254 36.7607 16.3959 35.8731 17.5893 34.7925C17.8203 34.561 18.1282 34.1751 18.4747 34.4452C18.8597 34.7154 18.6287 35.1013 18.4362 35.41C17.7048 36.8379 14.8175 38.3815 13.2005 38.1886C12.7771 38.15 12.5461 38.1886 12.4306 38.6517C11.7376 41.4303 10.8522 44.1703 10.6212 47.0646C10.3902 49.9976 11.0832 50.5764 13.9705 49.9204C18.7442 48.8012 23.4409 48.4925 28.2146 49.9976C30.794 50.808 33.5273 50.8852 36.2606 50.5764C39.4175 50.2291 42.5743 49.6888 45.1921 47.6821C46.2315 46.9488 46.8475 45.8297 46.963 44.5562C47.1555 42.6652 46.27 41.3145 44.9996 40.1182C43.8062 38.9604 42.6898 37.9956 41.4193 36.8765ZM31.7564 59.7998V59.8384C31.3329 59.7998 30.871 59.7612 30.4475 59.7612C28.4071 59.7226 26.3282 59.5682 24.7498 61.2663C22.825 63.3502 21.3236 65.6657 20.8231 68.4829C19.9761 72.9209 20.5921 74.1558 24.4804 76.4327L25.7123 77.1659C28.8691 78.9797 28.8691 78.9797 29.9855 75.5837C30.5245 74.0014 30.1395 72.8823 28.7151 71.9561C28.3686 71.7245 28.0221 71.6088 27.6757 71.4158C27.3292 71.2228 27.0597 70.9913 27.0982 70.6054C27.1367 70.2581 27.4447 69.9493 27.7912 69.8721C29.0231 69.7178 30.255 69.2933 31.4484 69.7564C32.0644 69.9879 32.3339 69.795 32.5649 69.2933C33.8353 66.4761 35.1442 63.6975 36.4531 60.8803C36.7226 60.3015 36.5686 60.1085 35.9527 60.0699C34.6052 59.9927 33.1808 59.877 31.7564 59.7998ZM65.0954 13.876C71.7555 20.7067 77.3376 28.4636 81.7264 36.9537C82.1498 30.7404 71.178 15.4968 65.0954 13.876Z" fill="#141618"/>
<path d="M41.4196 36.8765C42.69 37.9956 43.8064 38.9604 44.9229 40.0024C46.1933 41.1987 47.0402 42.5494 46.8862 44.4404C46.8092 45.6753 46.1548 46.8331 45.1154 47.5663C42.459 49.5731 39.3407 50.1519 36.1839 50.4607C33.4891 50.7308 30.7172 50.6922 28.1379 49.8818C23.3642 48.3767 18.629 48.6855 13.8938 49.8046C10.9679 50.4993 10.3135 49.9204 10.5445 46.9488C10.7754 44.0545 11.6609 41.3145 12.3539 38.5359C12.4693 38.0728 12.7003 38.0342 13.1238 38.0728C14.7407 38.2658 17.5895 36.7607 18.3595 35.2942C18.5135 34.9855 18.7445 34.5996 18.398 34.3295C18.0515 34.0593 17.7435 34.4452 17.5125 34.6768C16.3576 35.7573 15.0872 36.6449 13.3548 36.1818C12.3924 35.9503 12.2769 35.3714 12.8928 34.6382C13.1623 34.2909 13.4318 34.1751 13.7783 34.4452C14.4712 34.9855 15.1642 35.0627 15.8186 34.4838C16.4731 33.905 16.4346 33.1331 16.2036 32.3999C15.6647 30.3931 16.0881 29.7757 18.167 29.7757C19.0524 29.7757 19.9379 29.7371 20.8233 29.7757C23.0177 29.8529 25.1736 29.1196 26.7905 27.6531C29.3313 25.4534 31.9492 23.3309 34.567 21.247C34.875 21.0154 35.3369 20.8225 35.2215 20.3594C35.106 19.8577 34.6055 19.9735 34.2205 19.8963C33.2966 19.7805 32.5651 19.3174 32.2956 18.3912C32.0262 17.3878 32.7576 16.9633 33.4891 16.5774C35.26 15.6512 36.8769 14.4935 38.3398 13.1814C39.3792 12.2552 40.6881 11.985 41.997 11.7149C46.0778 10.9045 50.274 10.9817 54.4318 10.9045C55.1632 10.8659 55.8562 11.0202 56.5107 11.3676C55.9332 11.9464 55.2017 12.0236 54.6243 12.4095C54.0853 12.7954 53.6233 13.2585 53.2384 13.8374C52.8534 14.4549 52.4299 15.3039 53.1614 15.7284C53.7773 16.0757 54.1238 15.1495 54.3548 14.6478C54.8938 13.4901 55.8562 12.834 56.9341 12.3324C57.3191 13.9918 56.4722 16.1529 54.9707 17.465C54.6243 17.7737 53.9313 17.9667 54.2393 18.5456C54.5473 19.1244 55.1632 18.8543 55.6637 18.6999C57.8966 17.9281 59.9754 15.3039 59.398 12.9498C59.321 12.6411 59.0515 12.2166 59.5135 11.985C59.8215 11.8307 60.0909 12.1394 60.3604 12.2552C62.2083 13.22 63.5942 14.725 64.9031 16.2687C69.0994 21.4013 73.6036 26.3024 76.7604 32.1683C78.3003 35.0241 79.6862 37.9185 81.2646 40.7356C83.4975 44.7105 83.613 48.8012 82.7276 53.0849C81.5726 58.642 79.3783 63.6975 75.9135 68.1741C75.567 68.6372 75.2975 69.4862 74.6046 69.2547C74.1041 69.1003 73.8346 68.3671 73.7191 67.7496C72.6412 62.8871 72.1022 57.986 72.8722 53.0077C73.6036 48.261 74.6816 43.5142 74.5276 38.6517C74.5276 38.343 74.5661 38.0342 74.5276 37.7255C74.4891 37.3396 74.5276 36.8765 73.9501 36.8765C73.3341 36.8765 73.3341 37.301 73.2956 37.6869C73.1031 39.7708 73.0262 41.8548 72.7182 43.9001C72.0637 48.4153 70.3698 52.4288 66.751 55.3618C65.3651 56.4809 63.5557 56.8283 61.9773 57.6387C61.3999 57.9088 60.2449 57.9088 60.6299 58.835C60.8994 59.5297 61.9773 59.3753 62.6703 59.1051C64.5952 58.3719 66.5585 57.6773 68.2909 56.5195C70.3313 55.1688 70.2928 55.1688 70.7163 57.7159C71.1398 60.2243 70.7163 62.6556 70.0233 65.0482C69.2149 67.9812 68.4064 70.8755 69.5614 73.8857C69.7539 74.3873 69.5229 74.6575 69.0994 74.9662C62.1698 80.1761 54.3548 82.7617 45.6543 82.7231C41.1116 82.6845 36.5689 81.9127 32.2571 80.369C31.2562 80.0217 31.1022 79.52 31.4487 78.5938C33.0656 74.4259 34.644 70.2581 36.2994 66.0902C36.9154 64.5079 37.9548 63.1572 38.8787 61.768C39.3022 61.1505 39.9567 60.8804 40.6881 60.8032C41.4966 60.726 42.2665 60.5716 43.075 60.5716C48.0412 60.6874 51.0055 57.7159 53.4308 53.8953C53.8158 53.2778 54.0853 52.6604 53.3538 52.1973C52.5839 51.7342 52.1219 52.3131 51.7754 52.8919C48.9266 57.4457 44.8459 59.0666 39.6487 58.1018C35.029 57.2528 30.4093 57.9474 25.7895 58.179C21.1313 58.4105 17.4355 56.4037 14.5097 52.8533C13.7783 51.9657 14.0862 51.6956 15.1642 51.5412C19.8609 50.808 24.5191 51.6956 29.1388 52.1587C31.0252 52.3516 32.9116 52.506 34.798 52.699C38.8787 53.0849 42.536 51.85 46.0778 49.9204C50.0431 47.7593 49.3501 41.3531 46.6553 39.0376C45.2308 37.8799 43.6139 36.9151 41.4196 36.8765ZM47.0402 20.5909C45.1923 20.5523 42.8055 21.7487 41.6891 23.1765C41.4196 23.5239 41.3041 23.9098 41.5351 24.2571C41.7661 24.6816 42.151 24.4501 42.459 24.2571C42.921 23.9098 43.0365 24.3729 43.2675 24.5658C44.8074 25.9551 46.8092 25.5692 47.6562 23.7554C47.9642 23.0994 47.7717 22.2118 48.8111 21.903C49.0806 21.8258 48.9651 21.2856 48.5801 21.0926C48.0797 20.7839 47.5792 20.6295 47.0402 20.5909ZM26.829 40.4655C27.9839 40.2725 29.0233 39.9252 29.6778 38.9218C29.9858 38.4587 29.9858 38.0342 29.6393 37.6097C29.2543 37.1852 28.9463 37.2238 28.4844 37.4554C27.8684 37.7641 27.1754 38.0728 26.521 38.1886C24.8271 38.3816 23.0947 38.6517 21.8243 37.0309C21.5548 36.6835 21.3238 36.0275 20.7463 36.3748C20.2074 36.7221 20.7848 37.2624 20.8618 37.6869C20.9003 37.957 21.2083 38.1886 21.4008 38.4201C22.8252 40.1568 24.9811 39.9252 26.829 40.4655ZM24.7501 32.863C23.9031 32.9788 23.0177 33.0174 22.9022 34.1365C22.8252 34.9855 24.2496 36.9537 24.9426 36.9923C25.674 37.0309 26.521 35.9889 26.4825 34.9855C26.444 33.7892 25.7125 32.863 24.7501 32.863Z" fill="#E8EAF0"/>
<path d="M31.7568 59.7997C33.1812 59.9155 34.5671 60.0313 35.9915 60.1085C36.6075 60.1471 36.7615 60.34 36.492 60.9189C35.1831 63.7361 33.8742 66.5146 32.6037 69.3318C32.3727 69.8335 32.1033 70.0265 31.4873 69.7949C30.2939 69.3704 29.0619 69.7563 27.83 69.9107C27.4835 69.9879 27.1756 70.258 27.1371 70.6439C27.0601 71.0298 27.368 71.3 27.7145 71.4543C28.0225 71.6473 28.446 71.7631 28.754 71.9946C30.1784 72.9208 30.5634 74.04 30.0244 75.6222C28.8695 79.0183 28.8695 79.0183 25.7511 77.1659L24.5192 76.4326C20.631 74.1172 20.015 72.8822 20.8619 68.4828C21.4009 65.6656 22.9023 63.3116 24.7887 61.2662C26.3286 59.5682 28.446 59.7226 30.4864 59.7611C30.9098 59.7226 31.3333 59.7997 31.7568 59.7997Z" fill="#E8EAF0"/>
<path d="M37.3387 7.62413C36.7227 8.62751 36.4917 9.78525 36.6842 10.943C36.7997 11.9464 36.4147 12.641 35.6833 13.2585C34.7593 14.1075 33.6814 14.8407 32.565 15.4196C30.4476 16.423 29.6391 18.2368 29.5622 20.3207C29.5237 22.5976 28.7152 24.2956 26.7518 25.4148C26.0204 25.8007 25.6354 26.6883 24.7499 26.8041C23.7105 27.9232 22.4016 28.2319 20.9387 28.1934C20.0147 28.1548 19.0908 28.1934 18.1668 28.1934C16.2805 28.1934 15.0485 29.0424 14.4326 30.779C13.9706 32.0525 13.3161 33.1331 12.1997 33.9821C11.5452 34.4452 11.0833 35.1398 10.8523 35.9116C9.85135 39.7322 8.61943 43.5141 8.23445 47.4505C8.04196 49.4958 8.54243 51.1938 10.5828 52.0814C10.7753 52.1586 10.9293 52.313 11.0063 52.5059C13.2391 56.751 16.8194 59.4138 21.3237 60.8417C22.4401 61.189 22.3631 61.5363 21.7471 62.2696C21.2467 62.887 20.7462 63.5045 20.2457 64.122C18.8983 65.8586 18.1668 67.7882 18.3593 70.0265C18.3978 70.4124 18.4748 70.7983 18.1668 71.2614C16.396 69.8335 15.0485 68.0969 13.7396 66.3603C8.88891 59.8769 6.42506 52.5445 6.23257 44.4789C6.11708 36.1818 8.46544 28.5407 13.5086 21.903C16.4729 17.9666 20.0147 14.532 24.4805 12.2551C28.3687 9.74666 32.6035 8.35737 37.3387 7.62413ZM65.0955 13.8759C71.7556 20.7066 77.3377 28.4635 81.7265 36.9536C82.15 30.7404 71.1781 15.4968 65.0955 13.8759ZM43.0748 7.00667C41.9584 7.00667 40.8035 6.96808 39.687 7.00667C39.3021 7.00667 38.6091 7.12244 38.8786 7.70132C39.3791 8.6661 39.918 9.66948 40.7265 10.3641C41.3424 10.8658 42.3049 10.3641 43.0748 10.1326L48.6185 9.51511H56.472C53.8927 8.16441 51.1208 7.70132 48.349 7.50836C46.5781 7.66272 44.8842 6.77512 43.0748 7.00667Z" fill="#0F64F8"/>
<path d="M47.0396 20.5909C47.5785 20.6295 48.079 20.7839 48.541 21.054C48.9645 21.2855 49.0415 21.7872 48.772 21.8644C47.771 22.1346 47.925 23.0608 47.617 23.7168C46.7701 25.5306 44.7682 25.9165 43.2283 24.5272C42.9973 24.3343 42.8818 23.8712 42.4199 24.2185C42.1504 24.4115 41.7654 24.6816 41.4959 24.2185C41.2649 23.8712 41.3804 23.4853 41.6499 23.1379C42.8048 21.7101 45.2302 20.5523 47.0396 20.5909Z" fill="#141618"/>
<path d="M26.8291 40.4654C24.9813 39.9251 22.7869 40.1181 21.3625 38.3815C21.17 38.1499 20.862 37.9184 20.8235 37.6483C20.7465 37.2237 20.169 36.6835 20.708 36.3361C21.2855 35.9888 21.5165 36.6835 21.7859 36.9922C23.0564 38.613 24.7888 38.3429 26.4827 38.1499C27.1756 38.0728 27.8301 37.7254 28.446 37.4167C28.908 37.1852 29.2545 37.1466 29.601 37.5711C29.9475 37.9956 29.9475 38.4587 29.6395 38.8832C29.0235 39.9251 28.0226 40.2725 26.8291 40.4654Z" fill="#141618"/>
<path d="M24.7503 32.8629C25.7127 32.8629 26.4442 33.7891 26.4827 34.9854C26.4827 35.9502 25.6742 37.0308 24.9428 36.9922C24.2498 36.9536 22.8254 34.9854 22.9024 34.1364C23.0179 33.0173 23.9034 32.9787 24.7503 32.8629Z" fill="#141618"/>
</g>
<defs>
<clipPath id="clip0_584_2558">
<rect width="82" height="80" fill="white" transform="translate(4 5)"/>
</clipPath>
</defs>
</svg>
