<svg viewBox="0 0 90 90" fill="none" xmlns="http://www.w3.org/2000/svg">
<path d="M30.4688 78.9521C5.34039 78.9521 0.232794 66.9477 0.00796005 46.8469C-0.00100284 46.0456 0.641619 45.3913 1.44298 45.3913H59.5833C62.2917 45.3913 66.3836 43.2978 64.3229 38.3995C61.6667 32.0857 64.6354 23.1658 67.3438 20.3691C70.7292 23.1658 73.8021 29.7339 73.8021 33.929C77.1875 33.929 82.5 32.9226 90 37.1495C84.1667 47.9868 68.6979 44.2684 68.6979 44.2684C68.6979 59.6504 56.1979 78.9521 30.4688 78.9521Z" fill="url(#paint0_linear_575_2541)"/>
<rect x="38.333" y="28.7381" width="13.3333" height="13.3904" rx="0.725492" fill="#00D2A0"/>
<rect x="5" y="28.7381" width="13.3333" height="13.3904" rx="0.725492" fill="#00D2A0"/>
<rect x="21.666" y="28.7381" width="13.3333" height="13.3904" rx="0.725492" fill="#00D2A0"/>
<rect x="21.666" y="12.0001" width="13.3333" height="13.3904" rx="0.725492" fill="#00D2A0"/>
<rect x="38.333" y="12.0001" width="13.3333" height="13.3904" rx="0.725492" fill="#00D2A0"/>
<path d="M31.1515 64.1721C33.7296 64.1721 35.8195 62.0732 35.8195 59.484C35.8195 56.8949 33.7296 54.796 31.1515 54.796C28.5734 54.796 26.4834 56.8949 26.4834 59.484C26.4834 62.0732 28.5734 64.1721 31.1515 64.1721Z" fill="#141618"/>
<path d="M31.1552 58.8324C32.8024 58.8324 34.1376 58.0162 34.1376 57.0093C34.1376 56.0024 32.8024 55.1862 31.1552 55.1862C29.5081 55.1862 28.1729 56.0024 28.1729 57.0093C28.1729 58.0162 29.5081 58.8324 31.1552 58.8324Z" fill="url(#paint1_linear_575_2541)" fill-opacity="0.8"/>
<path d="M27.7895 70.3906C21.8907 72.7842 10.4999 75.2756 3.78458 67.0333C1.2149 64.4945 4.09014 74.2846 11.2851 76.2393C19.1153 78.3667 28.0027 76.1032 29.4585 71.5583C29.7601 70.6167 28.7054 70.019 27.7895 70.3906Z" fill="#141618"/>
<defs>
<linearGradient id="paint0_linear_575_2541" x1="31.5" y1="4.5" x2="43.6173" y2="87.2922" gradientUnits="userSpaceOnUse">
<stop stop-color="#7E78DB"/>
<stop offset="1" stop-color="#453FA7"/>
</linearGradient>
<linearGradient id="paint1_linear_575_2541" x1="31.1552" y1="55.1862" x2="31.1552" y2="58.8324" gradientUnits="userSpaceOnUse">
<stop stop-color="white"/>
<stop offset="1" stop-color="white" stop-opacity="0"/>
</linearGradient>
</defs>
</svg>
