<svg viewBox="0 0 90 90" fill="none" xmlns="http://www.w3.org/2000/svg">
<path d="M42.8045 35.0086C43.4914 33.9879 44.2434 33.8581 44.8534 33.8581C45.4635 33.8581 46.4798 33.9879 47.167 35.0086C52.5817 42.5063 61.5196 57.442 68.1128 68.4594C72.4124 75.6443 75.7147 81.1626 76.3923 81.8648C78.9356 84.5012 82.4238 82.8582 84.4507 79.8678C86.4462 76.9238 87 74.8566 87 72.6512C87 71.1491 58.0906 16.9472 55.1792 12.4355C52.3793 8.09609 51.4673 7 46.6752 7H43.0892C38.3113 7 37.6209 8.09609 34.8208 12.4355C31.9096 16.9472 3 71.1491 3 72.6512C3 74.8566 3.55397 76.9238 5.54947 79.8678C7.57636 82.8582 11.0645 84.5012 13.6078 81.8648C14.2854 81.1626 17.5878 75.6443 21.8874 68.4594C28.4805 57.442 37.3897 42.5063 42.8045 35.0086Z" fill="#F5F5F5"/>
</svg>
