<svg viewBox="0 0 90 90" fill="none" xmlns="http://www.w3.org/2000/svg">
<g clip-path="url(#clip0_584_2749)">
<path fill-rule="evenodd" clip-rule="evenodd" d="M62.5368 13.8619H72.6699C81.6828 13.8619 89 21.1791 89 30.192V65.823C89 74.8359 81.6828 82.1531 72.6699 82.1531H71.8711C67.2324 81.4275 65.2205 80.0364 63.6665 78.8607L50.7832 68.2675C50.46 68.0075 50.0575 67.8657 49.6427 67.8657C49.2278 67.8657 48.8253 68.0075 48.5021 68.2675L44.3166 71.7096L32.5288 62.0169C32.206 61.7563 31.8038 61.6142 31.389 61.6142C30.9742 61.6142 30.5719 61.7563 30.2492 62.0169L13.8728 76.4231C10.5767 79.1037 8.39674 78.6089 6.98295 78.4534C3.33121 75.4567 1 70.9097 1 65.823V30.192C1 21.1791 8.31717 13.8619 17.3316 13.8619H27.4422L27.4237 13.9025L27.0828 14.8963L26.9769 15.2373L26.5179 17.2723L26.4547 17.6296L26.2534 19.6678L26.2265 20.2274L26.2223 20.4235L26.2412 21.3583L26.2876 21.9058L26.4009 22.7636L26.5458 23.5351L26.7176 24.2459L26.9405 25.0153L27.5191 26.6446L27.7098 27.1331L28.7174 29.2619L29.0731 29.9159L30.2381 31.9156L30.6839 32.637L32.3101 35.0315L32.5451 35.3487L34.6608 38.1025L35.3442 38.9498L37.7603 41.7743L38.2567 42.3176L40.248 44.4601L41.0368 45.2769L42.3405 46.5716L42.0786 46.7903L41.9158 46.9373C41.4725 47.3505 41.0531 47.7885 40.6595 48.2494C40.4704 48.4723 40.2902 48.7026 40.1194 48.9397C39.8586 49.3017 39.6252 49.6827 39.4218 50.08C39.3174 50.286 39.2241 50.4973 39.1419 50.7134C38.9296 51.2648 38.802 51.8453 38.7636 52.4349L38.7562 52.944C38.7747 53.6617 38.9206 54.3704 39.1878 55.037C39.4584 55.7128 39.8532 56.3319 40.3518 56.8623C40.7145 57.2486 41.1273 57.5846 41.5791 57.8614C41.9643 58.097 42.3748 58.2914 42.8011 58.4389C43.7285 58.7535 44.7123 58.8652 45.6866 58.7672H45.6919C46.5231 58.6866 47.331 58.4467 48.0716 58.0606C48.3911 57.8917 48.6951 57.6949 48.98 57.4725C49.7965 56.837 50.4293 55.9957 50.8133 55.0349C51.1131 54.2856 51.2601 53.4851 51.2469 52.6789L51.2238 52.2579C51.169 51.7014 51.0361 51.1554 50.8291 50.6359C50.7395 50.4099 50.6373 50.1891 50.5235 49.9736C50.3127 49.5773 50.0724 49.1974 49.8058 48.8364C49.6835 48.6715 49.557 48.5097 49.4263 48.3511C48.9911 47.8318 48.5227 47.3413 48.0241 46.8825L47.6716 46.5827L48.2687 45.993L50.8343 43.3135L51.7217 42.3392L53.1013 40.7873L53.9987 39.7376L55.2781 38.1794L56.1444 37.0903L57.4164 35.3893L58.0588 34.5093L58.9699 33.1471L59.7287 31.9862L61.1583 29.4964L61.9761 27.8629L61.9998 27.8128L62.6258 26.2973C62.6337 26.2778 62.6411 26.2578 62.6469 26.2373L63.3214 24.1342L63.392 23.8275L63.6845 22.1534L63.7414 21.7003L63.7588 21.4226L63.7788 20.3745L63.7735 20.179L63.7198 19.2405L63.6534 18.5117L63.3214 16.4097C63.3164 16.3815 63.3099 16.3535 63.3019 16.3259L62.8756 14.772L62.7286 14.3399L62.5368 13.8619ZM67.3536 58.2946C65.2421 58.3241 63.5137 60.0525 63.4842 62.1634C63.5153 64.2743 65.2426 66.0017 67.3536 66.0317C69.464 66.0011 71.1919 64.2743 71.224 62.1634C71.1934 60.0525 69.4651 58.3241 67.3536 58.2946Z" fill="url(#paint0_radial_584_2749)"/>
<path fill-rule="evenodd" clip-rule="evenodd" d="M39.2035 80.762L38.5206 81.3363C37.8887 81.8565 37.0979 82.1447 36.2795 82.1531H17.3321C13.5578 82.1579 9.89922 80.85 6.9834 78.4534C8.39719 78.6089 10.5772 79.1037 13.8732 76.4231L30.2497 62.0169C30.5724 61.7563 30.9746 61.6142 31.3894 61.6142C31.8042 61.6142 32.2065 61.7563 32.5292 62.0169L44.317 71.7096L48.5025 68.2675C48.8258 68.0075 49.2282 67.8657 49.6431 67.8657C50.058 67.8657 50.4604 68.0075 50.7837 68.2675L63.667 78.8607C65.221 80.0364 67.2328 81.4275 71.8715 82.1531H63.3013C62.5442 82.1436 61.8088 81.8987 61.1972 81.4523L61.047 81.3363L60.411 80.8078C60.3604 80.7458 60.3039 80.6888 60.2424 80.6376C56.9612 77.9138 53.6785 75.1917 50.3943 72.4715C50.2012 72.3113 49.958 72.2239 49.7071 72.2245C49.4562 72.225 49.2134 72.3136 49.0211 72.4747C49.0211 72.4747 49.0442 72.5021 39.3326 80.6376C39.2852 80.6771 39.242 80.7187 39.2035 80.762ZM67.354 58.2946C65.2426 58.3241 63.5142 60.0525 63.4847 62.1634C63.5158 64.2743 65.2431 66.0017 67.354 66.0317C69.4645 66.0011 71.1923 64.2743 71.2245 62.1634C71.1939 60.0525 69.4655 58.3241 67.354 58.2946ZM42.341 46.5716L41.0373 45.2769L40.2485 44.4601L38.2571 42.3176L37.7607 41.7743L35.3447 38.9498L34.6612 38.102L32.5456 35.3487L32.3105 35.0315L30.6844 32.637L30.2386 31.9156L29.0735 29.9159L28.7178 29.2619L27.7103 27.1331L27.5195 26.6446L26.941 25.0153L26.7181 24.2459L26.5463 23.5351L26.4014 22.7631L26.2881 21.9058L26.2417 21.3583L26.2227 20.4235L26.2269 20.2274L26.2538 19.6678L26.4551 17.6291L26.5183 17.2723L26.9773 15.2373L27.0832 14.8963L27.4242 13.9025L27.5332 13.6454L28.076 12.4534L28.4522 11.7441L28.976 10.88L29.4982 10.1106L29.8702 9.6216L30.2987 9.1052L30.7703 8.58616L31.1744 8.17988L32.1583 7.31411L32.8775 6.72551C32.8949 6.71075 32.9128 6.69758 32.9313 6.68493L33.7823 6.10951L34.4584 5.67847L35.7425 5.0024C35.762 4.99028 35.7842 4.98079 35.8047 4.97131L37.6258 4.21566L37.7939 4.15243L39.4127 3.67871L40.0962 3.52537L41.0204 3.33988L41.6333 3.24661L42.5733 3.12963L43.2141 3.07272L44.4867 3.00527L44.9852 3L45.9289 3.0195L46.1745 3.0332L47.5424 3.14702L49.3514 3.40206L49.5606 3.4458L51.3486 3.89054L51.8734 4.04704L52.4567 4.24886L53.1671 4.5176L53.7288 4.75578L54.554 5.14467L55.0741 5.41183L56.0089 5.96038L56.3572 6.17485L57.6314 7.10491L57.9971 7.42213L58.8855 8.23152L58.9292 8.27526L59.6828 9.08359L59.942 9.37605L60.8262 10.5511L61.0064 10.832L61.7083 12.0171L61.9196 12.4234L62.3154 13.3076L62.729 14.3399L62.876 14.772L63.3023 16.3259C63.3103 16.3533 63.3166 16.3813 63.3218 16.4097L63.6538 18.5112L63.7202 19.2405L63.774 20.179L63.7792 20.3745L63.7592 21.4226L63.7418 21.7003L63.6849 22.1534L63.3925 23.8275L63.3218 24.1342L62.6473 26.2373C62.6413 26.2576 62.6343 26.2777 62.6263 26.2973L62.0003 27.8128L61.9765 27.8629L61.1587 29.4964L59.7291 31.9862L58.9703 33.1471L58.0592 34.5093L57.4169 35.3893L56.1448 37.0902L55.2785 38.1794L53.9991 39.7376L53.1017 40.7873L51.7222 42.3392L50.8348 43.3135L48.2691 45.993L47.6721 46.5827L48.0246 46.8825C48.5231 47.3415 48.9915 47.831 49.4268 48.3511C49.5575 48.5097 49.684 48.6715 49.8062 48.8364C50.0728 49.1974 50.3131 49.5773 50.5239 49.9736C50.6377 50.188 50.7394 50.4099 50.8295 50.6359C51.0345 51.155 51.1726 51.7035 51.2242 52.2579L51.2474 52.6789C51.2606 53.4851 51.113 54.2861 50.8137 55.0349C50.4299 55.9956 49.7971 56.8368 48.9805 57.472C48.6954 57.6954 48.3914 57.8914 48.072 58.0606C47.3315 58.4467 46.5236 58.6866 45.6923 58.7672H45.6871C44.7128 58.8654 43.7288 58.7534 42.8015 58.4389C42.3746 58.2909 41.9649 58.0973 41.5795 57.8614C41.1277 57.5846 40.7149 57.2486 40.3523 56.8623C39.8537 56.3319 39.4588 55.7128 39.1882 55.037C38.9212 54.3705 38.775 53.6617 38.7567 52.9439L38.764 52.4349C38.8025 51.8453 38.93 51.2646 39.1424 50.7134C39.2251 50.4968 39.3184 50.2855 39.4222 50.08C39.6256 49.6822 39.8596 49.3017 40.1199 48.9397C40.2901 48.7026 40.4714 48.4723 40.66 48.2494C41.0535 47.7885 41.4729 47.3505 41.9162 46.9373L42.0791 46.7903L42.341 46.5716Z" fill="#24175B"/>
<path fill-rule="evenodd" clip-rule="evenodd" d="M38.5198 81.3363L49.0203 72.4746C49.2126 72.3135 49.4554 72.225 49.7063 72.2244C49.9572 72.2238 50.2004 72.3113 50.3935 72.4715L61.0462 81.3363C61.6941 81.8636 62.5036 82.152 63.339 82.1531H36.2402C37.0718 82.1534 37.8776 81.8646 38.5198 81.3363ZM45.056 49.7016L45.1588 49.7316C45.192 49.7475 45.2199 49.7712 45.25 49.7917L45.3359 49.8676C45.5477 50.0626 45.7537 50.2676 45.9519 50.4773C46.0915 50.6264 46.2274 50.7797 46.3581 50.9384C46.5241 51.1386 46.6796 51.3488 46.8213 51.5675C46.8824 51.664 46.9393 51.7614 46.9926 51.8631C47.0389 51.9511 47.0806 52.0423 47.1169 52.1345C47.1812 52.2952 47.2297 52.4649 47.2445 52.6372L47.2413 52.9608C47.2199 53.253 47.1293 53.5359 46.977 53.7862C46.8248 54.0365 46.6152 54.247 46.3655 54.4004C46.0416 54.5963 45.6775 54.7161 45.3005 54.7508L44.9006 54.7624L44.5628 54.7329C44.405 54.7095 44.2496 54.6718 44.0986 54.6201C43.9449 54.5679 43.7975 54.4988 43.6591 54.4141L43.3956 54.2212C43.0852 53.956 42.8736 53.5934 42.7954 53.1926C42.7824 53.1251 42.7721 53.0571 42.7644 52.9887L42.7549 52.6799C42.7601 52.5967 42.7728 52.5139 42.7912 52.4312C42.8371 52.2515 42.9035 52.0766 42.9873 51.9106C43.0953 51.7019 43.2186 51.5017 43.3561 51.3114C43.5843 51.0026 43.8319 50.7091 44.0965 50.4314C44.2672 50.2512 44.4416 50.0768 44.6239 49.9082L44.7536 49.7917C44.8437 49.7316 44.8447 49.7316 44.9475 49.7016H45.056ZM44.3926 6.66539L44.4342 6.66223V42.7496L44.3441 42.5836C43.1562 40.386 42.0505 38.1449 41.0291 35.8651C40.2003 34.0202 39.4498 32.1412 38.7796 30.2331C38.2437 28.7127 37.7909 27.1644 37.4232 25.5949C37.1382 24.3487 36.9195 23.084 36.8299 21.8061C36.7953 21.2609 36.7849 20.7145 36.7988 20.1684C36.8072 19.6926 36.8267 19.2178 36.8562 18.743C36.9037 17.9958 36.9795 17.2507 37.0891 16.5114C37.1761 15.9296 37.2831 15.3495 37.4159 14.7761C37.5212 14.3203 37.643 13.8682 37.7826 13.4235C37.9839 12.7806 38.2252 12.1525 38.5061 11.5391C38.6089 11.3183 38.7195 11.0986 38.8349 10.8831C39.5315 9.59258 40.4769 8.40432 41.7152 7.60863C42.5197 7.08524 43.4377 6.76183 44.3926 6.66539ZM49.0719 6.75656L51.4995 7.44896C52.6289 7.86122 53.704 8.40903 54.7013 9.08039C56.0569 9.99558 57.2253 11.1611 58.1438 12.5145C58.6829 13.3188 59.1303 14.181 59.4775 15.0849C59.9826 16.4212 60.295 17.8225 60.4055 19.2468C60.4376 19.6198 60.456 19.994 60.4634 20.3676C60.4719 20.7148 60.4697 21.0637 60.4418 21.4109C60.3728 22.1879 60.2267 22.9561 60.0055 23.7042C59.8278 24.3167 59.6178 24.9193 59.3763 25.5095C59.0765 26.2434 58.7433 26.9633 58.3778 27.6668C57.5684 29.2298 56.6367 30.7247 55.6403 32.1706C54.4047 33.9478 53.0875 35.6667 51.6929 37.3221C50.1782 39.1281 48.5986 40.8787 46.9573 42.5705C48.0712 40.4822 49.1109 38.3549 50.0742 36.1933C50.6097 34.9889 51.115 33.7713 51.5896 32.5416C52.1119 31.1913 52.5828 29.8216 53.0013 28.4356C53.3142 27.3973 53.5849 26.3468 53.8128 25.2866C54.0067 24.3766 54.159 23.4571 54.2534 22.5317C54.3324 21.7603 54.3614 20.9841 54.3424 20.21C54.3351 19.7363 54.3176 19.2628 54.2897 18.7899C54.1759 16.8866 53.8866 14.9896 53.3317 13.1642C53.1213 12.4721 52.8656 11.7945 52.5661 11.136C51.8558 9.58836 50.864 8.14137 49.5224 7.0859L49.0719 6.75656Z" fill="white"/>
</g>
<defs>
<radialGradient id="paint0_radial_584_2749" cx="0" cy="0" r="1" gradientUnits="userSpaceOnUse" gradientTransform="translate(47.7243 47.7103) scale(63.7484 63.7484)">
<stop stop-color="#BA7BF0"/>
<stop offset="0.45" stop-color="#996BEC"/>
<stop offset="1" stop-color="#5046E4"/>
</radialGradient>
<clipPath id="clip0_584_2749">
<rect width="88" height="79.5689" fill="white" transform="translate(1 3)"/>
</clipPath>
</defs>
</svg>
