<svg viewBox="0 0 90 90" fill="none" xmlns="http://www.w3.org/2000/svg">
<path d="M87.366 22.1957C87.3966 22.3088 87.4125 22.4255 87.4125 22.5426V40.7558C87.4125 41.2317 87.158 41.6711 86.7452 41.9079L71.4585 50.709V68.1537C71.4585 68.6284 71.2062 69.0667 70.7945 69.3057L38.8849 87.675C38.8119 87.7165 38.7322 87.743 38.6525 87.7712C38.6226 87.7812 38.5944 87.7995 38.5629 87.8078C38.3398 87.8665 38.1053 87.8665 37.8823 87.8078C37.8458 87.7978 37.8126 87.7779 37.7777 87.7646C37.7047 87.738 37.6283 87.7148 37.5586 87.675L5.65559 69.3057C5.24308 69.0687 4.98828 68.6294 4.98828 68.1537V13.514C4.98828 13.3945 5.00488 13.2783 5.03476 13.1655C5.04472 13.1273 5.06796 13.0924 5.08124 13.0542C5.10614 12.9845 5.12938 12.9131 5.1659 12.8484C5.1908 12.8052 5.22732 12.7704 5.2572 12.7305C5.29538 12.6774 5.33024 12.6226 5.37505 12.5762C5.41323 12.538 5.46303 12.5098 5.50619 12.4766C5.55433 12.4367 5.59749 12.3936 5.65227 12.362H5.65393L21.6063 3.1774C22.0173 2.94087 22.5232 2.94087 22.9342 3.1774L38.8866 12.362H38.8899C38.943 12.3952 38.9878 12.4367 39.036 12.4749C39.0791 12.5081 39.1273 12.538 39.1654 12.5745C39.2119 12.6226 39.2451 12.6774 39.285 12.7305C39.3132 12.7704 39.3514 12.8052 39.3746 12.8484C39.4128 12.9148 39.4344 12.9845 39.4609 13.0542C39.4742 13.0924 39.4974 13.1273 39.5074 13.1671C39.538 13.2802 39.5536 13.3969 39.5539 13.514V47.6414L52.8469 39.9873V22.541C52.8469 22.4248 52.8635 22.3069 52.8934 22.1957C52.905 22.1559 52.9266 22.121 52.9399 22.0828C52.9664 22.0131 52.9897 21.9417 53.0262 21.877C53.0511 21.8338 53.0876 21.799 53.1158 21.7591C53.1557 21.706 53.1889 21.6512 53.2354 21.6048C53.2735 21.5666 53.3217 21.5384 53.3648 21.5052C53.4146 21.4653 53.4578 21.4222 53.5109 21.3906H53.5126L69.4666 12.206C69.8775 11.9691 70.3836 11.9691 70.7945 12.206L86.7469 21.3906C86.8033 21.4238 86.8465 21.4653 86.8963 21.5035C86.9378 21.5367 86.9859 21.5666 87.0241 21.6031C87.0706 21.6512 87.1038 21.706 87.1436 21.7591C87.1735 21.799 87.21 21.8338 87.2332 21.877C87.2714 21.9417 87.293 22.0131 87.3196 22.0828C87.3345 22.121 87.3561 22.1559 87.366 22.1957ZM84.7532 39.9873V24.8417L79.1708 28.0554L71.4585 32.4958V47.6414L84.7549 39.9873H84.7532ZM68.8009 67.3851V52.2296L61.2148 56.5621L39.5522 68.9256V84.2239L68.8009 67.3851ZM7.64756 15.8131V67.3851L36.8929 84.2222V68.9272L21.6146 60.2804L21.6096 60.2771L21.6029 60.2738C21.5515 60.2439 21.5083 60.2008 21.4602 60.1642C21.4187 60.131 21.3705 60.1045 21.334 60.068L21.3307 60.063C21.2875 60.0215 21.2577 59.97 21.2211 59.9235C21.1879 59.8787 21.1481 59.8406 21.1215 59.7941L21.1199 59.7891C21.09 59.7393 21.0717 59.6795 21.0502 59.6231C21.0286 59.5733 21.0004 59.5268 20.9871 59.4737V59.472C20.9705 59.409 20.9672 59.3426 20.9605 59.2778C20.9539 59.228 20.9406 59.1782 20.9406 59.1284V59.1251V23.4672L13.23 19.0252L7.64756 15.8148V15.8131ZM22.2719 5.86324L8.98051 13.514L22.2686 21.1649L35.5583 13.5124L22.2686 5.86324H22.2719ZM29.184 53.6107L36.8946 49.1719V15.8131L31.3121 19.0268L23.5999 23.4672V56.826L29.184 53.6107ZM70.1306 14.8918L56.8408 22.5426L70.1306 30.1934L83.4186 22.541L70.1306 14.8918ZM68.8009 32.4958L61.0887 28.0554L55.5062 24.8417V39.9873L63.2168 44.426L68.8009 47.6414V32.4958ZM38.2209 66.6265L57.714 55.4981L67.458 49.9372L54.1782 42.2913L38.8882 51.0942L24.9528 59.1168L38.2209 66.6265Z" fill="#FF2D20"/>
</svg>
