<svg width="90" height="90" viewBox="0 0 90 90" fill="none" xmlns="http://www.w3.org/2000/svg">
<path fill-rule="evenodd" clip-rule="evenodd" d="M2 16.7672C2 8.60672 8.63866 2 16.827 2H73.1761C81.3644 2 88 8.60978 88 16.7672V64.4886C88 72.9244 77.281 76.5856 72.0819 69.9269L55.8276 49.1004V74.3528C55.8276 81.6936 49.8522 87.6427 42.4799 87.6427H16.827C8.63866 87.6427 2 81.0329 2 72.8755V16.7672ZM16.827 13.8126C16.0428 13.8126 15.2905 14.1235 14.7348 14.6772C14.1792 15.231 13.8654 15.9825 13.8622 16.7672V72.8755C13.8622 74.5088 15.1917 75.8301 16.827 75.8301H42.9262C43.7453 75.8301 43.9654 75.1695 43.9654 74.3528V40.4933C43.9654 32.0514 54.6844 28.3932 59.8835 35.052L76.1409 55.8784V16.7672C76.1409 15.1339 76.2937 13.8126 74.6585 13.8126H16.827Z" fill="#12FFF7"/>
<path fill-rule="evenodd" clip-rule="evenodd" d="M2 16.7672C2 8.60672 8.63866 2 16.827 2H73.1761C81.3644 2 88 8.60978 88 16.7672V64.4886C88 72.9244 77.281 76.5856 72.0819 69.9269L55.8276 49.1004V74.3528C55.8276 81.6936 49.8522 87.6427 42.4799 87.6427H16.827C8.63866 87.6427 2 81.0329 2 72.8755V16.7672ZM16.827 13.8126C16.0428 13.8126 15.2905 14.1235 14.7348 14.6772C14.1792 15.231 13.8654 15.9825 13.8622 16.7672V72.8755C13.8622 74.5088 15.1917 75.8301 16.827 75.8301H42.9262C43.7453 75.8301 43.9654 75.1695 43.9654 74.3528V40.4933C43.9654 32.0514 54.6844 28.3932 59.8835 35.052L76.1409 55.8784V16.7672C76.1409 15.1339 76.2937 13.8126 74.6585 13.8126H16.827Z" fill="url(#paint0_linear_824_585)"/>
<path fill-rule="evenodd" clip-rule="evenodd" d="M2 16.7672C2 8.60672 8.63866 2 16.827 2H73.1761C81.3644 2 88 8.60978 88 16.7672V64.4886C88 72.9244 77.281 76.5856 72.0819 69.9269L55.8276 49.1004V74.3528C55.8276 81.6936 49.8522 87.6427 42.4799 87.6427H16.827C8.63866 87.6427 2 81.0329 2 72.8755V16.7672ZM16.827 13.8126C16.0428 13.8126 15.2905 14.1235 14.7348 14.6772C14.1792 15.231 13.8654 15.9825 13.8622 16.7672V72.8755C13.8622 74.5088 15.1917 75.8301 16.827 75.8301H42.9262C43.7453 75.8301 43.9654 75.1695 43.9654 74.3528V40.4933C43.9654 32.0514 54.6844 28.3932 59.8835 35.052L76.1409 55.8784V16.7672C76.1409 15.1339 76.2937 13.8126 74.6585 13.8126H16.827Z" fill="url(#paint1_linear_824_585)"/>
<path d="M73.1766 2C81.3649 2 88.0005 8.60978 88.0005 16.7672V64.4886C88.0005 72.9244 77.2815 76.5856 72.0824 69.9269L55.825 49.1004V74.3528C55.825 81.6936 49.8527 87.6427 42.4805 87.6427C42.6747 87.6431 42.8672 87.6052 43.0468 87.5312C43.2265 87.4572 43.3898 87.3485 43.5274 87.2113C43.6651 87.0741 43.7744 86.9111 43.8491 86.7317C43.9238 86.5522 43.9625 86.3598 43.9629 86.1654V40.4903C43.9629 32.0545 54.685 28.3932 59.8871 35.055L76.1414 55.8784V4.95161C76.1374 4.16739 75.8232 3.41667 75.2677 2.86357C74.7121 2.31047 73.9603 1.99999 73.1766 2Z" fill="#B9FFB3"/>
<defs>
<linearGradient id="paint0_linear_824_585" x1="88.0031" y1="87.6427" x2="12.7374" y2="1.6865" gradientUnits="userSpaceOnUse">
<stop stop-color="#B9FFB3"/>
<stop offset="1" stop-color="#B9FFB3" stop-opacity="0"/>
</linearGradient>
<linearGradient id="paint1_linear_824_585" x1="88.003" y1="87.6427" x2="36.9778" y2="67.7128" gradientUnits="userSpaceOnUse">
<stop stop-color="#1A1A1A" stop-opacity="0.9"/>
<stop offset="1" stop-color="#1A1A1A" stop-opacity="0"/>
</linearGradient>
</defs>
</svg>
