<svg width="90" height="90" viewBox="0 0 90 90" fill="none" xmlns="http://www.w3.org/2000/svg">
<path d="M24.3218 71.3067H23.4721L19.2305 67.0534V66.2014L25.7148 59.6992H30.2072L30.8061 60.2998V64.8045L24.3218 71.3067Z" fill="#05BDBA"/>
<path d="M19.2305 23.2006V22.3485L23.4721 18.0952H24.3218L30.8061 24.5974V29.1021L30.2072 29.7028H25.7148L19.2305 23.2006Z" fill="#05BDBA"/>
<path d="M56.5678 57.5969H50.397L49.8816 57.0801V42.5951C49.8816 40.0181 48.8717 38.0206 45.7723 37.9508C44.1774 37.9088 42.3525 37.9508 40.4024 38.0275L40.1099 38.3279V57.0731L39.5945 57.5899H33.4236L32.9082 57.0731V32.3286L33.4236 31.8118H47.3116C52.7093 31.8118 57.0833 36.1978 57.0833 41.6104V57.0801L56.5678 57.5969Z" fill="#014847"/>
<path d="M25.1989 48.3222H0.5154L0 47.8053V41.6035L0.5154 41.0867H25.1989L25.7143 41.6035V47.8053L25.1989 48.3222Z" fill="#05BDBA"/>
<path d="M89.4842 48.3222H64.8006L64.2852 47.8053V41.6035L64.8006 41.0867H89.4842L89.9995 41.6035V47.8053L89.4842 48.3222Z" fill="#05BDBA"/>
<path d="M41.4414 24.0805V5.51682L41.9568 5H48.1416L48.657 5.51682V24.0805L48.1416 24.5972H41.9568L41.4414 24.0805Z" fill="#05BDBA"/>
<path d="M41.4414 83.8919V65.3284L41.9568 64.8115H48.1416L48.657 65.3284V83.8919L48.1416 84.4086H41.9568L41.4414 83.8919Z" fill="#05BDBA"/>
</svg>
