<svg width="90" height="90" viewBox="0 0 90 90" fill="none" xmlns="http://www.w3.org/2000/svg">
<path d="M65.3392 81.7511C65.0268 81.9164 65.0531 81.969 65.3523 81.8167C65.4494 81.7773 65.5308 81.7222 65.6017 81.6566C65.6017 81.6015 65.6017 81.6015 65.3392 81.7511ZM65.9692 81.4098C65.8195 81.5332 65.8195 81.5332 65.998 81.4518C66.0925 81.3967 66.1765 81.3442 66.1765 81.3285C66.1765 81.2576 66.1345 81.2733 65.9692 81.4098ZM66.3786 81.1631C66.229 81.2865 66.229 81.2865 66.4075 81.2051C66.5046 81.15 66.586 81.0922 66.586 81.0791C66.586 81.0135 66.544 81.0266 66.3786 81.1631ZM66.7934 80.919C66.6438 81.0424 66.6438 81.0424 66.817 80.9584C66.9141 80.9059 66.9955 80.8507 66.9955 80.835C66.9955 80.7694 66.9535 80.7825 66.7934 80.919ZM67.3525 80.5489C67.0664 80.7405 66.9666 80.8639 67.2291 80.7274C67.405 80.6197 67.7042 80.3835 67.6517 80.3835C67.5389 80.4255 67.4444 80.4964 67.3499 80.5489H67.3525ZM42.2504 3.01929C42.0588 3.03242 41.4839 3.08492 40.9799 3.12691C29.0418 4.20838 17.8728 10.6342 10.7934 20.5327C6.87963 25.9585 4.33871 32.2609 3.38061 38.8783C3.042 41.1882 3 41.8707 3 45.0022C3 48.1311 3.042 48.8031 3.38061 51.113C5.66692 66.8914 16.8911 80.1368 32.1051 85.0454C34.8429 85.9195 37.7119 86.5232 40.9799 86.8933C42.2504 87.0298 47.7444 87.0298 49.0148 86.8933C54.6636 86.2633 59.4331 84.8695 64.1527 82.4624C64.8772 82.0949 65.0137 81.9978 64.9166 81.9165C62.6066 78.8689 60.3387 75.8188 58.0682 72.7424L51.3562 63.6785L42.9486 51.2233C40.1452 47.0549 37.3313 42.897 34.4728 38.7707C34.4439 38.7707 34.4071 44.3066 34.3914 51.0579C34.3625 62.8832 34.3625 63.3635 34.2129 63.6365C34.0633 63.9646 33.8165 64.2376 33.4884 64.3899C33.2286 64.5132 32.9949 64.5395 31.7534 64.5395H30.3333L29.9632 64.3085C29.7322 64.1589 29.5405 63.9515 29.4172 63.7074L29.2387 63.3373L29.2518 46.8764L29.2807 30.4156L29.5405 30.0874C29.7059 29.8853 29.9107 29.72 30.1417 29.5966C30.4855 29.4312 30.622 29.405 32.0421 29.405C33.7089 29.405 33.9845 29.4706 34.4229 29.951C37.8248 35.0223 41.2162 40.1068 44.5525 45.207C50.0097 53.4807 57.4592 64.7705 61.1209 70.3091L67.7804 80.3861L68.1085 80.1683C71.3082 78.0342 74.2193 75.4933 76.7313 72.5954C82.0232 66.5371 85.4566 59.0849 86.6194 51.1314C86.958 48.8215 87 48.1364 87 45.0075C87 41.876 86.958 41.2066 86.6194 38.8967C84.3331 23.1183 73.1089 9.87295 57.8949 4.96173C55.0495 4.06139 52.1227 3.44715 49.1592 3.13216C48.3638 3.05079 42.9355 2.95367 42.253 3.02454L42.2504 3.01929ZM59.4357 28.4206C59.8321 28.6096 60.1313 28.9666 60.2678 29.3761C60.3387 29.5966 60.3518 34.1613 60.3387 44.4431L60.3098 59.2057L57.7138 55.2158L55.102 51.2233V40.5057C55.102 33.5576 55.1309 29.6622 55.1676 29.4706C55.291 29.0322 55.5902 28.6647 55.9892 28.4337C56.3147 28.2684 56.4407 28.2553 57.74 28.2553C58.9554 28.2553 59.1627 28.2684 59.4357 28.4206Z" fill="#463FA7"/>
</svg>
