<svg width="90" height="90" viewBox="0 0 90 90" fill="none" xmlns="http://www.w3.org/2000/svg">
<path d="M45 5C23 5 5 23 5 45C5 67 23 85 45 85C67 85 85 67 85 45C85 23 67 5 45 5ZM45 78.3333C26.6667 78.3333 11.6667 63.3333 11.6667 45C11.6667 26.6667 26.6667 11.6667 45 11.6667C63.3333 11.6667 78.3333 26.6667 78.3333 45C78.3333 63.3333 63.3333 78.3333 45 78.3333Z" fill="#00D2A0"/>
<path d="M26.5 39C22.7368 39 20 41.8421 20 45C20 48.4737 23.0789 51 26.5 51C30.2632 51 33 48.1579 33 45C33 41.5263 30.2632 39 26.5 39Z" fill="#00D2A0"/>
<path d="M45 39C41.5263 39 39 41.8421 39 45C39 48.4737 41.8421 51 45 51C48.4737 51 51 48.1579 51 45C51 41.5263 48.4737 39 45 39Z" fill="#00D2A0"/>
<path d="M63.5 39C59.7368 39 57 41.8421 57 45C57 48.4737 60.0789 51 63.5 51C67.2632 51 70 48.1579 70 45C70 41.5263 66.9211 39 63.5 39Z" fill="#00D2A0"/>
</svg>
