<svg width="90" height="90" viewBox="0 0 90 90" fill="none" xmlns="http://www.w3.org/2000/svg">
<path fill-rule="evenodd" clip-rule="evenodd" d="M90 27.02V74.9901C90 76.6484 88.6549 77.992 86.9968 77.9903L74.988 77.976C73.4002 77.9743 72.1021 76.7394 71.9983 75.178C71.9993 75.1189 72 75.0595 72 75.0001L71.9997 57.0005C71.9997 52.03 67.9645 48.0009 62.9941 48.0009C58.1767 48.0009 54.2385 44.216 54 39.4574V12.0043L75.0112 12.0197C83.2909 12.0258 90 18.7399 90 27.02ZM30.0001 12.0001V33.0096C30.0001 37.9804 34.0293 42.0099 39.0001 42.0099H48.0001V41.4065C48.0001 48.3618 53.6386 54.0003 60.5939 54.0003C63.575 54.0003 65.9915 56.417 65.9915 59.3981V74.9758C65.9915 75.0477 65.9925 75.1189 65.9939 75.1901C65.8956 76.7585 64.5927 78 62.9997 78L47.8973 77.9993L48.0001 57.0141C48.0084 55.3571 46.6712 54.0076 45.0145 53.9993C43.3578 53.9909 42.0082 55.328 41.9999 56.9849L41.8974 77.9861V77.9986L23.9625 77.9972V56.9995C23.9625 55.3425 22.6192 53.9993 20.9625 53.9993C19.3058 53.9993 17.9625 55.3425 17.9625 56.9995V77.9969L2.9998 77.9962C1.34301 77.9958 0 76.6529 0 74.9963V27.0001C0 18.7158 6.71577 11.9999 15 12L30.0001 12.0001ZM76.5149 30.0815C76.5149 27.5964 74.5003 25.5815 72.0149 25.5815C69.5295 25.5815 67.5149 27.5964 67.5149 30.0815C67.5149 32.5671 69.5295 34.5817 72.0149 34.5817C74.5003 34.5817 76.5149 32.5671 76.5149 30.0815Z" fill="#F6F95C"/>
</svg>
