<svg viewBox="0 0 90 90" fill="none" xmlns="http://www.w3.org/2000/svg">
<path d="M33.7975 56.8416C33.4009 56.772 33.2455 56.7456 33.0901 56.7175C28.067 55.8065 24.8917 52.8422 23.387 48.1821C22.449 45.2774 24.1534 43.1383 27.2774 42.9974C29.8354 42.8818 31.5861 44.3157 33.1344 45.984C35.1302 48.1351 36.9598 50.4319 38.9201 52.6152C41.7424 55.7582 45.0678 57.7821 49.6178 57.1574C53.6977 56.5972 57.253 55.0005 60.3468 52.3725C60.8119 51.9775 61.322 51.6333 61.8117 51.2654C61.7087 51.1471 61.6061 51.0288 61.503 50.9105C58.9061 51.697 56.2574 51.9614 53.5511 51.8287C49.4561 51.6278 45.5541 50.794 42.0627 48.6014C38.8768 46.6005 36.5273 43.9193 35.4104 40.3382C34.5083 37.4452 36.3547 35.4213 39.4288 35.8396C40.6441 36.0048 41.6672 36.5386 42.5855 37.2957C43.3332 37.9114 44.0504 38.5642 44.813 39.1615C48.401 41.9733 53.4146 42.1296 57.9691 39.0768C50.4816 39.0436 45.3874 35.027 40.9131 29.9366C39.162 27.9442 37.4523 25.9162 35.665 23.9554C32.2066 20.161 28.37 16.8182 23.1166 15.6778C16.406 14.221 9.92742 15.1732 3.70898 17.9506C2.46902 18.5044 1.27828 19.1482 0 20.1857C0.632812 20.1857 0.978047 20.1933 1.32258 20.1847C4.45781 20.1058 6.8073 21.4646 8.50184 23.9657C9.73512 25.786 10.3163 27.8445 10.7592 29.9623C11.4166 33.1053 11.0763 36.3096 11.456 39.467C12.432 47.5841 16.6859 53.2485 24.6066 56.149C27.5112 57.2129 30.4903 57.5671 33.7975 56.8416ZM13.7798 19.8141C12.5283 20.122 11.5281 19.6293 10.4973 18.612C12.2625 18.1831 13.8192 18.0168 15.492 17.9527C15.3552 19.0118 14.7146 19.5844 13.7798 19.8141ZM54.7924 67.2144C54.6834 66.433 53.9989 66.0888 53.4607 65.6801C51.0799 63.8729 48.2955 63.2332 45.3435 63.18C43.5818 63.1485 41.8384 63.0202 40.1769 62.4178C39.4154 62.1418 38.5636 61.7873 38.5829 60.8277C38.6023 59.854 39.471 59.5786 40.2616 59.3482C40.9089 59.1597 41.5768 59.0393 42.3137 58.8713C40.442 57.7015 38.6135 57.5393 36.1772 58.4949C32.342 59.9986 28.5609 59.8204 24.7377 58.474C22.5791 57.7142 20.6634 56.5214 18.669 55.465L18.6145 55.5017C18.6405 55.4842 18.668 55.4657 18.6662 55.4668C18.617 55.32 18.5277 55.3162 18.4131 55.3982C18.4655 55.4428 18.5175 55.4873 18.5695 55.5319C20.2236 58.1757 22.4582 60.3028 24.9824 62.1206C29.8438 65.6212 35.1538 67.7088 41.367 66.7824C43.3737 66.4831 45.3955 66.251 47.4195 66.0919C49.957 65.892 52.3747 66.5884 54.7924 67.2144ZM43.0787 29.2879C42.9444 29.1929 42.8154 28.9546 42.5412 29.2012C44.7764 32.1497 47.648 34.3234 51.1056 35.6918C56.6859 37.9001 62.3496 38.278 68.1423 36.3292C72.6395 34.8165 75.8735 36.2945 77.5529 40.5528C77.7959 35.6102 74.8143 32.0088 70.065 31.3029C67.3931 30.9058 64.9262 31.7702 62.4234 32.4782C55.4586 34.4476 48.9864 33.4752 43.0787 29.2879ZM77.7909 48.5661C78.6987 48.6405 79.6057 48.7207 80.5131 48.7982C78.4628 47.0417 75.9639 46.9025 73.4358 47.0428C69.5862 47.256 66.8127 49.4212 64.2843 52.008C62.0564 54.288 60.0434 56.8457 56.7186 57.7618C56.7742 57.8592 56.7886 57.9079 56.8041 57.9079C57.2513 57.9144 57.6995 57.935 58.1456 57.9151C62.9743 57.7018 67.5232 56.7086 71.1418 53.291C72.2812 52.2148 73.3011 51.0192 74.4012 49.9022C75.3188 48.9706 76.4314 48.4543 77.7909 48.5661ZM66.5736 42.73C62.9701 43.0372 59.8398 44.4909 56.8997 46.4078C54.6367 47.8831 52.2165 48.5812 49.4968 48.1197C49.0184 48.0384 48.5364 47.9777 48.0561 47.9074C48.0505 47.9729 48.0452 48.0381 48.0396 48.1036C48.2126 48.1903 48.3796 48.2918 48.5596 48.3614C49.0127 48.5362 49.4592 48.7468 49.9296 48.8558C55.163 50.0692 60.1727 49.4476 64.6896 46.6022C67.5366 44.8087 70.4837 44.4689 73.678 44.9321C74.0007 44.9791 74.3221 45.0364 74.6462 45.0658C74.9464 45.0936 75.26 45.3847 75.6654 45.0696C72.8729 43.1023 69.865 42.4495 66.5736 42.73ZM53.6945 30.8009C55.5848 30.8647 57.4668 30.6233 59.4439 29.4778C58.8649 29.5279 58.6192 29.5269 58.3836 29.5728C55.6597 30.1022 53.2146 29.5228 51.0367 27.8434C50.2376 27.227 49.4251 26.627 48.6158 26.0232C45.4075 23.6301 41.7284 22.8295 37.704 22.8974C37.7691 23.0904 37.7729 23.2228 37.8429 23.2913C42.2216 27.6106 47.2894 30.5856 53.6945 30.8009ZM85.385 52.9625C82.6752 50.3414 79.0386 50.0037 75.6735 52.2912C77.901 52.3889 79.573 53.0818 80.929 54.4512C81.4089 54.9357 81.9063 55.4112 82.4432 55.8336C84.4935 57.4464 87.9694 57.5239 90 56.0277C87.6146 55.1198 87.6146 55.1198 85.385 52.9625ZM58.3966 73.0351C56.0152 68.712 52.0126 67.7366 47.3889 68.0266C48.7557 68.3962 50.0323 68.965 51.2037 69.7625C52.2798 70.4952 53.1854 71.4024 54.078 72.3316C55.8468 74.1724 58.6072 75.3021 60.4364 74.9201C59.5965 74.4038 58.8505 73.8586 58.3966 73.0351ZM80.556 48.8873C80.5567 48.8599 80.5574 48.8321 80.5591 48.8033C80.5591 48.803 80.5556 48.8068 80.5521 48.8105L80.5598 48.8023C80.5444 48.8009 80.5286 48.7996 80.5131 48.7982C80.5222 48.8064 80.5321 48.8129 80.5412 48.8212C80.5461 48.8431 80.5511 48.8654 80.556 48.8873ZM54.9246 67.3162C54.8933 67.2988 54.862 67.2816 54.8307 67.2645C54.835 67.284 54.8399 67.3032 54.8504 67.319C54.8568 67.3293 54.8989 67.3176 54.9246 67.3162ZM54.8307 67.2645C54.8279 67.2504 54.8255 67.236 54.8216 67.222C54.8216 67.222 54.8163 67.2285 54.8107 67.235L54.8216 67.2223C54.8121 67.2196 54.8023 67.2172 54.7924 67.2144C54.7942 67.2261 54.7984 67.2357 54.7998 67.2477C54.8104 67.2532 54.8205 67.259 54.8307 67.2645Z" fill="#FD4F00"/>
</svg>
