<svg viewBox="0 0 90 90" fill="none" xmlns="http://www.w3.org/2000/svg">
<path fill-rule="evenodd" clip-rule="evenodd" d="M72.6387 69.6284L34.918 80.7846C33.7656 81.1259 32.6612 80.129 32.9033 78.9668L46.3788 14.431C46.6308 13.2249 48.299 13.0332 48.8253 14.1508L73.776 67.1339C74.2465 68.1334 73.7097 69.312 72.6387 69.6284ZM79.1074 66.9968L50.2179 5.64909V5.64777C49.8589 4.89234 49.3022 4.24812 48.6068 3.78343C47.9114 3.31875 47.1032 3.05091 46.2679 3.00833C44.5098 2.90595 42.9348 3.75383 42.0462 5.19693L10.7141 55.9449C10.2381 56.7115 9.99051 57.5978 10.0003 58.5001C10.01 59.4024 10.2768 60.2832 10.7693 61.0393L26.0849 84.7642C26.9977 86.1803 28.5793 87 30.2232 87C30.6891 87 31.1577 86.9344 31.6184 86.7979L76.0755 73.6492C76.7447 73.4531 77.3641 73.1157 77.8916 72.6597C78.4192 72.2036 78.8427 71.6396 79.1336 71.0058C79.4207 70.3757 79.5671 69.6906 79.5626 68.9981C79.5581 68.3056 79.4027 67.6231 79.1074 66.9968Z" fill="#F5F5F5"/>
</svg>
