<svg viewBox="0 0 90 90" fill="none" xmlns="http://www.w3.org/2000/svg">
<path d="M2.77031 72.1012C2.77031 72.1012 3.95719 60.3928 12.2625 46.544C20.5706 32.6953 34.7344 22.2159 46.2459 21.1837C69.1509 18.8887 89.7272 39.4228 89.7272 39.4228C89.7272 39.4228 89.0522 39.8953 88.3378 40.4915C65.8688 23.8781 52.1437 31.7081 47.8266 33.8062C28.0462 44.8453 34.0172 72.1012 34.0172 72.1012H2.77594H2.77031ZM67.8853 23.4C66.6197 22.8881 65.3541 22.4156 64.0491 21.9797L64.2066 19.364C66.6956 20.0784 67.6856 20.5537 68.04 20.7506L67.8825 23.4028L67.8853 23.4ZM64.125 31.7925C65.3906 31.8712 66.6984 32.0287 68.0428 32.3072L67.8853 34.7597C66.5803 34.4784 65.2753 34.3237 63.9703 34.2815L64.1278 31.7925H64.125ZM49.4916 19.4428C48.3469 19.4428 47.1994 19.485 46.0519 19.6059L45.2981 17.2715C46.6059 17.114 47.8716 17.0353 49.095 17.0353L49.8881 19.4484H49.4944L49.4916 19.4428ZM51.3928 34.0059C52.3772 33.5728 53.5303 33.134 54.8719 32.7403L55.7437 35.3559C54.5906 35.7075 53.4459 36.1828 52.2984 36.734L51.39 34.0059H51.3928ZM33.4322 23.5997C32.4028 24.1172 31.4128 24.7106 30.3862 25.3434L28.5666 22.5731C29.6353 21.9403 30.6619 21.3918 31.6519 20.8743L33.4322 23.5997ZM41.5406 41.4028C42.2494 40.4943 43.0819 39.5859 43.9875 38.7534L45.7706 41.445C44.8988 42.3534 44.1113 43.2647 43.4363 44.2575L41.5406 41.4028ZM35.8031 54.1434C36.1181 52.7203 36.4781 51.255 36.99 49.7925L39.8362 52.0481C39.4425 53.5893 39.1613 55.1334 39.0066 56.6747L35.8031 54.1434ZM18.4781 35.3531C17.5219 36.3375 16.6162 37.4062 15.7837 38.475L12.7406 35.865C13.6491 34.875 14.6363 33.885 15.6656 32.8978L18.4781 35.3503V35.3531ZM6.525 53.0325C5.895 54.495 5.0625 56.4356 4.55063 57.78L0 56.1206C0.39375 55.0518 1.22625 53.0718 1.97719 51.3675L6.52781 53.0325H6.525ZM35.2125 64.1897L39.4819 65.7309C39.7181 67.5956 40.0725 69.3309 40.4297 70.8778L35.6822 69.1762C35.4853 67.9893 35.2884 66.2878 35.2097 64.1925L35.2125 64.1897Z" fill="#CC0000"/>
</svg>
