<svg viewBox="0 0 90 90" fill="none" xmlns="http://www.w3.org/2000/svg">
<path d="M88 44.5089C88 38.7811 80.7826 33.3529 69.7169 29.9865C72.2706 18.7777 71.1357 9.85975 66.1346 7.00454C64.9866 6.33734 63.6452 6.02049 62.18 6.01773V6C57.3034 6 50.9191 9.45423 44.4643 15.4464C38.0095 9.4897 31.6257 6.07054 26.7491 6.07054V6.08828C25.2593 6.08828 23.9119 6.40552 22.7413 7.07509C17.758 9.9303 16.641 18.8305 19.2125 30.0042C8.18206 33.3879 1 38.7985 1 44.5089C1 50.2193 8.21735 55.6649 19.2831 59.0312C16.7294 70.24 17.8643 79.158 22.8654 82.0132C24.0181 82.6828 25.3659 83 26.8553 83C31.7319 83 38.1162 79.5458 44.571 73.5536C51.0258 79.5107 57.41 82.9295 62.2866 82.9295C63.7764 82.9295 65.1238 82.6122 66.2944 81.9426C71.2777 79.0874 72.3947 70.1872 69.8232 59.0135C80.8179 55.6471 88 50.2189 88 44.5089ZM62.1625 9.9303V9.94764C62.9782 9.94764 63.6344 10.1061 64.184 10.406C66.5958 11.7806 67.6422 17.0149 66.8262 23.7476C66.6311 25.4044 66.3119 27.149 65.9217 28.9292C62.446 28.083 58.6512 27.4312 54.6608 27.008C52.2669 23.7476 49.7842 20.7868 47.2837 18.196C53.0557 12.8643 58.4743 9.93936 62.1625 9.9303ZM52.5156 58.2556C49.8735 58.4846 47.1957 58.608 44.5 58.608C41.8043 58.608 39.1444 58.4846 36.5201 58.273C35.0482 56.1756 33.6119 53.9376 32.2288 51.5758C30.881 49.2672 29.6573 46.9231 28.5402 44.5613C29.6398 42.1995 30.881 39.8381 32.211 37.5291C33.5941 35.1499 35.0129 32.8937 36.4848 30.7968C39.1269 30.5678 41.8047 30.4445 44.5004 30.4445C47.196 30.4445 49.856 30.5678 52.4803 30.7794C53.9522 32.8768 55.3885 35.1149 56.7716 37.4767C58.1194 39.7853 59.3431 42.1293 60.4602 44.4911C59.3431 46.8529 58.1194 49.2143 56.7894 51.5233C55.4063 53.9025 53.9875 56.1587 52.5156 58.2556ZM28.7885 53.5324C29.622 54.9425 30.4729 56.3171 31.3421 57.6566C28.8241 57.2866 26.3946 56.8282 24.0713 56.2643C24.7275 53.9908 25.5432 51.6467 26.4651 49.3026C27.1924 50.7127 27.9553 52.1224 28.7885 53.5324ZM24.0181 32.7534C26.341 32.2072 28.7884 31.7312 31.3243 31.3611C30.4555 32.7184 29.5863 34.1103 28.7706 35.5381C27.9549 36.9482 27.1924 38.3579 26.4651 39.7679C25.5075 37.4061 24.6918 35.0447 24.0181 32.7534ZM60.2119 53.4796C61.0276 52.0696 61.7902 50.6421 62.5174 49.2321C63.475 51.5939 64.2907 53.9553 64.9644 56.2466C62.6415 56.8105 60.1941 57.2866 57.6582 57.6566C58.5271 56.2994 59.3963 54.9074 60.2119 53.4796ZM60.1941 35.4853C59.3784 34.0752 58.5096 32.7006 57.6404 31.3611C60.1584 31.7312 62.588 32.1895 64.9113 32.7534C64.255 35.027 63.4393 37.371 62.5174 39.7151C61.7902 38.305 61.0272 36.8954 60.1941 35.4853ZM49.3766 26.6202C47.7805 26.5496 46.1492 26.4968 44.5 26.4968C42.8508 26.4968 41.1838 26.5319 39.5703 26.6202C41.1663 24.5583 42.8155 22.6725 44.4469 20.9803C46.0961 22.6721 47.7452 24.5579 49.3766 26.6202ZM24.7097 10.4765C25.2418 10.1593 25.9334 10.0182 26.7491 10.0182V10.0004C30.4198 10.0004 35.8638 12.9085 41.6449 18.2134C39.1622 20.8041 36.6795 23.7472 34.3209 27.008C30.3131 27.4308 26.5183 28.083 23.0426 28.9465C22.6346 27.1841 22.3332 25.4745 22.1207 23.8355C21.2872 17.1032 22.3158 11.8688 24.7097 10.4765ZM20.2407 55.2243C18.4853 54.6781 16.8182 54.0786 15.2753 53.4264C8.99773 50.7651 4.93681 47.2754 4.93681 44.5085C4.93681 41.7415 8.99773 38.2341 15.2753 35.5905C16.8004 34.9383 18.4674 34.357 20.1876 33.8104C21.1984 37.2646 22.5283 40.86 24.1775 44.5435C22.5462 48.2094 21.2336 51.7874 20.2407 55.2243ZM26.8196 79.0874C26.0218 79.0697 25.3477 78.9113 24.816 78.6118C22.4042 77.2372 21.3578 72.0028 22.1738 65.2701C22.3689 63.6133 22.6881 61.8687 23.0783 60.0886C26.554 60.9347 30.3492 61.5865 34.3392 62.0098C36.733 65.2701 39.2158 68.2309 41.7163 70.8217C35.9352 76.1617 30.5078 79.0874 26.8196 79.0874ZM44.5353 68.0371C42.8861 66.3452 41.2369 64.4595 39.6056 62.3972C41.2016 62.4677 42.833 62.5205 44.4822 62.5205C46.1313 62.5205 47.7984 62.4855 49.4119 62.3972C47.8158 64.4591 46.1666 66.3448 44.5353 68.0371ZM64.2903 78.5412C63.7582 78.8585 63.0666 78.9996 62.2509 78.9996C58.5802 78.9996 53.1362 76.0915 47.3551 70.7866C49.8378 68.1959 52.3205 65.2528 54.6791 61.9921C58.6869 61.5692 62.4817 60.917 65.9574 60.0535C66.3654 61.8336 66.6846 63.5432 66.8793 65.1822C67.7128 71.9145 66.6842 77.1489 64.2903 78.5412ZM73.7069 53.4268C72.1818 54.079 70.5147 54.6603 68.7946 55.2069C67.7838 51.7527 66.4538 48.1574 64.8046 44.4738C66.436 40.8079 67.7485 37.2304 68.7414 33.7935C70.4969 34.3397 72.1639 34.9391 73.7247 35.5913C80.0023 38.2526 84.0632 41.7423 84.0632 44.5093C84.0453 47.2762 79.9844 50.7832 73.7069 53.4268Z" fill="url(#paint0_linear_584_2530)"/>
<path d="M44.481 52.5631C48.9567 52.5631 52.585 48.9572 52.585 44.509C52.585 40.0609 48.9567 36.455 44.481 36.455C40.0052 36.455 36.377 40.0609 36.377 44.509C36.377 48.9572 40.0052 52.5631 44.481 52.5631Z" fill="url(#paint1_linear_584_2530)"/>
<path d="M88 44.5089C88 38.7811 80.7826 33.3529 69.7169 29.9865C72.2706 18.7777 71.1357 9.85975 66.1346 7.00454C64.9866 6.33734 63.6452 6.02049 62.18 6.01773V6C57.3034 6 50.9191 9.45423 44.4643 15.4464C38.0095 9.4897 31.6257 6.07054 26.7491 6.07054V6.08828C25.2593 6.08828 23.9119 6.40552 22.7413 7.07509C17.758 9.9303 16.641 18.8305 19.2125 30.0042C8.18206 33.3879 1 38.7985 1 44.5089C1 50.2193 8.21735 55.6649 19.2831 59.0312C16.7294 70.24 17.8643 79.158 22.8654 82.0132C24.0181 82.6828 25.3659 83 26.8553 83C31.7319 83 38.1162 79.5458 44.571 73.5536C51.0258 79.5107 57.41 82.9295 62.2866 82.9295C63.7764 82.9295 65.1238 82.6122 66.2944 81.9426C71.2777 79.0874 72.3947 70.1872 69.8232 59.0135C80.8179 55.6471 88 50.2189 88 44.5089ZM62.1625 9.9303V9.94764C62.9782 9.94764 63.6344 10.1061 64.184 10.406C66.5958 11.7806 67.6422 17.0149 66.8262 23.7476C66.6311 25.4044 66.3119 27.149 65.9217 28.9292C62.446 28.083 58.6512 27.4312 54.6608 27.008C52.2669 23.7476 49.7842 20.7868 47.2837 18.196C53.0557 12.8643 58.4743 9.93936 62.1625 9.9303ZM52.5156 58.2556C49.8735 58.4846 47.1957 58.608 44.5 58.608C41.8043 58.608 39.1444 58.4846 36.5201 58.273C35.0482 56.1756 33.6119 53.9376 32.2288 51.5758C30.881 49.2672 29.6573 46.9231 28.5402 44.5613C29.6398 42.1995 30.881 39.8381 32.211 37.5291C33.5941 35.1499 35.0129 32.8937 36.4848 30.7968C39.1269 30.5678 41.8047 30.4445 44.5004 30.4445C47.196 30.4445 49.856 30.5678 52.4803 30.7794C53.9522 32.8768 55.3885 35.1149 56.7716 37.4767C58.1194 39.7853 59.3431 42.1293 60.4602 44.4911C59.3431 46.8529 58.1194 49.2143 56.7894 51.5233C55.4063 53.9025 53.9875 56.1587 52.5156 58.2556ZM28.7885 53.5324C29.622 54.9425 30.4729 56.3171 31.3421 57.6566C28.8241 57.2866 26.3946 56.8282 24.0713 56.2643C24.7275 53.9908 25.5432 51.6467 26.4651 49.3026C27.1924 50.7127 27.9553 52.1224 28.7885 53.5324ZM24.0181 32.7534C26.341 32.2072 28.7884 31.7312 31.3243 31.3611C30.4555 32.7184 29.5863 34.1103 28.7706 35.5381C27.9549 36.9482 27.1924 38.3579 26.4651 39.7679C25.5075 37.4061 24.6918 35.0447 24.0181 32.7534ZM60.2119 53.4796C61.0276 52.0696 61.7902 50.6421 62.5174 49.2321C63.475 51.5939 64.2907 53.9553 64.9644 56.2466C62.6415 56.8105 60.1941 57.2866 57.6582 57.6566C58.5271 56.2994 59.3963 54.9074 60.2119 53.4796ZM60.1941 35.4853C59.3784 34.0752 58.5096 32.7006 57.6404 31.3611C60.1584 31.7312 62.588 32.1895 64.9113 32.7534C64.255 35.027 63.4393 37.371 62.5174 39.7151C61.7902 38.305 61.0272 36.8954 60.1941 35.4853ZM49.3766 26.6202C47.7805 26.5496 46.1492 26.4968 44.5 26.4968C42.8508 26.4968 41.1838 26.5319 39.5703 26.6202C41.1663 24.5583 42.8155 22.6725 44.4469 20.9803C46.0961 22.6721 47.7452 24.5579 49.3766 26.6202ZM24.7097 10.4765C25.2418 10.1593 25.9334 10.0182 26.7491 10.0182V10.0004C30.4198 10.0004 35.8638 12.9085 41.6449 18.2134C39.1622 20.8041 36.6795 23.7472 34.3209 27.008C30.3131 27.4308 26.5183 28.083 23.0426 28.9465C22.6346 27.1841 22.3332 25.4745 22.1207 23.8355C21.2872 17.1032 22.3158 11.8688 24.7097 10.4765ZM20.2407 55.2243C18.4853 54.6781 16.8182 54.0786 15.2753 53.4264C8.99773 50.7651 4.93681 47.2754 4.93681 44.5085C4.93681 41.7415 8.99773 38.2341 15.2753 35.5905C16.8004 34.9383 18.4674 34.357 20.1876 33.8104C21.1984 37.2646 22.5283 40.86 24.1775 44.5435C22.5462 48.2094 21.2336 51.7874 20.2407 55.2243ZM26.8196 79.0874C26.0218 79.0697 25.3477 78.9113 24.816 78.6118C22.4042 77.2372 21.3578 72.0028 22.1738 65.2701C22.3689 63.6133 22.6881 61.8687 23.0783 60.0886C26.554 60.9347 30.3492 61.5865 34.3392 62.0098C36.733 65.2701 39.2158 68.2309 41.7163 70.8217C35.9352 76.1617 30.5078 79.0874 26.8196 79.0874ZM44.5353 68.0371C42.8861 66.3452 41.2369 64.4595 39.6056 62.3972C41.2016 62.4677 42.833 62.5205 44.4822 62.5205C46.1313 62.5205 47.7984 62.4855 49.4119 62.3972C47.8158 64.4591 46.1666 66.3448 44.5353 68.0371ZM64.2903 78.5412C63.7582 78.8585 63.0666 78.9996 62.2509 78.9996C58.5802 78.9996 53.1362 76.0915 47.3551 70.7866C49.8378 68.1959 52.3205 65.2528 54.6791 61.9921C58.6869 61.5692 62.4817 60.917 65.9574 60.0535C66.3654 61.8336 66.6846 63.5432 66.8793 65.1822C67.7128 71.9145 66.6842 77.1489 64.2903 78.5412ZM73.7069 53.4268C72.1818 54.079 70.5147 54.6603 68.7946 55.2069C67.7838 51.7527 66.4538 48.1574 64.8046 44.4738C66.436 40.8079 67.7485 37.2304 68.7414 33.7935C70.4969 34.3397 72.1639 34.9391 73.7247 35.5913C80.0023 38.2526 84.0632 41.7423 84.0632 44.5093C84.0453 47.2762 79.9844 50.7832 73.7069 53.4268Z" fill="url(#paint2_linear_584_2530)"/>
<path d="M44.481 52.5631C48.9567 52.5631 52.585 48.9572 52.585 44.509C52.585 40.0609 48.9567 36.455 44.481 36.455C40.0052 36.455 36.377 40.0609 36.377 44.509C36.377 48.9572 40.0052 52.5631 44.481 52.5631Z" fill="url(#paint3_linear_584_2530)"/>
<defs>
<linearGradient id="paint0_linear_584_2530" x1="44.5" y1="18.5" x2="44.5" y2="83" gradientUnits="userSpaceOnUse">
<stop stop-color="#447ACA"/>
<stop offset="1" stop-color="#56A5D1"/>
</linearGradient>
<linearGradient id="paint1_linear_584_2530" x1="44.5" y1="18.5" x2="44.5" y2="83" gradientUnits="userSpaceOnUse">
<stop stop-color="#447ACA"/>
<stop offset="1" stop-color="#56A5D1"/>
</linearGradient>
<linearGradient id="paint2_linear_584_2530" x1="44.5" y1="18.5" x2="44.5" y2="83" gradientUnits="userSpaceOnUse">
<stop stop-color="#447ACA"/>
<stop offset="1" stop-color="#56A5D1"/>
</linearGradient>
<linearGradient id="paint3_linear_584_2530" x1="44.5" y1="18.5" x2="44.5" y2="83" gradientUnits="userSpaceOnUse">
<stop stop-color="#447ACA"/>
<stop offset="1" stop-color="#56A5D1"/>
</linearGradient>
</defs>
</svg>
