<svg width="90" height="90" viewBox="0 0 90 90" fill="none" xmlns="http://www.w3.org/2000/svg">
<path d="M84.6305 64.8012C80.041 67.1934 56.266 76.9688 51.2044 79.6076C46.1429 82.2467 43.3311 82.2212 39.3324 80.3097C35.3341 78.3982 10.0333 68.1783 5.47561 65.9998C3.19795 64.9113 2 63.9922 2 63.1242V54.4314C2 54.4314 34.9387 47.2608 40.2562 45.3531C45.5734 43.4453 47.4184 43.3764 51.9435 45.0339C56.4692 46.6921 83.5277 51.574 88 53.212L87.998 61.7817C87.9987 62.6411 86.9667 63.5837 84.6305 64.8012Z" fill="#912626"/>
<path d="M84.6288 56.1598C80.0395 58.551 56.2652 68.3268 51.2037 70.9652C46.1424 73.6047 43.3307 73.5788 39.3323 71.6673C35.3337 69.7572 10.0339 59.5356 5.47654 57.3584C0.919214 55.1798 0.823807 53.6805 5.30051 51.9276C9.77721 50.174 34.9383 40.3025 40.2565 38.3947C45.5737 36.4876 47.4183 36.4181 51.9434 38.0762C56.4688 39.7338 80.1014 49.1403 84.573 50.778C89.0464 52.4178 89.218 53.7679 84.6288 56.1598Z" fill="#C6302B"/>
<path d="M84.6305 50.7358C80.041 53.1283 56.266 62.9034 51.2044 65.5432C46.1429 68.1813 43.3311 68.1558 39.3324 66.2443C35.3337 64.3338 10.0333 54.1129 5.47561 51.9344C3.19795 50.846 2 49.9282 2 49.0598V40.366C2 40.366 34.9387 33.1958 40.2562 31.288C45.5734 29.3802 47.4184 29.311 51.9435 30.9689C56.4696 32.6267 83.528 37.5076 88 39.1459L87.998 47.7167C87.9987 48.5757 86.9667 49.5183 84.6305 50.7358Z" fill="#912626"/>
<path d="M84.6288 42.0944C80.0395 44.4863 56.2652 54.2614 51.2037 56.9009C46.1424 59.5393 43.3307 59.5134 39.3323 57.602C35.3337 55.6918 10.0339 45.4706 5.47654 43.293C0.919214 41.1152 0.823807 39.6155 5.30051 37.8619C9.77721 36.1093 34.9386 26.2372 40.2565 24.3297C45.5737 22.4222 47.4183 22.353 51.9434 24.0109C56.4688 25.6684 80.1014 35.0743 84.573 36.7127C89.0464 38.3521 89.218 39.7025 84.6288 42.0944Z" fill="#C6302B"/>
<path d="M84.6305 36.1491C80.041 38.541 56.266 48.3168 51.2044 50.9566C46.1429 53.595 43.3311 53.5692 39.3324 51.6577C35.3337 49.7472 10.0333 39.526 5.47561 37.3484C3.19795 36.259 2 35.3409 2 34.4735V25.7794C2 25.7794 34.9387 18.6095 40.2562 16.7021C45.5734 14.7939 47.4184 14.7254 51.9435 16.3829C56.4696 18.0408 83.528 22.9216 88 24.56L87.998 33.1304C87.9987 33.9887 86.9667 34.9314 84.6305 36.1491Z" fill="#912626"/>
<path d="M84.6286 27.5078C80.0394 29.8997 56.2651 39.6755 51.2035 42.3139C46.1423 44.9524 43.3305 44.9265 39.3322 43.016C35.3338 41.1046 10.0337 30.884 5.47671 28.7061C0.919046 26.5286 0.823976 25.0286 5.30034 23.2754C9.77705 21.5224 34.9384 11.6516 40.2563 9.74345C45.5735 7.83566 47.4182 7.76713 51.9433 9.42499C56.4687 11.0828 80.1012 20.4887 84.5729 22.1271C89.0462 23.7651 89.2179 25.116 84.6286 27.5078Z" fill="#C6302B"/>
<path d="M55.5092 19.0513L48.1152 19.8189L46.46 23.8018L43.7866 19.3573L35.2488 18.59L41.6195 16.2925L39.708 12.7659L45.6726 15.0986L51.2955 13.2577L49.7757 16.9043L55.5092 19.0513ZM46.0186 38.3737L32.2193 32.6503L51.9926 29.6151L46.0186 38.3737ZM26.887 21.2651C32.7239 21.2651 37.4555 23.0993 37.4555 25.3615C37.4555 27.6244 32.7239 29.4583 26.887 29.4583C21.05 29.4583 16.3184 27.624 16.3184 25.3615C16.3184 23.0993 21.05 21.2651 26.887 21.2651Z" fill="white"/>
<path d="M64.248 20.14L75.9508 24.7645L64.2581 29.3846L64.248 20.14Z" fill="#621B1C"/>
<path d="M51.3008 25.2613L64.2478 20.1399L64.2579 29.3846L62.9884 29.8811L51.3008 25.2613Z" fill="#9A2928"/>
</svg>
