<svg viewBox="0 0 90 90" fill="none" xmlns="http://www.w3.org/2000/svg">
<path d="M61.9747 61.3856C65.2221 61.0492 67.6858 58.2477 67.5737 54.8856C67.462 51.5239 64.6621 48.8343 61.3027 48.8343H61.0789C57.607 48.9464 54.9196 51.8599 55.0316 55.3338C55.1437 57.0149 55.8154 58.4717 56.8233 59.4802C53.0159 66.9887 47.1928 72.4798 38.4581 77.0744C32.5229 80.2122 26.3639 81.3329 20.205 80.5486C15.1656 79.8761 11.2462 77.6351 8.78215 73.9365C5.1989 68.4455 4.86306 62.5059 7.88668 56.5667C10.0145 52.3082 13.3736 49.1703 15.5014 47.6014C15.0535 46.1446 14.3815 43.6793 14.0457 41.8864C-2.19207 53.6531 -0.51216 69.5662 4.41515 77.0744C8.11046 82.6779 15.6135 86.1518 23.9003 86.1518C26.1398 86.1518 28.3793 85.9275 30.6192 85.3675C44.9532 82.5657 55.8157 74.0487 61.9747 61.3856ZM81.684 47.4896C73.173 37.5158 60.631 32.0247 46.297 32.0247H44.5053C43.4975 30.0076 41.3696 28.6626 39.0181 28.6626H38.7939C35.3227 28.7748 32.6353 31.6883 32.747 35.1626C32.8591 38.5243 35.6586 41.214 39.0181 41.214H39.2418C41.7055 41.1018 43.8333 39.5329 44.7291 37.4036H46.7449C55.2558 37.4036 63.3184 39.869 70.5977 44.6879C76.1967 48.386 80.2282 53.2049 82.4677 59.032C84.3714 63.7388 84.2593 68.3334 82.2436 72.2558C79.1082 78.1951 73.8451 81.445 66.902 81.445C62.4226 81.445 58.1673 80.1001 55.9275 79.0915C54.6958 80.2122 52.4559 82.005 50.8881 83.1261C55.7037 85.3672 60.631 86.6 65.3342 86.6C76.0846 86.6 84.0356 80.6604 87.0592 74.7212C90.3066 68.2212 90.0825 57.0149 81.684 47.4896ZM24.7961 63.2902C24.9081 66.6523 27.7076 69.3416 31.0671 69.3416H31.2912C34.7628 69.2298 37.4502 66.3159 37.3381 62.842C37.2264 59.4799 34.4266 56.7906 31.0671 56.7906H30.8433C30.6192 56.7906 30.283 56.7906 30.0596 56.9024C25.4681 49.2821 23.5644 40.9897 24.2365 32.0244C24.684 25.3005 26.9239 19.4731 30.8433 14.6542C34.0907 10.5078 40.3618 8.49069 44.6174 8.37889C56.4874 8.15461 61.5265 22.947 61.8626 28.8866C63.3184 29.2226 65.7821 30.0073 67.462 30.5676C66.1179 12.4135 54.9196 3 44.1695 3C34.0907 3 24.7961 10.2842 21.1004 21.0423C15.9493 35.3865 19.3088 49.1703 25.5798 60.0406C25.0202 60.8249 24.684 62.0574 24.7961 63.2902Z" fill="#764ABC"/>
</svg>
