<svg viewBox="0 0 90 90" fill="none" xmlns="http://www.w3.org/2000/svg">
<path d="M80.3715 15.3973C78.559 9.41495 74.3614 5.52091 66.2313 3.47267C57.6971 1.32229 47.1618 5.05035 47.1618 5.05035C47.1618 5.05035 37.8494 2.47266 26.5 2.47266C12.4203 2.47266 3.85288 14.315 6.4999 35C8.54761 51.0017 8.61776 62.7696 19 64.5C28 66 34.4995 66.5581 34.4995 58C34.4995 53.5581 34.4428 43.5329 37.9527 28.8085C38.0825 28.2613 38.6313 27.9239 39.18 28.0534C39.7287 28.1829 40.067 28.7319 39.9372 29.2772C37.5942 39.1117 37.2229 46.0152 37.9856 51.0017C38.2892 52.9843 38.3679 54.7954 40.3597 56.8145C42.3515 58.8336 47.3082 59.5449 52.6361 60.4878C60.1791 61.8229 64.0712 62.6711 63.0982 73.4668C62.5385 80.7314 50.7998 81.1873 46.026 77.1693C45.5029 76.7297 44.7402 76.7024 44.1988 77.12C42.5198 78.4187 40.6432 79.3379 39.2458 79.9142C38.2435 80.3283 38.0313 81.6506 38.8489 82.3601C41.3309 84.5141 46.4449 87.9613 53.7427 87.9485C60.9326 88.4191 69.4906 85.7033 73.4889 78.5828C79.2504 68.3179 82.9468 54.6514 82.9468 46.1793C82.9468 37.0069 83.5925 26.0252 80.3734 15.3973H80.3715ZM70.8551 41.5193C69.4559 41.5284 65 41.1691 62.1215 39.5422C62.0154 39.44 61.9807 39.2813 62.0355 39.1445C64.7205 32.4289 71.444 36.1497 71.2191 41.1691C71.2099 41.3642 71.0508 41.5174 70.8551 41.5193Z" fill="url(#paint0_linear_538_2639)" stroke="url(#paint1_linear_538_2639)" stroke-width="0.5"/>
<defs>
<linearGradient id="paint0_linear_538_2639" x1="16.7719" y1="-2.19314" x2="27.4555" y2="56.997" gradientUnits="userSpaceOnUse">
<stop stop-color="#7E78DB"/>
<stop offset="1" stop-color="#453FA7"/>
</linearGradient>
<linearGradient id="paint1_linear_538_2639" x1="23.8731" y1="-3.99997" x2="23.8731" y2="57.6435" gradientUnits="userSpaceOnUse">
<stop stop-color="#A6A2FF"/>
<stop offset="1" stop-color="#201D4A"/>
</linearGradient>
</defs>
</svg>
