<svg viewBox="0 0 90 90" fill="none" xmlns="http://www.w3.org/2000/svg">
<path fill-rule="evenodd" clip-rule="evenodd" d="M36.9816 7.375C31.0769 7.375 26.2903 12.0097 26.2903 17.7268V24.8935H44.7944V26.8843H18.0662C12.1616 26.8843 7.375 31.519 7.375 37.2361V52.7639C7.375 58.481 12.1616 63.1156 18.0662 63.1156H24.2343V54.3565C24.2343 48.6394 29.0209 44.0045 34.9256 44.0045H54.6632C59.6595 44.0045 63.7096 40.083 63.7096 35.2455V17.7268C63.7096 12.0097 58.9231 7.375 53.0184 7.375H36.9816ZM34.5144 20.1157C36.5583 20.1157 38.2151 18.5114 38.2151 16.5324C38.2151 14.5534 36.5583 12.9491 34.5144 12.9491C32.4703 12.9491 30.8135 14.5534 30.8135 16.5324C30.8135 18.5114 32.4703 20.1157 34.5144 20.1157Z" fill="url(#paint0_linear_584_2538)"/>
<path fill-rule="evenodd" clip-rule="evenodd" d="M53.0181 82.625C58.9228 82.625 63.7095 77.9904 63.7095 72.2732V65.1065H45.2052V63.1159H71.9335C77.8382 63.1159 82.6246 58.481 82.6246 52.7639V37.236C82.6246 31.5189 77.8382 26.8843 71.9335 26.8843H65.7654V35.6434C65.7654 41.3608 60.9787 45.9954 55.0743 45.9954H35.3365C30.3401 45.9954 26.29 49.917 26.29 54.7545V72.2732C26.29 77.9904 31.0768 82.625 36.9812 82.625H53.0181ZM55.4855 69.8843C53.4413 69.8843 51.7845 71.4885 51.7845 73.4676C51.7845 75.4467 53.4413 77.0508 55.4855 77.0508C57.5293 77.0508 59.1861 75.4467 59.1861 73.4676C59.1861 71.4885 57.5293 69.8843 55.4855 69.8843Z" fill="url(#paint1_linear_584_2538)"/>
<defs>
<linearGradient id="paint0_linear_584_2538" x1="35.5424" y1="7.375" x2="35.5424" y2="63.1156" gradientUnits="userSpaceOnUse">
<stop stop-color="#327EBD"/>
<stop offset="1" stop-color="#1565A7"/>
</linearGradient>
<linearGradient id="paint1_linear_584_2538" x1="54.4575" y1="26.8843" x2="54.4575" y2="82.625" gradientUnits="userSpaceOnUse">
<stop stop-color="#FFDA4B"/>
<stop offset="1" stop-color="#F9C600"/>
</linearGradient>
</defs>
</svg>
