<svg width="90" height="90" viewBox="0 0 90 90" fill="none" xmlns="http://www.w3.org/2000/svg">
<path d="M77.8732 11.9059C69.579 -0.0658919 53.0666 -3.57356 41.196 3.97555L20.2702 17.3962C14.5632 20.9801 10.6063 26.8516 9.46492 33.4857C8.4757 39.0522 9.31273 44.7712 11.976 49.7277C10.1498 52.4729 8.93226 55.523 8.39961 58.7257C7.18211 65.5122 8.78007 72.5276 12.737 78.0941C21.1073 90.0659 37.5435 93.5736 49.4141 86.0245L70.3399 72.6801C76.047 69.0961 80.0038 63.2246 81.1453 56.5905C82.1345 51.024 81.2974 45.305 78.6342 40.3485C80.4604 37.6034 81.6779 34.5533 82.2106 31.3506C83.5042 24.4878 81.9062 17.4724 77.8732 11.9059Z" fill="#FF3E00"/>
<path d="M39.1413 79.2378C32.3689 80.9917 25.2922 78.3228 21.3353 72.6038C18.9003 69.2486 17.9872 65.0547 18.6721 60.937C18.8242 60.2507 18.9764 59.6407 19.1286 58.9544L19.5091 57.7343L20.5744 58.4969C23.0855 60.3269 25.8249 61.6995 28.7925 62.6145L29.5535 62.8433L29.4774 63.6058C29.4013 64.6734 29.7057 65.8172 30.3144 66.7322C31.5319 68.4861 33.6625 69.3249 35.7171 68.7911C36.1736 68.6386 36.6302 68.4861 37.0107 68.2573L57.8603 54.9129C58.9257 54.2267 59.6105 53.2354 59.8388 52.0153C60.0671 50.7952 59.7627 49.4989 59.0778 48.5076C57.8603 46.7538 55.7297 45.9913 53.6752 46.525C53.2186 46.6775 52.7621 46.83 52.3816 47.0588L44.3917 52.1678C43.0982 53.0066 41.6524 53.6166 40.1305 53.9979C33.3581 55.7517 26.2814 53.0828 22.3246 47.3638C19.9656 44.0087 18.9764 39.8147 19.7374 35.697C20.4222 31.7318 22.8572 28.1479 26.2814 26.0128L47.2072 12.6684C48.5008 11.8296 49.9466 11.2196 51.4685 10.7621C58.2408 9.00825 65.3175 11.6771 69.2744 17.3962C71.7094 20.7513 72.6225 24.9453 71.9377 29.063C71.7855 29.7492 71.6333 30.3593 71.405 31.0455L71.0246 32.2656L69.9593 31.5031C67.4482 29.673 64.7088 28.3004 61.7411 27.3854L60.9802 27.1566L61.0563 26.3941C61.1324 25.3265 60.828 24.1827 60.2193 23.2677C59.0018 21.5138 56.8711 20.7513 54.8166 21.2851C54.36 21.4376 53.9035 21.5901 53.523 21.8189L32.6733 35.1632C31.608 35.8495 30.9232 36.8408 30.6949 38.0609C30.4666 39.2809 30.771 40.5773 31.4558 41.5685C32.6733 43.3224 34.8039 44.0849 36.8585 43.5511C37.315 43.3986 37.7716 43.2461 38.1521 43.0174L46.1419 37.9084C47.4355 37.0696 48.8813 36.4596 50.4032 36.002C57.1755 34.2482 64.2522 36.9171 68.2091 42.6361C70.6441 45.9913 71.5572 50.1852 70.8724 54.3029C70.1875 58.2681 67.7525 61.852 64.3283 63.9871L43.4025 77.3315C42.1089 78.1703 40.6632 78.7803 39.1413 79.2378Z" fill="#1C1E20"/>
</svg>
