<svg width="40" height="40" viewBox="0 0 40 40" fill="none" xmlns="http://www.w3.org/2000/svg">
<path d="M10.0953 3.3785C0.273814 11.4268 -1.89759 25.6325 5.07293 36.246C5.49738 36.8949 6.3145 37.1648 7.04099 36.8947L38.4031 25.2558C39.014 25.0291 39.1357 24.2213 38.621 23.8229L12.168 3.34685C11.5536 2.87268 10.6959 2.88606 10.0953 3.3785Z" fill="url(#paint0_linear_687_2596)"/>
<path d="M11.1716 28.2919C13.0742 28.2919 14.6166 26.7495 14.6166 24.8469C14.6166 22.9443 13.0742 21.4019 11.1716 21.4019C9.26896 21.4019 7.72656 22.9443 7.72656 24.8469C7.72656 26.7495 9.26896 28.2919 11.1716 28.2919Z" fill="#141618"/>
<path d="M25.7184 25.995C27.621 25.995 29.1633 24.4526 29.1633 22.55C29.1633 20.6474 27.621 19.105 25.7184 19.105C23.8157 19.105 22.2734 20.6474 22.2734 22.55C22.2734 24.4526 23.8157 25.995 25.7184 25.995Z" fill="#141618"/>
<path d="M11.1717 24.3685C12.3873 24.3685 13.3727 23.7686 13.3727 23.0287C13.3727 22.2888 12.3873 21.689 11.1717 21.689C9.9561 21.689 8.9707 22.2888 8.9707 23.0287C8.9707 23.7686 9.9561 24.3685 11.1717 24.3685Z" fill="url(#paint1_linear_687_2596)" fill-opacity="0.8"/>
<path d="M25.7186 22.0716C26.9341 22.0716 27.9195 21.4718 27.9195 20.7319C27.9195 19.992 26.9341 19.3921 25.7186 19.3921C24.503 19.3921 23.5176 19.992 23.5176 20.7319C23.5176 21.4718 24.503 22.0716 25.7186 22.0716Z" fill="url(#paint2_linear_687_2596)" fill-opacity="0.8"/>
<defs>
<linearGradient id="paint0_linear_687_2596" x1="20.4846" y1="2.70103" x2="18.7336" y2="42.5438" gradientUnits="userSpaceOnUse">
<stop stop-color="#FF7878"/>
<stop offset="1" stop-color="#C04747"/>
</linearGradient>
<linearGradient id="paint1_linear_687_2596" x1="11.1717" y1="21.689" x2="11.1717" y2="24.3685" gradientUnits="userSpaceOnUse">
<stop stop-color="white"/>
<stop offset="1" stop-color="white" stop-opacity="0"/>
</linearGradient>
<linearGradient id="paint2_linear_687_2596" x1="25.7186" y1="19.3921" x2="25.7186" y2="22.0716" gradientUnits="userSpaceOnUse">
<stop stop-color="white"/>
<stop offset="1" stop-color="white" stop-opacity="0"/>
</linearGradient>
</defs>
</svg>
