<svg width="40" height="40" viewBox="0 0 40 40" fill="none" xmlns="http://www.w3.org/2000/svg">
<path d="M10.0954 3.3785C0.273809 11.4268 -1.89759 25.6325 5.07293 36.246C5.49739 36.8949 6.31451 37.1648 7.04099 36.8947L38.4031 25.2558C39.014 25.0291 39.1357 24.2213 38.6211 23.8229L12.168 3.34685C11.5537 2.87268 10.696 2.88606 10.0954 3.3785Z" fill="url(#paint0_linear_687_2551)"/>
<path d="M11.1715 28.2919C13.0741 28.2919 14.6165 26.7495 14.6165 24.8469C14.6165 22.9443 13.0741 21.4019 11.1715 21.4019C9.26892 21.4019 7.72656 22.9443 7.72656 24.8469C7.72656 26.7495 9.26892 28.2919 11.1715 28.2919Z" fill="#141618"/>
<path d="M25.7184 25.995C27.621 25.995 29.1634 24.4526 29.1634 22.55C29.1634 20.6474 27.621 19.105 25.7184 19.105C23.8158 19.105 22.2734 20.6474 22.2734 22.55C22.2734 24.4526 23.8158 25.995 25.7184 25.995Z" fill="#141618"/>
<path d="M11.1716 24.3685C12.3872 24.3685 13.3726 23.7686 13.3726 23.0287C13.3726 22.2888 12.3872 21.689 11.1716 21.689C9.9561 21.689 8.9707 22.2888 8.9707 23.0287C8.9707 23.7686 9.9561 24.3685 11.1716 24.3685Z" fill="url(#paint1_linear_687_2551)" fill-opacity="0.8"/>
<path d="M25.7185 22.0716C26.9341 22.0716 27.9195 21.4718 27.9195 20.7319C27.9195 19.992 26.9341 19.3921 25.7185 19.3921C24.503 19.3921 23.5176 19.992 23.5176 20.7319C23.5176 21.4718 24.503 22.0716 25.7185 22.0716Z" fill="url(#paint2_linear_687_2551)" fill-opacity="0.8"/>
<defs>
<linearGradient id="paint0_linear_687_2551" x1="22.673" y1="4.71672" x2="17.5556" y2="38.6882" gradientUnits="userSpaceOnUse">
<stop stop-color="#5F6DEC"/>
<stop offset="1" stop-color="#822FEB"/>
</linearGradient>
<linearGradient id="paint1_linear_687_2551" x1="11.1716" y1="21.689" x2="11.1716" y2="24.3685" gradientUnits="userSpaceOnUse">
<stop stop-color="white"/>
<stop offset="1" stop-color="white" stop-opacity="0"/>
</linearGradient>
<linearGradient id="paint2_linear_687_2551" x1="25.7185" y1="19.3921" x2="25.7185" y2="22.0716" gradientUnits="userSpaceOnUse">
<stop stop-color="white"/>
<stop offset="1" stop-color="white" stop-opacity="0"/>
</linearGradient>
</defs>
</svg>
