<svg width="997" height="228" viewBox="0 0 997 228" fill="none" xmlns="http://www.w3.org/2000/svg">
<path d="M247.112 68.1696C247.862 67.4207 248.879 67.0001 249.938 67.0001L505.755 67L453.55 119.132C452.8 119.881 451.783 120.302 450.723 120.302H194.906L247.112 68.1696Z" fill="url(#paint0_linear_867_172)" fill-opacity="0.25"/>
<path d="M749.229 166.003C748.498 166.646 747.559 167 746.586 167L497.266 167L540.901 122.446C541.653 121.678 542.683 121.245 543.758 121.245L800.096 121.245L749.229 166.003Z" fill="url(#paint1_linear_867_172)" fill-opacity="0.25"/>
<path d="M247.112 68.1696C247.862 67.4207 248.879 67.0001 249.938 67.0001L505.755 67L453.55 119.132C452.8 119.881 451.783 120.302 450.723 120.302H194.906L247.112 68.1696Z" fill="url(#paint2_linear_867_172)" fill-opacity="0.25"/>
<path d="M716.451 165.811C715.699 166.572 714.674 167 713.605 167L497.265 167L541.287 122.434C542.038 121.673 543.063 121.245 544.133 121.245L760.473 121.245L716.451 165.811Z" fill="url(#paint3_linear_867_172)" fill-opacity="0.25"/>
<path d="M248.283 67.0001L505.755 67L452.378 120.302H194.906L248.283 67.0001Z" fill="url(#paint4_radial_867_172)" fill-opacity="0.25"/>
<path d="M755.513 165.828C754.762 166.579 753.745 167 752.684 167L497.03 167L541.451 122.422C542.202 121.669 543.221 121.245 544.285 121.245L800.096 121.245L755.513 165.828Z" fill="url(#paint5_radial_867_172)" fill-opacity="0.25"/>
<path d="M505.399 67.2501L541.946 67.25L490.106 119.481C489.595 119.996 488.904 120.284 488.185 120.284H451.637L503.478 68.0533C503.989 67.5384 504.68 67.2501 505.399 67.2501ZM499.396 121.538L541.949 121.538L498.158 165.919V122.796C498.158 122.098 498.715 121.538 499.396 121.538Z" fill="url(#paint6_linear_867_172)" stroke="url(#paint7_linear_867_172)" stroke-width="0.5"/>
<rect width="227.982" height="227.982" rx="32" fill="url(#paint8_linear_867_172)"/>
<rect x="0.5" y="0.5" width="226.982" height="226.982" rx="31.5" stroke="url(#paint9_linear_867_172)" stroke-opacity="0.4"/>
<line x1="172.162" y1="203.899" x2="172.162" y2="216.743" stroke="#3C3C47" stroke-width="0.75"/>
<path d="M61.7002 61.284C42.1123 76.8162 35.9266 111.677 48.6416 136.529C61.0129 161.035 91.254 174.496 117.371 167.593C124.932 165.522 131.117 162.071 131.117 159.655C131.117 153.787 75.1025 59.5582 70.9788 58.1776C68.9169 57.4873 64.7931 58.8679 61.7002 61.284Z" fill="#5B6DEE"/>
<path d="M106.121 84.1928C106.121 88.0817 143.694 150.006 146.653 150.903C149.611 152.1 186.001 91.6715 186.001 85.6885C186.001 84.1928 167.954 82.9962 146.061 82.9962C124.168 82.9962 106.121 83.5945 106.121 84.1928Z" fill="#D2D4DC"/>
<rect x="769" width="227.982" height="227.982" rx="32" fill="url(#paint10_linear_867_172)"/>
<rect x="769.5" y="0.5" width="226.982" height="226.982" rx="31.5" stroke="url(#paint11_linear_867_172)" stroke-opacity="0.4"/>
<path d="M843 84.1964C843 88.0851 880.402 150.005 883.347 150.902C886.292 152.099 922.516 91.6747 922.516 85.6921C922.516 84.1964 904.551 82.9999 882.758 82.9999C860.965 82.9999 843 83.5982 843 84.1964Z" fill="#D2D4DC"/>
<defs>
<linearGradient id="paint0_linear_867_172" x1="438.491" y1="120.302" x2="437.737" y2="103.035" gradientUnits="userSpaceOnUse">
<stop stop-color="#4338BC"/>
<stop offset="1" stop-color="#4338BC" stop-opacity="0"/>
</linearGradient>
<linearGradient id="paint1_linear_867_172" x1="562.795" y1="121.245" x2="563.365" y2="136.073" gradientUnits="userSpaceOnUse">
<stop stop-color="#4338BC"/>
<stop offset="1" stop-color="#4338BC" stop-opacity="0"/>
</linearGradient>
<linearGradient id="paint2_linear_867_172" x1="451.196" y1="120.302" x2="439.9" y2="93.3115" gradientUnits="userSpaceOnUse">
<stop stop-color="#4338BC"/>
<stop offset="1" stop-color="#4338BC" stop-opacity="0"/>
</linearGradient>
<linearGradient id="paint3_linear_867_172" x1="543.462" y1="121.245" x2="553.252" y2="144.319" gradientUnits="userSpaceOnUse">
<stop stop-color="#4338BC"/>
<stop offset="1" stop-color="#4338BC" stop-opacity="0"/>
</linearGradient>
<radialGradient id="paint4_radial_867_172" cx="0" cy="0" r="1" gradientUnits="userSpaceOnUse" gradientTransform="translate(453.812 120.302) rotate(-99.4208) scale(47.9426 279.662)">
<stop stop-color="#4338BC"/>
<stop offset="1" stop-color="#4338BC" stop-opacity="0"/>
</radialGradient>
<radialGradient id="paint5_radial_867_172" cx="0" cy="0" r="1" gradientUnits="userSpaceOnUse" gradientTransform="translate(541.19 121.245) rotate(80.6117) scale(43.0292 289.632)">
<stop stop-color="#4338BC"/>
<stop offset="1" stop-color="#4338BC" stop-opacity="0"/>
</radialGradient>
<linearGradient id="paint6_linear_867_172" x1="496.792" y1="67" x2="496.792" y2="173.637" gradientUnits="userSpaceOnUse">
<stop stop-color="#C7C6FF"/>
<stop offset="1" stop-color="#362952"/>
</linearGradient>
<linearGradient id="paint7_linear_867_172" x1="496.792" y1="67" x2="496.792" y2="166.528" gradientUnits="userSpaceOnUse">
<stop stop-color="#C2B5FF" stop-opacity="0"/>
<stop offset="0.536458" stop-color="#A5B9FF"/>
<stop offset="0.953125" stop-color="#C2B5FF" stop-opacity="0"/>
</linearGradient>
<linearGradient id="paint8_linear_867_172" x1="113.991" y1="0" x2="113.991" y2="227.982" gradientUnits="userSpaceOnUse">
<stop stop-color="#1D1E22"/>
<stop offset="1" stop-color="#2C2D34"/>
</linearGradient>
<linearGradient id="paint9_linear_867_172" x1="113.991" y1="0" x2="113.991" y2="227.982" gradientUnits="userSpaceOnUse">
<stop stop-color="#ECEEFE" stop-opacity="0.42"/>
<stop offset="1" stop-color="#F3F4FF" stop-opacity="0.2"/>
</linearGradient>
<linearGradient id="paint10_linear_867_172" x1="882.991" y1="0" x2="882.991" y2="227.982" gradientUnits="userSpaceOnUse">
<stop stop-color="#1D1E22"/>
<stop offset="1" stop-color="#2C2D34"/>
</linearGradient>
<linearGradient id="paint11_linear_867_172" x1="882.991" y1="0" x2="882.991" y2="227.982" gradientUnits="userSpaceOnUse">
<stop stop-color="#ECEEFE" stop-opacity="0.42"/>
<stop offset="1" stop-color="#F3F4FF" stop-opacity="0.2"/>
</linearGradient>
</defs>
</svg>
