<svg width="149" height="32"
  viewBox="0 0 149 32"
  fill="none"
  xmlns="http://www.w3.org/2000/svg"
>
  <path
    fill-rule="evenodd"
    clip-rule="evenodd"
    d="M29.8022 24.317C30.2747 24.05 30.4361 23.4582 30.1636 22.9953C29.891 22.5329 29.2873 22.3741 28.8148 22.6411L15.9211 29.9362L3.07463 22.6683C2.60281 22.4012 1.999 22.5594 1.72597 23.0225C1.45347 23.4854 1.61541 24.077 2.08741 24.3441L15.3897 31.8698C15.5053 31.9353 15.6327 31.9771 15.7645 31.9929C15.8963 32.0087 16.0299 31.9981 16.1576 31.9617C16.278 31.9433 16.3941 31.9031 16.5002 31.8431L29.8022 24.317Z"
    fill="black"
  />
  <path
    fill-rule="evenodd"
    clip-rule="evenodd"
    d="M31.1298 16.6012C31.1974 16.1929 31.0061 15.7675 30.6177 15.5488L16.555 7.63105C16.4443 7.56873 16.3234 7.52682 16.198 7.50732C16.0631 7.46888 15.922 7.45758 15.7827 7.47405C15.6434 7.49053 15.5088 7.53446 15.3865 7.60332L1.32289 15.5214C0.913972 15.7518 0.723686 16.2117 0.824499 16.6391C0.780205 16.9913 0.91787 17.3598 1.32768 17.5916L15.3904 25.5478C15.5127 25.6169 15.6475 25.661 15.7869 25.6776C15.9263 25.6942 16.0675 25.6829 16.2026 25.6445C16.3297 25.6253 16.4522 25.583 16.5642 25.5197L30.6275 17.563C31.0408 17.329 31.1776 16.9562 31.1298 16.6012ZM28.2266 16.5591L15.9459 9.64453L3.67206 16.5554L15.9528 23.5034L28.2266 16.5591Z"
    fill="black"
  />
  <path
    fill-rule="evenodd"
    clip-rule="evenodd"
    d="M31.3429 10.6097C31.8677 10.3131 32.0476 9.65608 31.7442 9.14178C31.4416 8.62819 30.7712 8.45201 30.2464 8.74854L15.9269 16.8501L1.66063 8.77876C1.13584 8.48152 0.465408 8.65787 0.162793 9.172C-0.14053 9.68541 0.0391253 10.3432 0.564095 10.6397L15.337 18.9976C15.4654 19.0702 15.607 19.1165 15.7534 19.134C15.8998 19.1514 16.0482 19.1395 16.19 19.0991C16.3236 19.0791 16.4524 19.0347 16.5701 18.9681L31.3429 10.6097Z"
    fill="black"
  />
  <path
    d="M2.7403 9.6795L15.8991 1.62024L29.0577 9.67879L15.8989 17.2013L2.7403 9.6795Z"
    fill="black"
  />
  <path
    fill-rule="evenodd"
    clip-rule="evenodd"
    d="M31.3255 8.49027C31.8513 8.78627 32.0333 9.44279 31.7325 9.95692C31.4307 10.4707 30.7603 10.6474 30.2344 10.3514L15.9128 2.28787L1.64317 10.3224C1.11731 10.6184 0.44688 10.4415 0.145328 9.92794C-0.15587 9.41381 0.0262664 8.75729 0.55159 8.46129L15.325 0.143725C15.4534 0.0713274 15.5949 0.0251207 15.7412 0.00776107C15.8875 -0.00959854 16.0358 0.00223135 16.1775 0.0425706C16.3093 0.0631109 16.4364 0.107185 16.5526 0.172702L31.3255 8.49027Z"
    fill="black"
  />
  <path
    d="M109.664 25.038C106.78 25.038 105.212 23.694 105.212 20.53V13.698H103.168V10.478H105.212V7.538L108.992 7.146V10.478H112.072V13.698H108.992V20.334C108.992 21.258 109.44 21.678 110.168 21.678H111.736V25.038H109.664Z"
    fill="black"
  />
  <path
    d="M96.4083 25.4021C92.2363 25.4021 88.9043 21.9861 88.9043 17.7581C88.9043 13.5301 92.1523 10.1421 96.6043 10.1141C99.2643 10.0861 101.42 11.1221 102.652 12.8301L99.7403 15.2101C99.0683 14.2021 97.9483 13.5581 96.6603 13.5581C94.2523 13.5581 92.6843 15.4901 92.6843 17.7581C92.6843 20.0261 94.3363 21.9581 96.7443 21.9581C98.2003 21.9581 99.1523 21.2301 99.9083 20.2221L102.652 22.6021C101.28 24.3661 99.2643 25.4021 96.4083 25.4021Z"
    fill="black"
  />
  <path
    d="M80.6043 25.402C76.0963 25.402 73.0723 21.986 73.0723 17.786C73.0723 13.586 76.2363 10.114 80.6043 10.114C84.9723 10.114 87.9963 13.586 87.9963 17.786C87.9963 18.206 87.9683 18.654 87.8843 19.13H76.9923C77.4123 20.838 78.7003 22.042 80.6043 22.042C82.2283 22.042 83.4883 21.202 84.1603 20.082L87.1003 22.294C85.9243 24.114 83.4883 25.402 80.6043 25.402ZM76.9923 16.302H84.1883C83.7683 14.678 82.3963 13.362 80.5483 13.362C78.7563 13.362 77.4123 14.566 76.9923 16.302Z"
    fill="black"
  />
  <path
    d="M66.3292 9.49802C66.3292 6.55802 68.2332 4.59802 71.1732 4.59802H72.7412V7.81802H71.7612C70.6412 7.81802 70.1092 8.40602 70.1092 9.55402V10.478H73.0772V13.698H70.1092V25.038H66.3292V13.698H64.2852V10.478H66.3292V9.49802Z"
    fill="black"
  />
  <path
    d="M56.9776 9.49802C56.9776 6.55802 58.8816 4.59802 61.8216 4.59802H63.3896V7.81802H62.4096C61.2896 7.81802 60.7576 8.40602 60.7576 9.55402V10.478H63.7256V13.698H60.7576V25.038H56.9776V13.698H54.9336V10.478H56.9776V9.49802Z"
    fill="black"
  />
  <path
    d="M41.8926 25.038V5.43799H53.3726V8.96599H45.8126V13.362H53.2326V16.778H45.8126V21.51H53.4286V25.038H41.8926Z"
    fill="black"
  />
</svg>
