<?xml version="1.0" encoding="UTF-8" standalone="no"?>
<svg
   xmlns:dc="http://purl.org/dc/elements/1.1/"
   xmlns:cc="http://creativecommons.org/ns#"
   xmlns:rdf="http://www.w3.org/1999/02/22-rdf-syntax-ns#"
   xmlns:svg="http://www.w3.org/2000/svg"
   xmlns="http://www.w3.org/2000/svg"
   xmlns:sodipodi="http://sodipodi.sourceforge.net/DTD/sodipodi-0.dtd"
   xmlns:inkscape="http://www.inkscape.org/namespaces/inkscape"
   width="120"
   height="60"
   viewBox="0 0 120 60"
   version="1.1"
   id="svg36"
   sodipodi:docname="supabase-ar21.svg"
   style="fill:none"
   inkscape:version="0.92.4 (5da689c313, 2019-01-14)">
  <metadata
     id="metadata40">
    <rdf:RDF>
      <cc:Work
         rdf:about="">
        <dc:format>image/svg+xml</dc:format>
        <dc:type
           rdf:resource="http://purl.org/dc/dcmitype/StillImage" />
        <dc:title></dc:title>
      </cc:Work>
    </rdf:RDF>
  </metadata>
  <sodipodi:namedview
     pagecolor="#ffffff"
     bordercolor="#666666"
     borderopacity="1"
     objecttolerance="10"
     gridtolerance="10"
     guidetolerance="10"
     inkscape:pageopacity="0"
     inkscape:pageshadow="2"
     inkscape:window-width="1675"
     inkscape:window-height="825"
     id="namedview38"
     showgrid="false"
     inkscape:zoom="6.6568543"
     inkscape:cx="58.814548"
     inkscape:cy="28.898498"
     inkscape:window-x="70"
     inkscape:window-y="0"
     inkscape:window-maximized="0"
     inkscape:current-layer="svg36" />
  <path
     d="m 30.621635,32.208986 c 0.117734,1.100939 1.11916,2.98824 4.025359,2.98824 2.532949,0 3.750581,-1.612071 3.750581,-3.18481 0,-1.415501 -0.962312,-2.575405 -2.866888,-2.968624 l -1.374676,-0.294866 c -0.530098,-0.09829 -0.883496,-0.39318 -0.883496,-0.865019 0,-0.55048 0.549752,-0.963296 1.23709,-0.963296 1.099505,0 1.511869,0.727375 1.590489,1.29753 l 2.179551,-0.491495 c -0.117734,-1.041955 -1.040737,-2.79163 -3.789695,-2.79163 -2.081473,0 -3.612995,1.435135 -3.612995,3.165136 0,1.356495 0.844185,2.477129 2.709648,2.889944 l 1.2764,0.294904 c 0.746107,0.157261 1.040737,0.511171 1.040737,0.94366 0,0.51115 -0.412364,0.963316 -1.276401,0.963316 -1.138815,0 -1.708419,-0.70776 -1.767188,-1.474485 z"
     id="path2"
     inkscape:connector-curvature="0"
     style="fill:#1f1f1f;stroke-width:0.19655074" />
  <path
     d="m 46.743513,34.90234 h 2.493836 c -0.03931,-0.334215 -0.09827,-1.002625 -0.09827,-1.749714 v -7.922745 h -2.611767 v 5.62259 c 0,1.120614 -0.667486,1.906975 -1.825955,1.906975 -1.217436,0 -1.767385,-0.86502 -1.767385,-1.946285 v -5.58328 h -2.611575 v 6.114105 c 0,2.103544 1.33517,3.813929 3.671962,3.813929 1.020884,0 2.140634,-0.39318 2.670732,-1.297529 0,0.39318 0.03911,0.845344 0.07842,1.041954 z"
     id="path4"
     inkscape:connector-curvature="0"
     style="fill:#1f1f1f;stroke-width:0.19655074" />
  <path
     d="M 54.537732,38.637649 V 33.95872 c 0.471132,0.648735 1.4531,1.179579 2.788466,1.179579 2.729303,0 4.55526,-2.162589 4.55526,-5.091843 0,-2.87025 -1.629603,-5.0328 -4.457182,-5.0328 -1.452902,0 -2.532949,0.648735 -2.964967,1.395825 v -1.179579 h -2.53295 v 13.407747 z m 4.771466,-8.571518 c 0,1.730059 -1.060195,2.732665 -2.395561,2.732665 -1.334972,0 -2.415018,-1.022281 -2.415018,-2.732665 0,-1.710366 1.080046,-2.71301 2.415018,-2.71301 1.335366,0 2.395561,1.002644 2.395561,2.71301 z"
     id="path6"
     inkscape:connector-curvature="0"
     style="fill:#1f1f1f;stroke-width:0.19655074" />
  <path
     d="m 63.360502,32.267971 c 0,1.513794 1.256548,2.909619 3.318563,2.909619 1.433052,0 2.356053,-0.668449 2.84684,-1.435174 0,0.373545 0.03931,0.90433 0.09827,1.159924 h 2.395559 c -0.05897,-0.334215 -0.117536,-1.0223 -0.117536,-1.533429 v -4.75761 c 0,-1.946285 -1.139012,-3.676285 -4.202059,-3.676285 -2.592111,0 -3.986442,1.671016 -4.143289,3.18481 l 2.316939,0.491475 c 0.07863,-0.845345 0.706993,-1.57274 1.845612,-1.57274 1.099898,0 1.629995,0.570115 1.629995,1.2582 0,0.334215 -0.176503,0.609465 -0.726451,0.688085 l -2.375905,0.353871 c -1.610145,0.235919 -2.886544,1.199214 -2.886544,2.929254 z m 3.868119,0.963314 c -0.844187,0 -1.256746,-0.550459 -1.256746,-1.120574 0,-0.747071 0.530097,-1.120615 1.197977,-1.21889 l 2.179551,-0.334215 v 0.43249 c 0,1.710405 -1.021082,2.241189 -2.120782,2.241189 z"
     id="path8"
     inkscape:connector-curvature="0"
     style="fill:#1f1f1f;stroke-width:0.19655074" />
  <path
     d="M 77.067754,34.90238 V 33.7228 c 0.510246,0.82571 1.531326,1.415499 2.866692,1.415499 2.749352,0 4.55585,-2.182224 4.55585,-5.111478 0,-2.870289 -1.629995,-5.052475 -4.457574,-5.052475 -1.433642,0 -2.493836,0.6291 -2.925855,1.317146 v -5.62258 h -2.57226 V 34.90238 Z m 4.810579,-4.855924 c 0,1.769369 -1.060195,2.75234 -2.395561,2.75234 -1.315513,0 -2.415018,-1.002606 -2.415018,-2.75234 0,-1.76935 1.099505,-2.732645 2.415018,-2.732645 1.335366,0 2.395561,0.963295 2.395561,2.732645 z"
     id="path10"
     inkscape:connector-curvature="0"
     style="fill:#1f1f1f;stroke-width:0.19655074" />
  <path
     d="m 85.968947,32.267971 c 0,1.513794 1.256549,2.909619 3.318366,2.909619 1.433248,0 2.356447,-0.668449 2.847038,-1.435174 0,0.373545 0.03951,0.90433 0.09827,1.159924 h 2.395561 c -0.05857,-0.334215 -0.117538,-1.0223 -0.117538,-1.533429 v -4.75761 c 0,-1.946285 -1.139011,-3.676285 -4.202254,-3.676285 -2.591915,0 -3.986049,1.671016 -4.143093,3.18481 l 2.316744,0.491475 c 0.07882,-0.845345 0.707189,-1.57274 1.845807,-1.57274 1.099898,0 1.629996,0.570115 1.629996,1.2582 0,0.334215 -0.176699,0.609465 -0.726649,0.688085 l -2.375709,0.353871 c -1.610143,0.235919 -2.886544,1.199214 -2.886544,2.929254 z m 3.868315,0.963314 c -0.844382,0 -1.256942,-0.550459 -1.256942,-1.120574 0,-0.747071 0.530098,-1.120615 1.197977,-1.21889 l 2.179551,-0.334215 v 0.43249 c 0,1.710405 -1.021081,2.241189 -2.120586,2.241189 z"
     id="path12"
     inkscape:connector-curvature="0"
     style="fill:#1f1f1f;stroke-width:0.19655074" />
  <path
     d="m 96.318326,32.208986 c 0.117538,1.100939 1.119162,2.98824 4.025164,2.98824 2.53315,0 3.75039,-1.612071 3.75039,-3.18481 0,-1.415501 -0.96192,-2.575405 -2.8667,-2.968624 l -1.374672,-0.294866 c -0.5301,-0.09829 -0.8833,-0.39318 -0.8833,-0.865019 0,-0.55048 0.54955,-0.963296 1.236892,-0.963296 1.0999,0 1.51207,0.727375 1.59088,1.29753 l 2.17936,-0.491495 c -0.11793,-1.041955 -1.04074,-2.79163 -3.7897,-2.79163 -2.081672,0 -3.612995,1.435135 -3.612995,3.165136 0,1.356495 0.843993,2.477129 2.709653,2.889944 L 100.5597,31.285 c 0.7463,0.157261 1.04073,0.511171 1.04073,0.94366 0,0.51115 -0.41236,0.963316 -1.2764,0.963316 -1.139012,0 -1.708222,-0.70776 -1.767192,-1.474485 z"
     id="path14"
     inkscape:connector-curvature="0"
     style="fill:#1f1f1f;stroke-width:0.19655074" />
  <path
     d="m 108.06027,28.965172 c 0.059,-0.884655 0.80527,-1.906976 2.16009,-1.906976 1.49222,0 2.12078,0.94368 2.16009,1.906976 z m 4.5755,2.516438 c -0.31429,0.86498 -0.98196,1.474445 -2.1994,1.474445 -1.29605,0 -2.3761,-0.924005 -2.43467,-2.201839 h 6.91171 c 0,-0.03937 0.0391,-0.43253 0.0391,-0.806075 0,-3.106189 -1.78665,-5.013125 -4.77146,-5.013125 -2.47399,0 -4.75201,2.005231 -4.75201,5.091784 0,3.26345 2.33659,5.170426 4.98767,5.170426 2.3759,0 3.90762,-1.395826 4.3986,-3.06688 z"
     id="path16"
     inkscape:connector-curvature="0"
     style="fill:#1f1f1f;stroke-width:0.19655074" />
  <path
     d="m 17.949548,40.763502 c -0.562037,0.70778 -1.701619,0.319986 -1.715161,-0.583755 L 16.036362,26.961455 h 8.887966 c 1.609849,0 2.507692,1.859389 1.506659,3.120183 z"
     id="path18"
     inkscape:connector-curvature="0"
     style="fill:url(#paint0_linear);stroke-width:0.19655074" />
  <path
     d="m 17.949548,40.763502 c -0.562037,0.70778 -1.701619,0.319986 -1.715161,-0.583755 L 16.036362,26.961455 h 8.887966 c 1.609849,0 2.507692,1.859389 1.506659,3.120183 z"
     id="path20"
     inkscape:connector-curvature="0"
     style="fill:url(#paint1_linear);fill-opacity:0.2;stroke-width:0.19655074" />
  <path
     d="m 14.334862,19.494164 c 0.562036,-0.707858 1.701638,-0.320003 1.715181,0.58375 l 0.08677,13.218272 H 7.3600879 c -1.6098982,0 -2.5077675,-1.859389 -1.5066855,-3.120183 z"
     id="path22"
     inkscape:connector-curvature="0"
     style="fill:#3ecf8e;stroke-width:0.19655074" />
  <defs
     id="defs34">
    <linearGradient
       id="paint0_linear"
       x1="53.973801"
       y1="54.973999"
       x2="94.163498"
       y2="71.829498"
       gradientUnits="userSpaceOnUse"
       gradientTransform="matrix(0.19655075,0,0,0.19655075,5.4277721,19.087102)">
      <stop
         stop-color="#249361"
         id="stop24" />
      <stop
         offset="1"
         stop-color="#3ECF8E"
         id="stop26" />
    </linearGradient>
    <linearGradient
       id="paint1_linear"
       x1="36.1558"
       y1="30.577999"
       x2="54.484402"
       y2="65.080597"
       gradientUnits="userSpaceOnUse"
       gradientTransform="matrix(0.19655075,0,0,0.19655075,5.4277721,19.087102)">
      <stop
         id="stop29" />
      <stop
         offset="1"
         stop-opacity="0"
         id="stop31" />
    </linearGradient>
  </defs>
</svg>
