<svg width="100%" viewBox="0 0 680 300" xmlns="http://www.w3.org/2000/svg">
<defs>
  <marker id="arrow" viewBox="0 0 10 10" refX="8" refY="5" markerWidth="6" markerHeight="6" orient="auto-start-reverse">
    <path d="M2 1L8 5L2 9" fill="none" stroke="context-stroke" stroke-width="1.5" stroke-linecap="round" stroke-linejoin="round"/>
  </marker>
</defs>

<!-- Shared session label -->
<text font-family="sans-serif" font-size="14" font-weight="500" fill="#444441" x="40" y="42">Shared session</text>

<!-- Shared session blocks -->
<rect x="40" y="56" width="72" height="36" rx="4" fill="#9FE1CB" stroke="#0F6E56" stroke-width="0.5"/>
<text font-family="sans-serif" font-size="12" fill="#085041" x="76" y="78" text-anchor="middle">context</text>

<line x1="112" y1="74" x2="124" y2="74" stroke="#888780" stroke-width="1.5" marker-end="url(#arrow)"/>

<rect x="130" y="56" width="72" height="36" rx="4" fill="#9FE1CB" stroke="#0F6E56" stroke-width="0.5"/>
<text font-family="sans-serif" font-size="12" fill="#085041" x="166" y="78" text-anchor="middle">task</text>

<line x1="202" y1="74" x2="214" y2="74" stroke="#888780" stroke-width="1.5" marker-end="url(#arrow)"/>

<rect x="220" y="56" width="72" height="36" rx="4" fill="#9FE1CB" stroke="#0F6E56" stroke-width="0.5"/>
<text font-family="sans-serif" font-size="12" fill="#085041" x="256" y="78" text-anchor="middle">plan</text>

<!-- Fork point -->
<circle cx="308" cy="74" r="5" fill="#EF9F27" stroke="none"/>

<!-- Branch 1: top -->
<path d="M313 74 L340 74 L380 34" fill="none" stroke="#888780" stroke-width="0.5" marker-end="url(#arrow)"/>

<rect x="386" y="12" width="120" height="44" rx="4" fill="#CECBF6" stroke="#534AB7" stroke-width="0.5"/>
<text font-family="sans-serif" font-size="14" font-weight="500" fill="#3C3489" x="446" y="30" text-anchor="middle">Agent A</text>
<text font-family="sans-serif" font-size="12" fill="#534AB7" x="446" y="46" text-anchor="middle">strategy 1</text>

<line x1="506" y1="34" x2="518" y2="34" stroke="#888780" stroke-width="1.5" marker-end="url(#arrow)"/>

<rect x="524" y="16" width="56" height="36" rx="4" fill="#CECBF6" stroke="#534AB7" stroke-width="0.5"/>
<text font-family="sans-serif" font-size="12" fill="#3C3489" x="552" y="38" text-anchor="middle">msg 4</text>

<line x1="580" y1="34" x2="592" y2="34" stroke="#888780" stroke-width="1.5" marker-end="url(#arrow)"/>

<rect x="598" y="16" width="56" height="36" rx="4" fill="#CECBF6" stroke="#534AB7" stroke-width="0.5"/>
<text font-family="sans-serif" font-size="12" fill="#3C3489" x="626" y="38" text-anchor="middle">msg 5</text>

<!-- Branch 2: middle -->
<line x1="313" y1="74" x2="380" y2="124" stroke="#888780" stroke-width="0.5" marker-end="url(#arrow)"/>

<rect x="386" y="102" width="120" height="44" rx="4" fill="#F5C4B3" stroke="#993C1D" stroke-width="0.5"/>
<text font-family="sans-serif" font-size="14" font-weight="500" fill="#712B13" x="446" y="120" text-anchor="middle">Agent B</text>
<text font-family="sans-serif" font-size="12" fill="#993C1D" x="446" y="136" text-anchor="middle">strategy 2</text>

<line x1="506" y1="124" x2="518" y2="124" stroke="#888780" stroke-width="1.5" marker-end="url(#arrow)"/>

<rect x="524" y="106" width="56" height="36" rx="4" fill="#F5C4B3" stroke="#993C1D" stroke-width="0.5"/>
<text font-family="sans-serif" font-size="12" fill="#712B13" x="552" y="128" text-anchor="middle">msg 4</text>

<line x1="580" y1="124" x2="592" y2="124" stroke="#888780" stroke-width="1.5" marker-end="url(#arrow)"/>

<rect x="598" y="106" width="56" height="36" rx="4" fill="#F5C4B3" stroke="#993C1D" stroke-width="0.5"/>
<text font-family="sans-serif" font-size="12" fill="#712B13" x="626" y="128" text-anchor="middle">msg 5</text>

<!-- Branch 3: bottom -->
<path d="M313 74 L340 74 L380 214" fill="none" stroke="#888780" stroke-width="0.5" marker-end="url(#arrow)"/>

<rect x="386" y="192" width="120" height="44" rx="4" fill="#FAC775" stroke="#854F0B" stroke-width="0.5"/>
<text font-family="sans-serif" font-size="14" font-weight="500" fill="#633806" x="446" y="210" text-anchor="middle">Agent C</text>
<text font-family="sans-serif" font-size="12" fill="#854F0B" x="446" y="226" text-anchor="middle">strategy 3</text>

<line x1="506" y1="214" x2="518" y2="214" stroke="#888780" stroke-width="1.5" marker-end="url(#arrow)"/>

<rect x="524" y="196" width="56" height="36" rx="4" fill="#FAC775" stroke="#854F0B" stroke-width="0.5"/>
<text font-family="sans-serif" font-size="12" fill="#633806" x="552" y="218" text-anchor="middle">msg 4</text>

<!-- Shared context note -->
<text font-family="sans-serif" font-size="12" fill="#888780" x="166" y="118" text-anchor="middle">shared, not copied</text>

</svg>
