<svg viewBox="0 0 24 24">
  <path d="M17.8506 11.5442C17.0475 10.6829 16.0641 10.0096 14.9707 9.57227M20.7759 8.81625C19.5712 7.52437 18.0961 6.51439 16.4561 5.8584C14.816 5.20241 13.0514 4.91635 11.2881 5.02111M8.34277 14.5905C8.95571 13.9332 9.73448 13.4532 10.5971 13.2012C11.4598 12.9491 12.3745 12.9335 13.2449 13.1574M6.14941 11.5438C7.09778 10.5268 8.29486 9.77461 9.62259 9.36133M3.22363 8.81604C4.1215 7.85319 5.17169 7.04466 6.33211 6.42285M4.41406 4L18.5562 18.1421M12 19C11.4477 19 11 18.5523 11 18C11 17.4477 11.4477 17 12 17C12.5523 17 13 17.4477 13 18C13 18.5523 12.5523 19 12 19Z" stroke="currentColor" stroke-width="2" stroke-linecap="round" stroke-linejoin="round"/>
</svg>
